<svg xmlns="http://www.w3.org/2000/svg" xmlns:xlink="http://www.w3.org/1999/xlink" width="150" zoomAndPan="magnify" viewBox="0 0 112.5 37.5" height="50" preserveAspectRatio="xMidYMid meet" version="1.0"><defs><filter x="0%" y="0%" width="100%" height="100%" id="5c0cc63cda"><feColorMatrix values="0 0 0 0 1 0 0 0 0 1 0 0 0 0 1 0 0 0 1 0" color-interpolation-filters="sRGB"/></filter><g/><mask id="9fd1aed137"><g filter="url(#5c0cc63cda)"><rect x="-11.25" width="135" fill="#000000" y="-3.75" height="45" fill-opacity="0.3686"/></g></mask><clipPath id="858334e90d"><path d="M 0.859375 1.0625 L 25 1.0625 L 25 35.472656 L 0.859375 35.472656 Z M 0.859375 1.0625 " clip-rule="nonzero"/></clipPath><clipPath id="a30c6c3444"><rect x="0" width="26" y="0" height="36"/></clipPath></defs><g mask="url(#9fd1aed137)"><g transform="matrix(1, 0, 0, 1, 47, 1)"><g clip-path="url(#a30c6c3444)"><g clip-path="url(#858334e90d)"><path fill="#1e4edd" d="M 22.472656 22.882812 C 21.945312 21.890625 21.4375 20.953125 21.148438 20.421875 C 22.21875 19.535156 22.867188 17.910156 22.902344 15.65625 C 22.929688 13.847656 22.558594 12.265625 22.558594 12.265625 C 22.558594 12.265625 22.421875 12.234375 22.257812 12.214844 C 22.128906 11.785156 21.933594 11.195312 21.671875 10.464844 C 21.730469 10.441406 21.765625 10.4375 21.765625 10.4375 L 21.164062 8.796875 C 21.164062 8.796875 21.105469 8.761719 21.019531 8.730469 C 19.046875 3.828125 17.015625 2.214844 16.53125 1.675781 C 16.019531 1.109375 15.542969 1.167969 14.972656 1.109375 C 14.550781 1.0625 13.339844 1.296875 12.730469 1.421875 C 12.617188 1.34375 12.523438 1.320312 12.523438 1.320312 C 12.523438 1.320312 11.613281 1.476562 10.804688 1.972656 C 10.351562 2.246094 10.546875 3.0625 10.664062 3.28125 C 10.785156 3.496094 10.976562 3.753906 11.394531 3.65625 C 11.8125 3.558594 12.914062 2.871094 13.09375 2.636719 C 13.128906 2.449219 13.136719 2.292969 13.125 2.152344 C 13.839844 2.003906 15.355469 1.714844 15.671875 1.847656 C 16.023438 1.996094 18.074219 3.414062 20.285156 9.152344 C 20.261719 9.246094 20.246094 9.359375 20.234375 9.492188 L 20.195312 9.507812 C 20.195312 9.507812 20.320312 9.8125 20.445312 10.292969 C 21.023438 12.523438 20.691406 14.878906 18.03125 15.761719 C 15.683594 16.535156 12.972656 15.234375 11.117188 13.890625 C 10.675781 13.574219 10.421875 13.351562 10.421875 13.351562 L 10.398438 13.375 L 10.34375 13.3125 C 10.34375 13.3125 10.21875 13.203125 10.0625 13.164062 C 6.710938 9.210938 5.542969 6.691406 6.046875 5.707031 C 6.597656 4.636719 7.683594 4.347656 7.867188 4.292969 C 7.988281 4.5 8.152344 4.691406 8.316406 4.667969 C 9.445312 4.507812 10.15625 4.121094 10.15625 4.121094 C 10.15625 4.121094 10.335938 4.140625 10.214844 3.300781 C 10.09375 2.457031 9.464844 2.417969 9.464844 2.417969 C 8.753906 2.617188 8.078125 2.984375 7.785156 3.160156 C 7.609375 3.269531 7.582031 3.4375 7.605469 3.605469 C 7.582031 3.597656 7.566406 3.597656 7.566406 3.597656 C 7.699219 3.597656 5.925781 4.140625 5.335938 5.707031 C 4.859375 6.976562 6.847656 11.164062 12.21875 16.839844 C 12.148438 16.988281 12.109375 17.109375 12.109375 17.109375 C 12.917969 18.042969 13.894531 18.914062 14.894531 19.632812 C 16.792969 21.003906 18.527344 21.445312 19.894531 21.074219 C 20.605469 22.390625 22.734375 26.328125 23.039062 27.097656 C 23.386719 27.976562 23.992188 30.058594 22.621094 32.503906 C 21.949219 33.703125 19.691406 34.472656 17.898438 33.671875 C 16.867188 33.210938 15.710938 32.097656 14.839844 31.371094 C 8.847656 26.367188 7.339844 31.835938 4.667969 30.25 C 3.121094 29.335938 2.441406 27.210938 2.441406 25.726562 C 2.441406 24.710938 3.40625 21.785156 3.425781 21.722656 C 3.425781 21.722656 3.335938 21.632812 3.210938 21.535156 L 3.269531 21.371094 C 3.382812 21.386719 3.5 21.398438 3.621094 21.398438 C 5.144531 21.398438 6.382812 20.171875 6.382812 18.65625 C 6.382812 17.144531 5.144531 15.917969 3.621094 15.917969 C 2.09375 15.917969 0.855469 17.144531 0.855469 18.65625 C 0.855469 19.769531 1.527344 20.726562 2.488281 21.15625 L 2.445312 21.265625 C 2.25 21.261719 2.082031 21.28125 2.082031 21.28125 C 1.710938 22.402344 1.027344 24.621094 1.027344 25.726562 C 1.027344 27.449219 1.78125 30.179688 3.941406 31.457031 C 5.910156 32.625 7.535156 31.332031 9.324219 30.765625 C 12.347656 29.804688 14.75 33.804688 17.316406 34.953125 C 19.664062 36.003906 22.769531 35.128906 23.859375 33.1875 C 26.132812 29.125 24.316406 26.335938 22.472656 22.882812 Z M 22.472656 22.882812 " fill-opacity="1" fill-rule="nonzero"/></g></g></g></g><g fill="#2d67fe" fill-opacity="1"><g transform="translate(32.047105, 24.98691)"><g><path d="M 20.375 -21.625 L 24.734375 -21.625 L 24.734375 0 L 20.125 0 L 20.125 -14.28125 L 14.96875 -7.046875 L 11.28125 -7.046875 L 6.0625 -14.0625 L 6.0625 0 L 1.4375 0 L 1.4375 -21.625 L 5.828125 -21.625 L 13.140625 -11.65625 Z M 20.375 -21.625 "/></g></g></g><g fill="#2d67fe" fill-opacity="1"><g transform="translate(59.43428, 24.98691)"><g><path d="M 5.953125 0 L 1.734375 0 L 1.734375 -15.125 L 5.953125 -15.125 Z M 3.84375 -17.203125 C 3.1875 -17.203125 2.632812 -17.425781 2.1875 -17.875 C 1.75 -18.320312 1.53125 -18.867188 1.53125 -19.515625 C 1.53125 -20.171875 1.75 -20.726562 2.1875 -21.1875 C 2.632812 -21.644531 3.1875 -21.875 3.84375 -21.875 C 4.488281 -21.875 5.035156 -21.644531 5.484375 -21.1875 C 5.929688 -20.726562 6.15625 -20.171875 6.15625 -19.515625 C 6.15625 -18.867188 5.929688 -18.320312 5.484375 -17.875 C 5.035156 -17.425781 4.488281 -17.203125 3.84375 -17.203125 Z M 3.84375 -17.203125 "/></g></g></g><g fill="#2d67fe" fill-opacity="1"><g transform="translate(68.37037, 24.98691)"><g><path d="M 10.984375 -7.9375 C 12.097656 -7.132812 12.65625 -6.003906 12.65625 -4.546875 C 12.65625 -3.867188 12.5 -3.234375 12.1875 -2.640625 C 11.875 -2.054688 11.441406 -1.539062 10.890625 -1.09375 C 10.335938 -0.644531 9.695312 -0.296875 8.96875 -0.046875 C 8.238281 0.203125 7.457031 0.328125 6.625 0.328125 C 5.988281 0.328125 5.367188 0.242188 4.765625 0.078125 C 4.171875 -0.078125 3.617188 -0.296875 3.109375 -0.578125 C 2.597656 -0.859375 2.15625 -1.195312 1.78125 -1.59375 C 1.40625 -2 1.128906 -2.441406 0.953125 -2.921875 C 1.410156 -3.148438 1.925781 -3.398438 2.5 -3.671875 C 3.070312 -3.953125 3.570312 -4.203125 4 -4.421875 C 4.175781 -4.117188 4.457031 -3.835938 4.84375 -3.578125 C 5.226562 -3.328125 5.757812 -3.203125 6.4375 -3.203125 C 7.125 -3.203125 7.628906 -3.363281 7.953125 -3.6875 C 8.285156 -4.007812 8.453125 -4.316406 8.453125 -4.609375 C 8.453125 -4.804688 8.335938 -4.988281 8.109375 -5.15625 C 7.890625 -5.332031 7.632812 -5.472656 7.34375 -5.578125 C 6.9375 -5.742188 6.601562 -5.832031 6.34375 -5.84375 C 6.082031 -5.851562 5.773438 -5.910156 5.421875 -6.015625 C 4.328125 -6.273438 3.488281 -6.625 2.90625 -7.0625 C 2.332031 -7.5 1.910156 -7.941406 1.640625 -8.390625 C 1.378906 -8.835938 1.234375 -9.265625 1.203125 -9.671875 C 1.171875 -10.078125 1.15625 -10.398438 1.15625 -10.640625 C 1.15625 -11.296875 1.296875 -11.914062 1.578125 -12.5 C 1.867188 -13.09375 2.257812 -13.609375 2.75 -14.046875 C 3.25 -14.484375 3.828125 -14.832031 4.484375 -15.09375 C 5.148438 -15.363281 5.863281 -15.5 6.625 -15.5 C 7.25 -15.5 7.84375 -15.40625 8.40625 -15.21875 C 8.976562 -15.03125 9.5 -14.773438 9.96875 -14.453125 C 10.4375 -14.128906 10.835938 -13.742188 11.171875 -13.296875 C 11.515625 -12.847656 11.765625 -12.347656 11.921875 -11.796875 L 8.65625 -10.703125 C 8.539062 -11.066406 8.289062 -11.359375 7.90625 -11.578125 C 7.53125 -11.804688 7.128906 -11.921875 6.703125 -11.921875 C 6.273438 -11.921875 5.929688 -11.78125 5.671875 -11.5 C 5.410156 -11.21875 5.28125 -10.929688 5.28125 -10.640625 C 5.28125 -10.296875 5.40625 -10.023438 5.65625 -9.828125 C 5.90625 -9.640625 6.1875 -9.503906 6.5 -9.421875 C 6.71875 -9.378906 6.929688 -9.34375 7.140625 -9.3125 C 7.359375 -9.28125 7.570312 -9.25 7.78125 -9.21875 C 8.488281 -9.050781 9.101562 -8.863281 9.625 -8.65625 C 10.144531 -8.457031 10.597656 -8.21875 10.984375 -7.9375 Z M 10.984375 -7.9375 "/></g></g></g><g fill="#2d66fd" fill-opacity="1"><g transform="translate(12.616127, 33.535375)"><g><path d="M 0.4375 0 L 0.4375 -5.203125 L 2.296875 -5.203125 C 2.671875 -5.203125 3 -5.132812 3.28125 -5 C 3.570312 -4.863281 3.8125 -4.675781 4 -4.4375 C 4.195312 -4.207031 4.347656 -3.929688 4.453125 -3.609375 C 4.554688 -3.296875 4.609375 -2.957031 4.609375 -2.59375 C 4.609375 -2.238281 4.550781 -1.898438 4.4375 -1.578125 C 4.332031 -1.265625 4.1875 -0.988281 4 -0.75 C 3.820312 -0.519531 3.601562 -0.335938 3.34375 -0.203125 C 3.09375 -0.0664062 2.820312 0 2.53125 0 Z M 2.265625 -0.71875 C 2.546875 -0.71875 2.78125 -0.765625 2.96875 -0.859375 C 3.164062 -0.960938 3.328125 -1.097656 3.453125 -1.265625 C 3.585938 -1.441406 3.679688 -1.644531 3.734375 -1.875 C 3.796875 -2.101562 3.828125 -2.34375 3.828125 -2.59375 C 3.828125 -2.84375 3.796875 -3.082031 3.734375 -3.3125 C 3.679688 -3.550781 3.59375 -3.757812 3.46875 -3.9375 C 3.34375 -4.113281 3.179688 -4.253906 2.984375 -4.359375 C 2.785156 -4.460938 2.546875 -4.515625 2.265625 -4.515625 L 1.21875 -4.515625 L 1.21875 -0.71875 Z M 2.265625 -0.71875 "/></g></g></g><g fill="#2d66fd" fill-opacity="1"><g transform="translate(20.267676, 33.535375)"><g><path d="M 1.828125 -4.578125 L 1.828125 -0.625 L 2.203125 -0.625 L 2.203125 0 L 0.671875 0 L 0.671875 -0.625 L 1.0625 -0.625 L 1.0625 -4.578125 L 0.671875 -4.578125 L 0.671875 -5.203125 L 2.203125 -5.203125 L 2.203125 -4.578125 Z M 1.828125 -4.578125 "/></g></g></g><g fill="#2d66fd" fill-opacity="1"><g transform="translate(25.826715, 33.535375)"><g><path d="M 0.921875 0 L 0.078125 0 L 2.25 -5.203125 L 3.09375 -5.203125 L 5.265625 0 L 4.421875 0 L 3.75 -1.625 L 1.59375 -1.625 Z M 1.890625 -2.328125 L 3.453125 -2.328125 L 2.671875 -4.21875 Z M 1.890625 -2.328125 "/></g></g></g><g fill="#2d66fd" fill-opacity="1"><g transform="translate(33.874736, 33.535375)"><g><path d="M 3.3125 -2.78125 L 4.734375 -2.78125 L 4.734375 -0.875 C 4.503906 -0.59375 4.222656 -0.363281 3.890625 -0.1875 C 3.554688 -0.0078125 3.191406 0.078125 2.796875 0.078125 C 2.441406 0.078125 2.109375 0.00390625 1.796875 -0.140625 C 1.484375 -0.285156 1.210938 -0.476562 0.984375 -0.71875 C 0.753906 -0.957031 0.570312 -1.238281 0.4375 -1.5625 C 0.300781 -1.882812 0.234375 -2.226562 0.234375 -2.59375 C 0.234375 -2.957031 0.300781 -3.300781 0.4375 -3.625 C 0.570312 -3.957031 0.753906 -4.242188 0.984375 -4.484375 C 1.210938 -4.722656 1.484375 -4.910156 1.796875 -5.046875 C 2.109375 -5.191406 2.441406 -5.265625 2.796875 -5.265625 C 3.117188 -5.265625 3.425781 -5.203125 3.71875 -5.078125 C 4.007812 -4.953125 4.269531 -4.785156 4.5 -4.578125 L 4.046875 -4 C 3.878906 -4.175781 3.6875 -4.316406 3.46875 -4.421875 C 3.257812 -4.523438 3.035156 -4.578125 2.796875 -4.578125 C 2.546875 -4.578125 2.3125 -4.523438 2.09375 -4.421875 C 1.875 -4.316406 1.679688 -4.171875 1.515625 -3.984375 C 1.359375 -3.804688 1.234375 -3.597656 1.140625 -3.359375 C 1.046875 -3.117188 1 -2.863281 1 -2.59375 C 1 -2.332031 1.046875 -2.082031 1.140625 -1.84375 C 1.234375 -1.601562 1.359375 -1.394531 1.515625 -1.21875 C 1.679688 -1.039062 1.875 -0.898438 2.09375 -0.796875 C 2.3125 -0.691406 2.546875 -0.640625 2.796875 -0.640625 C 3.023438 -0.640625 3.238281 -0.679688 3.4375 -0.765625 C 3.644531 -0.859375 3.828125 -0.984375 3.984375 -1.140625 L 3.984375 -2.078125 L 3.3125 -2.078125 Z M 3.3125 -2.78125 "/></g></g></g><g fill="#2d66fd" fill-opacity="1"><g transform="translate(41.761232, 33.535375)"><g><path d="M 4.890625 -5.203125 L 4.890625 0 L 4.125 0 L 1.21875 -4 L 1.21875 0 L 0.40625 0 L 0.40625 -5.203125 L 1.21875 -5.203125 L 4.125 -1.1875 L 4.125 -5.203125 Z M 4.890625 -5.203125 "/></g></g></g><g fill="#2d66fd" fill-opacity="1"><g transform="translate(49.75786, 33.535375)"><g><path d="M 2.828125 -5.28125 C 3.179688 -5.28125 3.515625 -5.207031 3.828125 -5.0625 C 4.140625 -4.925781 4.410156 -4.734375 4.640625 -4.484375 C 4.878906 -4.242188 5.066406 -3.960938 5.203125 -3.640625 C 5.335938 -3.316406 5.40625 -2.972656 5.40625 -2.609375 C 5.40625 -2.242188 5.335938 -1.898438 5.203125 -1.578125 C 5.066406 -1.253906 4.878906 -0.96875 4.640625 -0.71875 C 4.398438 -0.476562 4.125 -0.285156 3.8125 -0.140625 C 3.5 -0.00390625 3.164062 0.0625 2.8125 0.0625 C 2.46875 0.0625 2.132812 -0.00390625 1.8125 -0.140625 C 1.5 -0.285156 1.226562 -0.476562 1 -0.71875 C 0.769531 -0.96875 0.585938 -1.253906 0.453125 -1.578125 C 0.316406 -1.898438 0.25 -2.242188 0.25 -2.609375 C 0.25 -2.972656 0.316406 -3.316406 0.453125 -3.640625 C 0.585938 -3.960938 0.769531 -4.242188 1 -4.484375 C 1.238281 -4.734375 1.515625 -4.925781 1.828125 -5.0625 C 2.140625 -5.207031 2.472656 -5.28125 2.828125 -5.28125 Z M 2.828125 -0.65625 C 3.078125 -0.65625 3.3125 -0.707031 3.53125 -0.8125 C 3.75 -0.914062 3.9375 -1.050781 4.09375 -1.21875 C 4.257812 -1.394531 4.390625 -1.601562 4.484375 -1.84375 C 4.578125 -2.082031 4.625 -2.335938 4.625 -2.609375 C 4.625 -2.878906 4.578125 -3.128906 4.484375 -3.359375 C 4.390625 -3.597656 4.257812 -3.804688 4.09375 -3.984375 C 3.9375 -4.160156 3.75 -4.296875 3.53125 -4.390625 C 3.3125 -4.492188 3.078125 -4.546875 2.828125 -4.546875 C 2.578125 -4.546875 2.34375 -4.492188 2.125 -4.390625 C 1.90625 -4.296875 1.710938 -4.160156 1.546875 -3.984375 C 1.390625 -3.804688 1.265625 -3.597656 1.171875 -3.359375 C 1.078125 -3.128906 1.03125 -2.878906 1.03125 -2.609375 C 1.03125 -2.335938 1.078125 -2.082031 1.171875 -1.84375 C 1.265625 -1.601562 1.390625 -1.394531 1.546875 -1.21875 C 1.710938 -1.050781 1.90625 -0.914062 2.125 -0.8125 C 2.34375 -0.707031 2.578125 -0.65625 2.828125 -0.65625 Z M 3.3125 -6.859375 L 2.890625 -5.5625 L 2.3125 -5.5625 L 2.5 -6.859375 Z M 3.3125 -6.859375 "/></g></g></g><g fill="#2d66fd" fill-opacity="1"><g transform="translate(58.06286, 33.535375)"><g><path d="M 3.890625 -1.46875 C 3.890625 -1.238281 3.84375 -1.03125 3.75 -0.84375 C 3.664062 -0.65625 3.535156 -0.492188 3.359375 -0.359375 C 3.023438 -0.0664062 2.59375 0.078125 2.0625 0.078125 C 1.65625 0.078125 1.285156 -0.00390625 0.953125 -0.171875 C 0.617188 -0.347656 0.375 -0.578125 0.21875 -0.859375 L 0.859375 -1.203125 C 0.960938 -1.023438 1.117188 -0.882812 1.328125 -0.78125 C 1.546875 -0.6875 1.789062 -0.640625 2.0625 -0.640625 C 2.769531 -0.640625 3.125 -0.914062 3.125 -1.46875 C 3.125 -1.5625 3.101562 -1.644531 3.0625 -1.71875 C 3.03125 -1.800781 2.976562 -1.875 2.90625 -1.9375 C 2.726562 -2.082031 2.410156 -2.210938 1.953125 -2.328125 C 1.679688 -2.398438 1.453125 -2.476562 1.265625 -2.5625 C 1.078125 -2.644531 0.914062 -2.738281 0.78125 -2.84375 C 0.476562 -3.09375 0.328125 -3.425781 0.328125 -3.84375 C 0.328125 -4.050781 0.363281 -4.242188 0.4375 -4.421875 C 0.519531 -4.597656 0.632812 -4.753906 0.78125 -4.890625 C 0.9375 -5.015625 1.113281 -5.109375 1.3125 -5.171875 C 1.519531 -5.242188 1.742188 -5.28125 1.984375 -5.28125 C 2.347656 -5.28125 2.675781 -5.210938 2.96875 -5.078125 C 3.269531 -4.941406 3.503906 -4.75 3.671875 -4.5 L 3.0625 -4.125 C 2.925781 -4.300781 2.765625 -4.421875 2.578125 -4.484375 C 2.390625 -4.554688 2.191406 -4.59375 1.984375 -4.59375 C 1.835938 -4.59375 1.703125 -4.566406 1.578125 -4.515625 C 1.460938 -4.472656 1.363281 -4.414062 1.28125 -4.34375 C 1.207031 -4.289062 1.15625 -4.21875 1.125 -4.125 C 1.09375 -4.039062 1.078125 -3.953125 1.078125 -3.859375 C 1.078125 -3.796875 1.085938 -3.726562 1.109375 -3.65625 C 1.128906 -3.59375 1.175781 -3.523438 1.25 -3.453125 C 1.320312 -3.378906 1.425781 -3.3125 1.5625 -3.25 C 1.707031 -3.1875 1.90625 -3.125 2.15625 -3.0625 C 2.445312 -2.976562 2.691406 -2.894531 2.890625 -2.8125 C 3.085938 -2.726562 3.257812 -2.628906 3.40625 -2.515625 C 3.726562 -2.242188 3.890625 -1.894531 3.890625 -1.46875 Z M 3.890625 -1.46875 "/></g></g></g><g fill="#2d66fd" fill-opacity="1"><g transform="translate(64.99488, 33.535375)"><g><path d="M 1.453125 -4.515625 L 0.03125 -4.515625 L 0.03125 -5.203125 L 3.625 -5.203125 L 3.625 -4.515625 L 2.203125 -4.515625 L 2.203125 0 L 1.453125 0 Z M 1.453125 -4.515625 "/></g></g></g><g fill="#2d66fd" fill-opacity="1"><g transform="translate(71.501058, 33.535375)"><g><path d="M 1.828125 -4.578125 L 1.828125 -0.625 L 2.203125 -0.625 L 2.203125 0 L 0.671875 0 L 0.671875 -0.625 L 1.0625 -0.625 L 1.0625 -4.578125 L 0.671875 -4.578125 L 0.671875 -5.203125 L 2.203125 -5.203125 L 2.203125 -4.578125 Z M 1.828125 -4.578125 "/></g></g></g><g fill="#2d66fd" fill-opacity="1"><g transform="translate(77.060098, 33.535375)"><g><path d="M 2.859375 -0.640625 C 3.148438 -0.640625 3.414062 -0.707031 3.65625 -0.84375 C 3.894531 -0.976562 4.097656 -1.160156 4.265625 -1.390625 L 4.796875 -0.875 C 4.566406 -0.59375 4.28125 -0.363281 3.9375 -0.1875 C 3.601562 -0.0078125 3.242188 0.078125 2.859375 0.078125 C 2.503906 0.078125 2.171875 0.00390625 1.859375 -0.140625 C 1.546875 -0.285156 1.273438 -0.476562 1.046875 -0.71875 C 0.816406 -0.957031 0.632812 -1.238281 0.5 -1.5625 C 0.363281 -1.894531 0.296875 -2.238281 0.296875 -2.59375 C 0.296875 -2.96875 0.363281 -3.316406 0.5 -3.640625 C 0.632812 -3.960938 0.816406 -4.242188 1.046875 -4.484375 C 1.273438 -4.722656 1.546875 -4.910156 1.859375 -5.046875 C 2.171875 -5.191406 2.503906 -5.265625 2.859375 -5.265625 C 3.191406 -5.265625 3.503906 -5.203125 3.796875 -5.078125 C 4.085938 -4.953125 4.347656 -4.78125 4.578125 -4.5625 L 4.125 -3.984375 C 3.957031 -4.160156 3.765625 -4.300781 3.546875 -4.40625 C 3.335938 -4.519531 3.109375 -4.578125 2.859375 -4.578125 C 2.609375 -4.578125 2.375 -4.523438 2.15625 -4.421875 C 1.945312 -4.316406 1.757812 -4.171875 1.59375 -3.984375 C 1.425781 -3.804688 1.296875 -3.597656 1.203125 -3.359375 C 1.109375 -3.117188 1.0625 -2.863281 1.0625 -2.59375 C 1.0625 -2.332031 1.109375 -2.082031 1.203125 -1.84375 C 1.296875 -1.601562 1.425781 -1.394531 1.59375 -1.21875 C 1.757812 -1.039062 1.945312 -0.898438 2.15625 -0.796875 C 2.375 -0.691406 2.609375 -0.640625 2.859375 -0.640625 Z M 2.859375 -0.640625 "/></g></g></g><g fill="#2d66fd" fill-opacity="1"><g transform="translate(84.770386, 33.535375)"><g><path d="M 2.828125 -5.28125 C 3.179688 -5.28125 3.515625 -5.207031 3.828125 -5.0625 C 4.140625 -4.925781 4.410156 -4.734375 4.640625 -4.484375 C 4.878906 -4.242188 5.066406 -3.960938 5.203125 -3.640625 C 5.335938 -3.316406 5.40625 -2.972656 5.40625 -2.609375 C 5.40625 -2.242188 5.335938 -1.898438 5.203125 -1.578125 C 5.066406 -1.253906 4.878906 -0.96875 4.640625 -0.71875 C 4.398438 -0.476562 4.125 -0.285156 3.8125 -0.140625 C 3.5 -0.00390625 3.164062 0.0625 2.8125 0.0625 C 2.46875 0.0625 2.132812 -0.00390625 1.8125 -0.140625 C 1.5 -0.285156 1.226562 -0.476562 1 -0.71875 C 0.769531 -0.96875 0.585938 -1.253906 0.453125 -1.578125 C 0.316406 -1.898438 0.25 -2.242188 0.25 -2.609375 C 0.25 -2.972656 0.316406 -3.316406 0.453125 -3.640625 C 0.585938 -3.960938 0.769531 -4.242188 1 -4.484375 C 1.238281 -4.734375 1.515625 -4.925781 1.828125 -5.0625 C 2.140625 -5.207031 2.472656 -5.28125 2.828125 -5.28125 Z M 2.828125 -0.65625 C 3.078125 -0.65625 3.3125 -0.707031 3.53125 -0.8125 C 3.75 -0.914062 3.9375 -1.050781 4.09375 -1.21875 C 4.257812 -1.394531 4.390625 -1.601562 4.484375 -1.84375 C 4.578125 -2.082031 4.625 -2.335938 4.625 -2.609375 C 4.625 -2.878906 4.578125 -3.128906 4.484375 -3.359375 C 4.390625 -3.597656 4.257812 -3.804688 4.09375 -3.984375 C 3.9375 -4.160156 3.75 -4.296875 3.53125 -4.390625 C 3.3125 -4.492188 3.078125 -4.546875 2.828125 -4.546875 C 2.578125 -4.546875 2.34375 -4.492188 2.125 -4.390625 C 1.90625 -4.296875 1.710938 -4.160156 1.546875 -3.984375 C 1.390625 -3.804688 1.265625 -3.597656 1.171875 -3.359375 C 1.078125 -3.128906 1.03125 -2.878906 1.03125 -2.609375 C 1.03125 -2.335938 1.078125 -2.082031 1.171875 -1.84375 C 1.265625 -1.601562 1.390625 -1.394531 1.546875 -1.21875 C 1.710938 -1.050781 1.90625 -0.914062 2.125 -0.8125 C 2.34375 -0.707031 2.578125 -0.65625 2.828125 -0.65625 Z M 2.828125 -0.65625 "/></g></g></g><g fill="#2d66fd" fill-opacity="1"><g transform="translate(93.075386, 33.535375)"><g><path d="M 3.890625 -1.46875 C 3.890625 -1.238281 3.84375 -1.03125 3.75 -0.84375 C 3.664062 -0.65625 3.535156 -0.492188 3.359375 -0.359375 C 3.023438 -0.0664062 2.59375 0.078125 2.0625 0.078125 C 1.65625 0.078125 1.285156 -0.00390625 0.953125 -0.171875 C 0.617188 -0.347656 0.375 -0.578125 0.21875 -0.859375 L 0.859375 -1.203125 C 0.960938 -1.023438 1.117188 -0.882812 1.328125 -0.78125 C 1.546875 -0.6875 1.789062 -0.640625 2.0625 -0.640625 C 2.769531 -0.640625 3.125 -0.914062 3.125 -1.46875 C 3.125 -1.5625 3.101562 -1.644531 3.0625 -1.71875 C 3.03125 -1.800781 2.976562 -1.875 2.90625 -1.9375 C 2.726562 -2.082031 2.410156 -2.210938 1.953125 -2.328125 C 1.679688 -2.398438 1.453125 -2.476562 1.265625 -2.5625 C 1.078125 -2.644531 0.914062 -2.738281 0.78125 -2.84375 C 0.476562 -3.09375 0.328125 -3.425781 0.328125 -3.84375 C 0.328125 -4.050781 0.363281 -4.242188 0.4375 -4.421875 C 0.519531 -4.597656 0.632812 -4.753906 0.78125 -4.890625 C 0.9375 -5.015625 1.113281 -5.109375 1.3125 -5.171875 C 1.519531 -5.242188 1.742188 -5.28125 1.984375 -5.28125 C 2.347656 -5.28125 2.675781 -5.210938 2.96875 -5.078125 C 3.269531 -4.941406 3.503906 -4.75 3.671875 -4.5 L 3.0625 -4.125 C 2.925781 -4.300781 2.765625 -4.421875 2.578125 -4.484375 C 2.390625 -4.554688 2.191406 -4.59375 1.984375 -4.59375 C 1.835938 -4.59375 1.703125 -4.566406 1.578125 -4.515625 C 1.460938 -4.472656 1.363281 -4.414062 1.28125 -4.34375 C 1.207031 -4.289062 1.15625 -4.21875 1.125 -4.125 C 1.09375 -4.039062 1.078125 -3.953125 1.078125 -3.859375 C 1.078125 -3.796875 1.085938 -3.726562 1.109375 -3.65625 C 1.128906 -3.59375 1.175781 -3.523438 1.25 -3.453125 C 1.320312 -3.378906 1.425781 -3.3125 1.5625 -3.25 C 1.707031 -3.1875 1.90625 -3.125 2.15625 -3.0625 C 2.445312 -2.976562 2.691406 -2.894531 2.890625 -2.8125 C 3.085938 -2.726562 3.257812 -2.628906 3.40625 -2.515625 C 3.726562 -2.242188 3.890625 -1.894531 3.890625 -1.46875 Z M 3.890625 -1.46875 "/></g></g></g></svg>