<svg xmlns="http://www.w3.org/2000/svg" xmlns:xlink="http://www.w3.org/1999/xlink" width="150" zoomAndPan="magnify" viewBox="0 0 112.5 37.5" height="50" preserveAspectRatio="xMidYMid meet" version="1.0"><defs><filter x="0%" y="0%" width="100%" height="100%" id="6d92c4d259"><feColorMatrix values="0 0 0 0 1 0 0 0 0 1 0 0 0 0 1 0 0 0 1 0" color-interpolation-filters="sRGB"/></filter><g/><mask id="74811c8540"><g filter="url(#6d92c4d259)"><rect x="-11.25" width="135" fill="#000000" y="-3.75" height="45" fill-opacity="0.3176"/></g></mask><clipPath id="97673caf31"><path d="M 0.0976562 0.996094 L 36.484375 0.996094 L 36.484375 35.9375 L 0.0976562 35.9375 Z M 0.0976562 0.996094 " clip-rule="nonzero"/></clipPath><clipPath id="fe7614105b"><rect x="0" width="37" y="0" height="37"/></clipPath></defs><g fill="#2d67fe" fill-opacity="1"><g transform="translate(0.493421, 19.659773)"><g><path d="M 5.875 -12.46875 C 6.769531 -12.46875 7.5625 -12.300781 8.25 -11.96875 C 8.945312 -11.644531 9.523438 -11.203125 9.984375 -10.640625 C 10.453125 -10.078125 10.804688 -9.410156 11.046875 -8.640625 C 11.285156 -7.878906 11.40625 -7.070312 11.40625 -6.21875 C 11.40625 -5.351562 11.28125 -4.539062 11.03125 -3.78125 C 10.78125 -3.03125 10.429688 -2.375 9.984375 -1.8125 C 9.535156 -1.25 9.003906 -0.804688 8.390625 -0.484375 C 7.785156 -0.160156 7.128906 0 6.421875 0 L 0.84375 0 L 0.84375 -12.46875 Z M 5.890625 -2.40625 C 6.390625 -2.40625 6.816406 -2.507812 7.171875 -2.71875 C 7.535156 -2.925781 7.832031 -3.203125 8.0625 -3.546875 C 8.300781 -3.898438 8.472656 -4.304688 8.578125 -4.765625 C 8.691406 -5.222656 8.75 -5.703125 8.75 -6.203125 C 8.75 -6.710938 8.695312 -7.195312 8.59375 -7.65625 C 8.488281 -8.113281 8.316406 -8.519531 8.078125 -8.875 C 7.847656 -9.226562 7.550781 -9.507812 7.1875 -9.71875 C 6.820312 -9.925781 6.390625 -10.03125 5.890625 -10.03125 L 3.515625 -10.03125 L 3.515625 -2.40625 Z M 5.890625 -2.40625 "/></g></g></g><g fill="#2d67fe" fill-opacity="1"><g transform="translate(13.207151, 19.659773)"><g><path d="M 3.421875 0 L 1 0 L 1 -8.71875 L 3.421875 -8.71875 Z M 2.21875 -9.921875 C 1.84375 -9.921875 1.523438 -10.046875 1.265625 -10.296875 C 1.003906 -10.554688 0.875 -10.875 0.875 -11.25 C 0.875 -11.625 1.003906 -11.941406 1.265625 -12.203125 C 1.523438 -12.472656 1.84375 -12.609375 2.21875 -12.609375 C 2.59375 -12.609375 2.90625 -12.472656 3.15625 -12.203125 C 3.414062 -11.941406 3.546875 -11.625 3.546875 -11.25 C 3.546875 -10.875 3.414062 -10.554688 3.15625 -10.296875 C 2.90625 -10.046875 2.59375 -9.921875 2.21875 -9.921875 Z M 2.21875 -9.921875 "/></g></g></g><g fill="#2d67fe" fill-opacity="1"><g transform="translate(18.359559, 19.659773)"><g><path d="M 9.921875 -8.71875 L 9.921875 0 L 7.828125 0 L 7.578125 -0.9375 C 7.234375 -0.476562 6.820312 -0.171875 6.34375 -0.015625 C 5.875 0.140625 5.382812 0.21875 4.875 0.21875 C 4.25 0.21875 3.675781 0.0976562 3.15625 -0.140625 C 2.632812 -0.390625 2.179688 -0.722656 1.796875 -1.140625 C 1.410156 -1.554688 1.109375 -2.039062 0.890625 -2.59375 C 0.671875 -3.144531 0.5625 -3.738281 0.5625 -4.375 C 0.5625 -5.007812 0.671875 -5.601562 0.890625 -6.15625 C 1.109375 -6.71875 1.410156 -7.207031 1.796875 -7.625 C 2.179688 -8.039062 2.632812 -8.367188 3.15625 -8.609375 C 3.675781 -8.847656 4.25 -8.96875 4.875 -8.96875 C 5.4375 -8.96875 5.953125 -8.878906 6.421875 -8.703125 C 6.890625 -8.523438 7.273438 -8.242188 7.578125 -7.859375 L 7.828125 -8.71875 Z M 7.484375 -4.34375 C 7.484375 -4.800781 7.421875 -5.179688 7.296875 -5.484375 C 7.179688 -5.796875 7.019531 -6.050781 6.8125 -6.25 C 6.601562 -6.445312 6.359375 -6.585938 6.078125 -6.671875 C 5.804688 -6.753906 5.515625 -6.796875 5.203125 -6.796875 C 4.890625 -6.796875 4.59375 -6.734375 4.3125 -6.609375 C 4.039062 -6.484375 3.796875 -6.3125 3.578125 -6.09375 C 3.367188 -5.875 3.207031 -5.613281 3.09375 -5.3125 C 2.976562 -5.019531 2.921875 -4.707031 2.921875 -4.375 C 2.921875 -4.039062 2.976562 -3.722656 3.09375 -3.421875 C 3.207031 -3.128906 3.367188 -2.875 3.578125 -2.65625 C 3.796875 -2.445312 4.039062 -2.273438 4.3125 -2.140625 C 4.59375 -2.015625 4.890625 -1.953125 5.203125 -1.953125 C 5.835938 -1.953125 6.375 -2.144531 6.8125 -2.53125 C 7.25 -2.925781 7.472656 -3.53125 7.484375 -4.34375 Z M 7.484375 -4.34375 "/></g></g></g><g fill="#2d67fe" fill-opacity="1"><g transform="translate(29.754456, 19.659773)"><g><path d="M 7.625 -8.71875 L 9.703125 -8.71875 L 9.703125 -2.953125 C 9.703125 -2.285156 9.691406 -1.691406 9.671875 -1.171875 C 9.660156 -0.648438 9.617188 -0.179688 9.546875 0.234375 C 9.472656 0.648438 9.359375 1.019531 9.203125 1.34375 C 9.046875 1.675781 8.828125 1.984375 8.546875 2.265625 C 8.023438 2.773438 7.445312 3.125 6.8125 3.3125 C 6.175781 3.5 5.503906 3.59375 4.796875 3.59375 C 4.203125 3.59375 3.640625 3.519531 3.109375 3.375 C 2.585938 3.238281 2.113281 3.046875 1.6875 2.796875 L 1.6875 0.53125 C 1.789062 0.695312 1.9375 0.84375 2.125 0.96875 C 2.320312 1.09375 2.546875 1.203125 2.796875 1.296875 C 3.054688 1.390625 3.328125 1.460938 3.609375 1.515625 C 3.898438 1.566406 4.191406 1.59375 4.484375 1.59375 C 4.867188 1.59375 5.226562 1.539062 5.5625 1.4375 C 5.90625 1.34375 6.203125 1.1875 6.453125 0.96875 C 6.710938 0.75 6.914062 0.46875 7.0625 0.125 C 7.207031 -0.207031 7.28125 -0.613281 7.28125 -1.09375 L 7.28125 -1.265625 C 6.9375 -0.960938 6.539062 -0.71875 6.09375 -0.53125 C 5.65625 -0.351562 5.171875 -0.265625 4.640625 -0.265625 C 4.054688 -0.265625 3.515625 -0.378906 3.015625 -0.609375 C 2.515625 -0.835938 2.082031 -1.144531 1.71875 -1.53125 C 1.351562 -1.925781 1.066406 -2.390625 0.859375 -2.921875 C 0.660156 -3.460938 0.5625 -4.03125 0.5625 -4.625 C 0.5625 -5.21875 0.660156 -5.78125 0.859375 -6.3125 C 1.066406 -6.84375 1.351562 -7.300781 1.71875 -7.6875 C 2.082031 -8.082031 2.515625 -8.394531 3.015625 -8.625 C 3.515625 -8.851562 4.054688 -8.96875 4.640625 -8.96875 C 5.191406 -8.96875 5.6875 -8.894531 6.125 -8.75 C 6.570312 -8.601562 6.957031 -8.367188 7.28125 -8.046875 Z M 5.140625 -2.421875 C 5.515625 -2.421875 5.832031 -2.488281 6.09375 -2.625 C 6.363281 -2.757812 6.585938 -2.929688 6.765625 -3.140625 C 6.941406 -3.359375 7.070312 -3.59375 7.15625 -3.84375 C 7.238281 -4.101562 7.28125 -4.359375 7.28125 -4.609375 C 7.28125 -4.878906 7.234375 -5.144531 7.140625 -5.40625 C 7.054688 -5.664062 6.925781 -5.898438 6.75 -6.109375 C 6.570312 -6.316406 6.347656 -6.484375 6.078125 -6.609375 C 5.804688 -6.734375 5.492188 -6.796875 5.140625 -6.796875 C 4.828125 -6.796875 4.539062 -6.738281 4.28125 -6.625 C 4.03125 -6.507812 3.804688 -6.351562 3.609375 -6.15625 C 3.421875 -5.957031 3.269531 -5.722656 3.15625 -5.453125 C 3.039062 -5.191406 2.984375 -4.910156 2.984375 -4.609375 C 2.984375 -4.304688 3.039062 -4.019531 3.15625 -3.75 C 3.269531 -3.488281 3.421875 -3.257812 3.609375 -3.0625 C 3.804688 -2.863281 4.03125 -2.707031 4.28125 -2.59375 C 4.539062 -2.476562 4.828125 -2.421875 5.140625 -2.421875 Z M 5.140625 -2.421875 "/></g></g></g><g fill="#2d67fe" fill-opacity="1"><g transform="translate(40.885585, 19.659773)"><g><path d="M 5.328125 -8.71875 C 5.648438 -8.71875 6.007812 -8.671875 6.40625 -8.578125 C 6.8125 -8.484375 7.1875 -8.304688 7.53125 -8.046875 C 7.882812 -7.796875 8.179688 -7.441406 8.421875 -6.984375 C 8.671875 -6.523438 8.796875 -5.929688 8.796875 -5.203125 L 8.796875 0 L 6.34375 0 L 6.34375 -5.109375 C 6.34375 -5.378906 6.296875 -5.609375 6.203125 -5.796875 C 6.117188 -5.984375 6.003906 -6.132812 5.859375 -6.25 C 5.710938 -6.363281 5.546875 -6.445312 5.359375 -6.5 C 5.171875 -6.550781 4.984375 -6.578125 4.796875 -6.578125 C 4.648438 -6.578125 4.484375 -6.550781 4.296875 -6.5 C 4.117188 -6.445312 3.945312 -6.359375 3.78125 -6.234375 C 3.625 -6.117188 3.492188 -5.96875 3.390625 -5.78125 C 3.285156 -5.59375 3.234375 -5.367188 3.234375 -5.109375 L 3.234375 0 L 0.8125 0 L 0.8125 -8.71875 L 2.890625 -8.71875 L 3.234375 -8.046875 C 3.515625 -8.242188 3.832031 -8.40625 4.1875 -8.53125 C 4.539062 -8.65625 4.921875 -8.71875 5.328125 -8.71875 Z M 5.328125 -8.71875 "/></g></g></g><g fill="#2d67fe" fill-opacity="1"><g transform="translate(51.10232, 19.659773)"><g><path d="M 5.09375 -8.96875 C 5.71875 -8.96875 6.304688 -8.847656 6.859375 -8.609375 C 7.410156 -8.367188 7.890625 -8.039062 8.296875 -7.625 C 8.703125 -7.207031 9.023438 -6.71875 9.265625 -6.15625 C 9.503906 -5.601562 9.625 -5.007812 9.625 -4.375 C 9.625 -3.738281 9.503906 -3.144531 9.265625 -2.59375 C 9.023438 -2.039062 8.703125 -1.554688 8.296875 -1.140625 C 7.890625 -0.722656 7.410156 -0.390625 6.859375 -0.140625 C 6.304688 0.0976562 5.71875 0.21875 5.09375 0.21875 C 4.457031 0.21875 3.863281 0.0976562 3.3125 -0.140625 C 2.769531 -0.390625 2.289062 -0.722656 1.875 -1.140625 C 1.46875 -1.554688 1.144531 -2.039062 0.90625 -2.59375 C 0.664062 -3.144531 0.546875 -3.738281 0.546875 -4.375 C 0.546875 -5.007812 0.664062 -5.601562 0.90625 -6.15625 C 1.144531 -6.71875 1.46875 -7.207031 1.875 -7.625 C 2.289062 -8.039062 2.769531 -8.367188 3.3125 -8.609375 C 3.863281 -8.847656 4.457031 -8.96875 5.09375 -8.96875 Z M 5.09375 -1.921875 C 5.382812 -1.921875 5.65625 -1.976562 5.90625 -2.09375 C 6.164062 -2.207031 6.390625 -2.367188 6.578125 -2.578125 C 6.773438 -2.785156 6.925781 -3.03125 7.03125 -3.3125 C 7.144531 -3.601562 7.203125 -3.921875 7.203125 -4.265625 C 7.203125 -4.617188 7.144531 -4.945312 7.03125 -5.25 C 6.925781 -5.5625 6.773438 -5.832031 6.578125 -6.0625 C 6.390625 -6.289062 6.164062 -6.46875 5.90625 -6.59375 C 5.65625 -6.726562 5.382812 -6.796875 5.09375 -6.796875 C 4.800781 -6.796875 4.523438 -6.726562 4.265625 -6.59375 C 4.015625 -6.46875 3.789062 -6.289062 3.59375 -6.0625 C 3.394531 -5.832031 3.238281 -5.5625 3.125 -5.25 C 3.019531 -4.945312 2.96875 -4.617188 2.96875 -4.265625 C 2.96875 -3.921875 3.019531 -3.601562 3.125 -3.3125 C 3.238281 -3.03125 3.394531 -2.785156 3.59375 -2.578125 C 3.789062 -2.367188 4.015625 -2.207031 4.265625 -2.09375 C 4.523438 -1.976562 4.800781 -1.921875 5.09375 -1.921875 Z M 6.53125 -12.484375 L 5.421875 -9.328125 L 3.640625 -9.328125 L 3.875 -12.484375 Z M 6.53125 -12.484375 "/></g></g></g><g fill="#2d67fe" fill-opacity="1"><g transform="translate(61.987267, 19.659773)"><g><path d="M 6.328125 -4.578125 C 6.972656 -4.117188 7.296875 -3.46875 7.296875 -2.625 C 7.296875 -2.238281 7.203125 -1.875 7.015625 -1.53125 C 6.835938 -1.1875 6.585938 -0.882812 6.265625 -0.625 C 5.953125 -0.375 5.582031 -0.175781 5.15625 -0.03125 C 4.738281 0.113281 4.289062 0.1875 3.8125 0.1875 C 3.445312 0.1875 3.09375 0.140625 2.75 0.046875 C 2.40625 -0.046875 2.085938 -0.171875 1.796875 -0.328125 C 1.503906 -0.492188 1.25 -0.691406 1.03125 -0.921875 C 0.8125 -1.148438 0.648438 -1.40625 0.546875 -1.6875 C 0.816406 -1.8125 1.113281 -1.953125 1.4375 -2.109375 C 1.769531 -2.273438 2.054688 -2.421875 2.296875 -2.546875 C 2.410156 -2.367188 2.578125 -2.207031 2.796875 -2.0625 C 3.015625 -1.914062 3.316406 -1.84375 3.703125 -1.84375 C 4.109375 -1.84375 4.40625 -1.9375 4.59375 -2.125 C 4.78125 -2.3125 4.875 -2.488281 4.875 -2.65625 C 4.875 -2.769531 4.804688 -2.875 4.671875 -2.96875 C 4.546875 -3.070312 4.398438 -3.15625 4.234375 -3.21875 C 4.003906 -3.3125 3.8125 -3.359375 3.65625 -3.359375 C 3.5 -3.367188 3.320312 -3.40625 3.125 -3.46875 C 2.5 -3.613281 2.015625 -3.8125 1.671875 -4.0625 C 1.335938 -4.320312 1.09375 -4.578125 0.9375 -4.828125 C 0.789062 -5.085938 0.707031 -5.332031 0.6875 -5.5625 C 0.675781 -5.800781 0.671875 -5.992188 0.671875 -6.140625 C 0.671875 -6.515625 0.75 -6.867188 0.90625 -7.203125 C 1.070312 -7.546875 1.296875 -7.84375 1.578125 -8.09375 C 1.867188 -8.34375 2.207031 -8.546875 2.59375 -8.703125 C 2.976562 -8.859375 3.382812 -8.9375 3.8125 -8.9375 C 4.175781 -8.9375 4.519531 -8.878906 4.84375 -8.765625 C 5.175781 -8.660156 5.476562 -8.515625 5.75 -8.328125 C 6.019531 -8.140625 6.25 -7.914062 6.4375 -7.65625 C 6.632812 -7.40625 6.78125 -7.117188 6.875 -6.796875 L 5 -6.171875 C 4.925781 -6.378906 4.78125 -6.546875 4.5625 -6.671875 C 4.34375 -6.804688 4.113281 -6.875 3.875 -6.875 C 3.625 -6.875 3.421875 -6.789062 3.265625 -6.625 C 3.117188 -6.457031 3.046875 -6.296875 3.046875 -6.140625 C 3.046875 -5.941406 3.117188 -5.785156 3.265625 -5.671875 C 3.410156 -5.554688 3.570312 -5.476562 3.75 -5.4375 C 3.875 -5.40625 4 -5.378906 4.125 -5.359375 C 4.25 -5.347656 4.367188 -5.332031 4.484375 -5.3125 C 4.890625 -5.21875 5.242188 -5.109375 5.546875 -4.984375 C 5.847656 -4.867188 6.109375 -4.734375 6.328125 -4.578125 Z M 6.328125 -4.578125 "/></g></g></g><g fill="#2d67fe" fill-opacity="1"><g transform="translate(70.480728, 19.659773)"><g><path d="M 4.015625 -3.125 C 4.015625 -2.71875 4.140625 -2.398438 4.390625 -2.171875 C 4.640625 -1.953125 4.96875 -1.84375 5.375 -1.84375 C 5.707031 -1.84375 6.035156 -1.910156 6.359375 -2.046875 L 6.359375 0 C 6.066406 0.09375 5.753906 0.171875 5.421875 0.234375 C 5.097656 0.296875 4.773438 0.328125 4.453125 0.328125 C 4.078125 0.328125 3.71875 0.28125 3.375 0.1875 C 3.03125 0.09375 2.722656 -0.0664062 2.453125 -0.296875 C 2.191406 -0.523438 1.976562 -0.828125 1.8125 -1.203125 C 1.65625 -1.585938 1.578125 -2.0625 1.578125 -2.625 L 1.578125 -6.5625 L 0.328125 -6.5625 L 0.328125 -8.1875 L 1.578125 -8.71875 L 1.578125 -10.671875 L 4.015625 -10.671875 L 4.015625 -8.71875 L 6.359375 -8.71875 L 6.359375 -6.5625 L 4.015625 -6.5625 Z M 4.015625 -3.125 "/></g></g></g><g fill="#2d67fe" fill-opacity="1"><g transform="translate(77.919117, 19.659773)"><g><path d="M 3.421875 0 L 1 0 L 1 -8.71875 L 3.421875 -8.71875 Z M 2.21875 -9.921875 C 1.84375 -9.921875 1.523438 -10.046875 1.265625 -10.296875 C 1.003906 -10.554688 0.875 -10.875 0.875 -11.25 C 0.875 -11.625 1.003906 -11.941406 1.265625 -12.203125 C 1.523438 -12.472656 1.84375 -12.609375 2.21875 -12.609375 C 2.59375 -12.609375 2.90625 -12.472656 3.15625 -12.203125 C 3.414062 -11.941406 3.546875 -11.625 3.546875 -11.25 C 3.546875 -10.875 3.414062 -10.554688 3.15625 -10.296875 C 2.90625 -10.046875 2.59375 -9.921875 2.21875 -9.921875 Z M 2.21875 -9.921875 "/></g></g></g><g fill="#2d67fe" fill-opacity="1"><g transform="translate(83.071527, 19.659773)"><g><path d="M 5.078125 -6.796875 C 4.785156 -6.796875 4.507812 -6.726562 4.25 -6.59375 C 4 -6.46875 3.773438 -6.289062 3.578125 -6.0625 C 3.378906 -5.832031 3.222656 -5.5625 3.109375 -5.25 C 3.003906 -4.945312 2.953125 -4.617188 2.953125 -4.265625 C 2.953125 -3.921875 3.003906 -3.601562 3.109375 -3.3125 C 3.222656 -3.03125 3.378906 -2.785156 3.578125 -2.578125 C 3.773438 -2.367188 4 -2.207031 4.25 -2.09375 C 4.507812 -1.976562 4.785156 -1.921875 5.078125 -1.921875 C 5.441406 -1.921875 5.796875 -2.003906 6.140625 -2.171875 C 6.484375 -2.335938 6.78125 -2.578125 7.03125 -2.890625 L 8.53125 -1.40625 C 8.113281 -0.914062 7.609375 -0.519531 7.015625 -0.21875 C 6.421875 0.0703125 5.773438 0.21875 5.078125 0.21875 C 4.441406 0.21875 3.847656 0.0976562 3.296875 -0.140625 C 2.753906 -0.390625 2.273438 -0.722656 1.859375 -1.140625 C 1.453125 -1.554688 1.128906 -2.039062 0.890625 -2.59375 C 0.648438 -3.144531 0.53125 -3.738281 0.53125 -4.375 C 0.53125 -5.007812 0.648438 -5.601562 0.890625 -6.15625 C 1.128906 -6.71875 1.453125 -7.207031 1.859375 -7.625 C 2.273438 -8.039062 2.753906 -8.367188 3.296875 -8.609375 C 3.847656 -8.847656 4.441406 -8.96875 5.078125 -8.96875 C 5.796875 -8.96875 6.457031 -8.8125 7.0625 -8.5 C 7.675781 -8.195312 8.191406 -7.785156 8.609375 -7.265625 L 6.921875 -5.953125 C 6.585938 -6.273438 6.28125 -6.492188 6 -6.609375 C 5.726562 -6.734375 5.421875 -6.796875 5.078125 -6.796875 Z M 5.078125 -6.796875 "/></g></g></g><g fill="#2d67fe" fill-opacity="1"><g transform="translate(92.831068, 19.659773)"><g><path d="M 5.078125 -8.96875 C 5.703125 -8.96875 6.289062 -8.847656 6.84375 -8.609375 C 7.394531 -8.367188 7.875 -8.039062 8.28125 -7.625 C 8.6875 -7.207031 9.007812 -6.71875 9.25 -6.15625 C 9.488281 -5.601562 9.609375 -5.007812 9.609375 -4.375 C 9.609375 -3.738281 9.488281 -3.144531 9.25 -2.59375 C 9.007812 -2.039062 8.6875 -1.554688 8.28125 -1.140625 C 7.875 -0.722656 7.394531 -0.390625 6.84375 -0.140625 C 6.289062 0.0976562 5.703125 0.21875 5.078125 0.21875 C 4.441406 0.21875 3.847656 0.0976562 3.296875 -0.140625 C 2.753906 -0.390625 2.273438 -0.722656 1.859375 -1.140625 C 1.453125 -1.554688 1.128906 -2.039062 0.890625 -2.59375 C 0.648438 -3.144531 0.53125 -3.738281 0.53125 -4.375 C 0.53125 -5.007812 0.648438 -5.601562 0.890625 -6.15625 C 1.128906 -6.71875 1.453125 -7.207031 1.859375 -7.625 C 2.273438 -8.039062 2.753906 -8.367188 3.296875 -8.609375 C 3.847656 -8.847656 4.441406 -8.96875 5.078125 -8.96875 Z M 5.078125 -1.921875 C 5.367188 -1.921875 5.640625 -1.976562 5.890625 -2.09375 C 6.148438 -2.207031 6.375 -2.367188 6.5625 -2.578125 C 6.757812 -2.785156 6.910156 -3.03125 7.015625 -3.3125 C 7.128906 -3.601562 7.1875 -3.921875 7.1875 -4.265625 C 7.1875 -4.617188 7.128906 -4.945312 7.015625 -5.25 C 6.910156 -5.5625 6.757812 -5.832031 6.5625 -6.0625 C 6.375 -6.289062 6.148438 -6.46875 5.890625 -6.59375 C 5.640625 -6.726562 5.367188 -6.796875 5.078125 -6.796875 C 4.785156 -6.796875 4.507812 -6.726562 4.25 -6.59375 C 4 -6.46875 3.773438 -6.289062 3.578125 -6.0625 C 3.378906 -5.832031 3.222656 -5.5625 3.109375 -5.25 C 3.003906 -4.945312 2.953125 -4.617188 2.953125 -4.265625 C 2.953125 -3.921875 3.003906 -3.601562 3.109375 -3.3125 C 3.222656 -3.03125 3.378906 -2.785156 3.578125 -2.578125 C 3.773438 -2.367188 4 -2.207031 4.25 -2.09375 C 4.507812 -1.976562 4.785156 -1.921875 5.078125 -1.921875 Z M 5.078125 -1.921875 "/></g></g></g><g fill="#2d67fe" fill-opacity="1"><g transform="translate(103.628095, 19.659773)"><g><path d="M 6.328125 -4.578125 C 6.972656 -4.117188 7.296875 -3.46875 7.296875 -2.625 C 7.296875 -2.238281 7.203125 -1.875 7.015625 -1.53125 C 6.835938 -1.1875 6.585938 -0.882812 6.265625 -0.625 C 5.953125 -0.375 5.582031 -0.175781 5.15625 -0.03125 C 4.738281 0.113281 4.289062 0.1875 3.8125 0.1875 C 3.445312 0.1875 3.09375 0.140625 2.75 0.046875 C 2.40625 -0.046875 2.085938 -0.171875 1.796875 -0.328125 C 1.503906 -0.492188 1.25 -0.691406 1.03125 -0.921875 C 0.8125 -1.148438 0.648438 -1.40625 0.546875 -1.6875 C 0.816406 -1.8125 1.113281 -1.953125 1.4375 -2.109375 C 1.769531 -2.273438 2.054688 -2.421875 2.296875 -2.546875 C 2.410156 -2.367188 2.578125 -2.207031 2.796875 -2.0625 C 3.015625 -1.914062 3.316406 -1.84375 3.703125 -1.84375 C 4.109375 -1.84375 4.40625 -1.9375 4.59375 -2.125 C 4.78125 -2.3125 4.875 -2.488281 4.875 -2.65625 C 4.875 -2.769531 4.804688 -2.875 4.671875 -2.96875 C 4.546875 -3.070312 4.398438 -3.15625 4.234375 -3.21875 C 4.003906 -3.3125 3.8125 -3.359375 3.65625 -3.359375 C 3.5 -3.367188 3.320312 -3.40625 3.125 -3.46875 C 2.5 -3.613281 2.015625 -3.8125 1.671875 -4.0625 C 1.335938 -4.320312 1.09375 -4.578125 0.9375 -4.828125 C 0.789062 -5.085938 0.707031 -5.332031 0.6875 -5.5625 C 0.675781 -5.800781 0.671875 -5.992188 0.671875 -6.140625 C 0.671875 -6.515625 0.75 -6.867188 0.90625 -7.203125 C 1.070312 -7.546875 1.296875 -7.84375 1.578125 -8.09375 C 1.867188 -8.34375 2.207031 -8.546875 2.59375 -8.703125 C 2.976562 -8.859375 3.382812 -8.9375 3.8125 -8.9375 C 4.175781 -8.9375 4.519531 -8.878906 4.84375 -8.765625 C 5.175781 -8.660156 5.476562 -8.515625 5.75 -8.328125 C 6.019531 -8.140625 6.25 -7.914062 6.4375 -7.65625 C 6.632812 -7.40625 6.78125 -7.117188 6.875 -6.796875 L 5 -6.171875 C 4.925781 -6.378906 4.78125 -6.546875 4.5625 -6.671875 C 4.34375 -6.804688 4.113281 -6.875 3.875 -6.875 C 3.625 -6.875 3.421875 -6.789062 3.265625 -6.625 C 3.117188 -6.457031 3.046875 -6.296875 3.046875 -6.140625 C 3.046875 -5.941406 3.117188 -5.785156 3.265625 -5.671875 C 3.410156 -5.554688 3.570312 -5.476562 3.75 -5.4375 C 3.875 -5.40625 4 -5.378906 4.125 -5.359375 C 4.25 -5.347656 4.367188 -5.332031 4.484375 -5.3125 C 4.890625 -5.21875 5.242188 -5.109375 5.546875 -4.984375 C 5.847656 -4.867188 6.109375 -4.734375 6.328125 -4.578125 Z M 6.328125 -4.578125 "/></g></g></g><g fill="#2d66fd" fill-opacity="1"><g transform="translate(39.058181, 29.539404)"><g><path d="M 1.09375 -3.421875 L 0.03125 -3.421875 L 0.03125 -3.9375 L 2.75 -3.9375 L 2.75 -3.421875 L 1.671875 -3.421875 L 1.671875 0 L 1.09375 0 Z M 1.09375 -3.421875 "/></g></g></g><g fill="#2d66fd" fill-opacity="1"><g transform="translate(43.985146, 29.539404)"><g><path d="M 3.5625 0 L 2.84375 0 L 1.59375 -1.703125 L 0.90625 -1.703125 L 0.90625 0 L 0.328125 0 L 0.328125 -3.9375 L 1.921875 -3.9375 C 2.078125 -3.9375 2.222656 -3.90625 2.359375 -3.84375 C 2.503906 -3.789062 2.625 -3.710938 2.71875 -3.609375 C 2.820312 -3.515625 2.90625 -3.398438 2.96875 -3.265625 C 3.03125 -3.128906 3.0625 -2.984375 3.0625 -2.828125 C 3.0625 -2.691406 3.039062 -2.566406 3 -2.453125 C 2.957031 -2.335938 2.898438 -2.234375 2.828125 -2.140625 C 2.753906 -2.054688 2.664062 -1.976562 2.5625 -1.90625 C 2.46875 -1.832031 2.359375 -1.78125 2.234375 -1.75 Z M 1.921875 -2.25 C 2.003906 -2.25 2.078125 -2.265625 2.140625 -2.296875 C 2.210938 -2.328125 2.273438 -2.367188 2.328125 -2.421875 C 2.378906 -2.472656 2.414062 -2.535156 2.4375 -2.609375 C 2.46875 -2.679688 2.484375 -2.757812 2.484375 -2.84375 C 2.484375 -2.914062 2.46875 -2.988281 2.4375 -3.0625 C 2.414062 -3.132812 2.378906 -3.195312 2.328125 -3.25 C 2.273438 -3.300781 2.210938 -3.34375 2.140625 -3.375 C 2.078125 -3.40625 2.003906 -3.421875 1.921875 -3.421875 L 0.90625 -3.421875 L 0.90625 -2.234375 Z M 1.921875 -2.25 "/></g></g></g><g fill="#2d66fd" fill-opacity="1"><g transform="translate(49.657153, 29.539404)"><g><path d="M 1.375 -3.46875 L 1.375 -0.484375 L 1.671875 -0.484375 L 1.671875 0 L 0.5 0 L 0.5 -0.484375 L 0.796875 -0.484375 L 0.796875 -3.46875 L 0.5 -3.46875 L 0.5 -3.9375 L 1.671875 -3.9375 L 1.671875 -3.46875 Z M 1.375 -3.46875 "/></g></g></g><g fill="#2d66fd" fill-opacity="1"><g transform="translate(53.866874, 29.539404)"><g><path d="M 0.703125 0 L 0.0625 0 L 1.703125 -3.9375 L 2.34375 -3.9375 L 3.984375 0 L 3.359375 0 L 2.84375 -1.234375 L 1.203125 -1.234375 Z M 1.421875 -1.765625 L 2.609375 -1.765625 L 2.03125 -3.1875 Z M 1.421875 -1.765625 "/></g></g></g><g fill="#2d66fd" fill-opacity="1"><g transform="translate(59.961437, 29.539404)"><g><path d="M 1.375 -3.46875 L 1.375 -0.484375 L 1.671875 -0.484375 L 1.671875 0 L 0.5 0 L 0.5 -0.484375 L 0.796875 -0.484375 L 0.796875 -3.46875 L 0.5 -3.46875 L 0.5 -3.9375 L 1.671875 -3.9375 L 1.671875 -3.46875 Z M 1.375 -3.46875 "/></g></g></g><g fill="#2d66fd" fill-opacity="1"><g transform="translate(64.171157, 29.539404)"><g><path d="M 2.515625 -2.109375 L 3.59375 -2.109375 L 3.59375 -0.65625 C 3.414062 -0.445312 3.195312 -0.273438 2.9375 -0.140625 C 2.6875 -0.00390625 2.414062 0.0625 2.125 0.0625 C 1.851562 0.0625 1.597656 0.0078125 1.359375 -0.09375 C 1.117188 -0.207031 0.910156 -0.351562 0.734375 -0.53125 C 0.566406 -0.71875 0.429688 -0.929688 0.328125 -1.171875 C 0.222656 -1.421875 0.171875 -1.6875 0.171875 -1.96875 C 0.171875 -2.238281 0.222656 -2.5 0.328125 -2.75 C 0.429688 -3 0.566406 -3.210938 0.734375 -3.390625 C 0.910156 -3.578125 1.117188 -3.722656 1.359375 -3.828125 C 1.597656 -3.941406 1.851562 -4 2.125 -4 C 2.363281 -4 2.59375 -3.945312 2.8125 -3.84375 C 3.03125 -3.75 3.226562 -3.625 3.40625 -3.46875 L 3.0625 -3.03125 C 2.9375 -3.15625 2.789062 -3.257812 2.625 -3.34375 C 2.46875 -3.425781 2.300781 -3.46875 2.125 -3.46875 C 1.925781 -3.46875 1.742188 -3.425781 1.578125 -3.34375 C 1.421875 -3.257812 1.28125 -3.148438 1.15625 -3.015625 C 1.03125 -2.878906 0.929688 -2.722656 0.859375 -2.546875 C 0.796875 -2.367188 0.765625 -2.175781 0.765625 -1.96875 C 0.765625 -1.757812 0.796875 -1.566406 0.859375 -1.390625 C 0.929688 -1.210938 1.03125 -1.054688 1.15625 -0.921875 C 1.28125 -0.785156 1.421875 -0.675781 1.578125 -0.59375 C 1.742188 -0.519531 1.925781 -0.484375 2.125 -0.484375 C 2.289062 -0.484375 2.453125 -0.515625 2.609375 -0.578125 C 2.765625 -0.648438 2.898438 -0.742188 3.015625 -0.859375 L 3.015625 -1.5625 L 2.515625 -1.5625 Z M 2.515625 -2.109375 "/></g></g></g><g fill="#2d66fd" fill-opacity="1"><g transform="translate(70.143402, 29.539404)"><g><path d="M 2.71875 -3.9375 L 2.71875 -3.421875 L 0.890625 -3.421875 L 0.890625 -2.34375 L 2.515625 -2.34375 L 2.515625 -1.8125 L 0.890625 -1.8125 L 0.890625 -0.546875 L 2.71875 -0.546875 L 2.71875 0 L 0.3125 0 L 0.3125 -3.9375 Z M 2.71875 -3.9375 "/></g></g></g><g mask="url(#74811c8540)"><g transform="matrix(1, 0, 0, 1, 39, -0.000000000000001443)"><g clip-path="url(#fe7614105b)"><g clip-path="url(#97673caf31)"><path fill="#1e4edd" d="M 20.625 20.523438 C 21.101562 20.792969 21.074219 21.078125 20.5625 21.242188 C 19.921875 21.449219 19.25 21.574219 18.550781 21.746094 C 18.550781 20.96875 18.550781 20.28125 18.550781 19.507812 C 19.277344 19.859375 19.972656 20.15625 20.625 20.523438 Z M 20.207031 23.605469 C 19.664062 23.789062 19.121094 23.972656 18.53125 24.175781 C 18.53125 23.667969 18.53125 23.261719 18.53125 22.765625 C 19.136719 22.996094 19.671875 23.195312 20.210938 23.398438 C 20.210938 23.46875 20.207031 23.539062 20.207031 23.605469 Z M 19.835938 25.976562 C 20.101562 26.121094 20.066406 26.347656 19.800781 26.480469 C 19.382812 26.695312 18.953125 26.878906 18.472656 27.097656 C 18.472656 26.476562 18.472656 25.964844 18.472656 25.351562 C 18.964844 25.574219 19.414062 25.746094 19.835938 25.976562 Z M 19.097656 28.890625 C 19.113281 29.101562 18.777344 29.339844 18.597656 29.566406 C 18.554688 29.539062 18.503906 29.507812 18.457031 29.480469 C 18.457031 29.078125 18.457031 28.671875 18.457031 28.269531 C 18.492188 28.246094 18.523438 28.21875 18.558594 28.195312 C 18.75 28.425781 19.078125 28.648438 19.097656 28.890625 Z M 19.246094 31.734375 C 19.234375 32.199219 18.800781 32.378906 18.414062 32.632812 C 18.414062 32.023438 18.414062 31.460938 18.414062 30.816406 C 18.835938 31.097656 19.257812 31.273438 19.246094 31.734375 Z M 17.832031 21.648438 C 17.121094 21.410156 16.449219 21.222656 15.808594 20.964844 C 15.339844 20.777344 15.328125 20.472656 15.78125 20.261719 C 16.433594 19.953125 17.121094 19.722656 17.832031 19.441406 C 17.832031 20.195312 17.832031 20.882812 17.832031 21.648438 Z M 17.792969 24.195312 C 17.21875 23.957031 16.671875 23.730469 16.125 23.503906 C 16.125 23.429688 16.125 23.359375 16.125 23.285156 C 16.664062 23.125 17.203125 22.96875 17.792969 22.796875 C 17.792969 23.285156 17.792969 23.710938 17.792969 24.195312 Z M 17.769531 27.007812 C 17.277344 26.734375 16.839844 26.527344 16.445312 26.265625 C 16.152344 26.074219 16.183594 25.863281 16.523438 25.714844 C 16.914062 25.546875 17.324219 25.433594 17.769531 25.28125 C 17.769531 25.878906 17.769531 26.386719 17.769531 27.007812 Z M 17.707031 29.507812 C 17.667969 29.53125 17.628906 29.558594 17.589844 29.585938 C 17.421875 29.347656 17.128906 29.117188 17.121094 28.878906 C 17.113281 28.667969 17.421875 28.445312 17.59375 28.226562 C 17.632812 28.246094 17.671875 28.265625 17.707031 28.285156 C 17.707031 28.691406 17.707031 29.101562 17.707031 29.507812 Z M 17.707031 32.535156 C 17.304688 32.265625 16.890625 32.035156 16.878906 31.578125 C 16.867188 31.117188 17.300781 30.953125 17.707031 30.746094 C 17.707031 31.359375 17.707031 31.914062 17.707031 32.535156 Z M 35.753906 1.636719 C 35.484375 1.558594 35.195312 1.515625 34.914062 1.511719 C 33.847656 1.496094 32.804688 1.890625 31.742188 1.992188 C 30.527344 2.101562 29.277344 2.019531 28.089844 1.726562 C 27.183594 1.5 26.195312 0.988281 25.242188 0.996094 C 24.453125 1.003906 23.917969 1.519531 23.53125 2.15625 C 23.027344 2.988281 22.496094 3.820312 21.664062 4.363281 C 20.765625 4.945312 19.746094 5.292969 18.726562 5.597656 C 18.734375 5.117188 18.96875 4.792969 19.316406 4.535156 C 20.113281 3.941406 20.265625 2.859375 19.625 2.113281 C 19.015625 1.402344 17.976562 1.339844 17.324219 1.972656 C 16.628906 2.648438 16.691406 3.75 17.464844 4.40625 C 17.867188 4.742188 18.113281 5.140625 18.046875 5.695312 C 18.050781 5.667969 16.472656 5.207031 16.335938 5.152344 C 15.605469 4.851562 14.839844 4.464844 14.273438 3.90625 C 13.683594 3.328125 13.265625 2.605469 12.839844 1.90625 C 12.492188 1.328125 11.964844 1.035156 11.296875 1.027344 C 10.289062 1.015625 9.273438 1.398438 8.308594 1.648438 C 7.070312 1.96875 5.765625 2.082031 4.492188 1.949219 C 3.546875 1.855469 2.582031 1.527344 1.628906 1.539062 C 1.347656 1.542969 1.058594 1.589844 0.789062 1.667969 C 0.261719 1.816406 0.117188 2.304688 0.421875 2.757812 C 0.648438 3.097656 0.972656 3.304688 1.324219 3.480469 C 1.996094 3.820312 2.714844 4.015625 3.476562 4.140625 C 3.378906 4.160156 3.285156 4.179688 3.191406 4.210938 C 2.894531 4.304688 2.585938 4.371094 2.304688 4.503906 C 1.894531 4.695312 1.816406 5.117188 2.148438 5.421875 C 2.347656 5.609375 2.609375 5.761719 2.871094 5.847656 C 3.808594 6.164062 4.765625 6.148438 5.726562 5.964844 C 5.746094 5.964844 5.765625 5.960938 5.800781 5.988281 C 5.710938 6.03125 5.617188 6.066406 5.527344 6.113281 C 5.273438 6.253906 5.003906 6.375 4.773438 6.546875 C 4.484375 6.765625 4.480469 7.097656 4.726562 7.367188 C 5.019531 7.6875 5.421875 7.792969 5.828125 7.804688 C 6.355469 7.816406 6.878906 7.773438 7.375 7.753906 C 7.363281 7.757812 7.304688 7.796875 7.253906 7.839844 C 7.0625 7.996094 6.851562 8.136719 6.6875 8.320312 C 6.453125 8.582031 6.507812 8.902344 6.78125 9.121094 C 7.042969 9.324219 7.351562 9.378906 7.667969 9.378906 C 8.484375 9.382812 9.246094 9.167969 9.972656 8.8125 C 10.214844 8.691406 10.445312 8.550781 10.6875 8.429688 C 10.761719 8.390625 10.847656 8.371094 10.929688 8.34375 C 10.9375 8.363281 10.945312 8.378906 10.957031 8.398438 C 10.753906 8.609375 10.542969 8.820312 10.34375 9.039062 C 10.089844 9.316406 9.835938 9.59375 9.605469 9.890625 C 9.441406 10.097656 9.3125 10.34375 9.453125 10.617188 C 9.597656 10.898438 9.875 11.015625 10.167969 10.996094 C 10.496094 10.972656 10.832031 10.914062 11.144531 10.808594 C 11.875 10.558594 12.46875 10.097656 13 9.546875 C 13.042969 9.503906 13.089844 9.457031 13.132812 9.414062 C 13.144531 9.402344 13.160156 9.402344 13.203125 9.378906 C 13.171875 9.449219 13.15625 9.5 13.132812 9.542969 C 12.835938 10.113281 12.53125 10.683594 12.242188 11.257812 C 12.167969 11.398438 12.121094 11.5625 12.09375 11.71875 C 12.027344 12.0625 12.207031 12.316406 12.546875 12.398438 C 12.898438 12.484375 13.210938 12.382812 13.511719 12.21875 C 14.152344 11.875 14.652344 11.375 15.050781 10.773438 C 15.082031 10.726562 15.109375 10.679688 15.144531 10.632812 C 15.148438 10.625 15.167969 10.625 15.1875 10.617188 C 15.128906 11.015625 15.011719 11.425781 15.011719 11.824219 C 15.011719 11.929688 15.011719 12.039062 15.046875 12.144531 C 15.121094 12.367188 15.363281 12.515625 15.601562 12.5 C 15.871094 12.488281 16 12.316406 16.148438 12.125 C 16.300781 11.921875 16.515625 11.734375 16.695312 11.550781 C 16.761719 11.484375 16.757812 11.542969 16.78125 11.613281 C 16.800781 11.667969 16.824219 11.726562 16.847656 11.78125 C 16.898438 11.886719 16.964844 11.984375 17.050781 12.058594 C 17.105469 12.105469 17.164062 12.140625 17.222656 12.175781 C 17.292969 12.21875 17.363281 12.261719 17.445312 12.28125 C 17.582031 12.320312 17.730469 12.292969 17.847656 12.21875 C 17.890625 12.191406 17.925781 12.15625 17.960938 12.121094 C 17.949219 13.199219 17.9375 14.28125 17.929688 15.359375 C 17.921875 16.273438 17.929688 17.183594 17.929688 18.226562 C 16.800781 17.671875 15.769531 17.183594 14.765625 16.65625 C 14.433594 16.484375 13.964844 16.25 14.089844 15.828125 C 14.171875 15.542969 14.566406 15.300781 14.871094 15.132812 C 15.324219 14.882812 15.800781 14.667969 16.265625 14.445312 C 16.59375 14.285156 17.5 13.96875 17.203125 13.445312 C 17.054688 13.183594 16.667969 13.117188 16.398438 13.082031 C 15.953125 13.023438 15.496094 13.078125 15.078125 13.230469 C 14.640625 13.394531 14.292969 13.683594 13.921875 13.949219 C 13.625 14.160156 13.335938 14.382812 13.058594 14.617188 C 12.421875 15.160156 12.359375 15.914062 12.933594 16.527344 C 13.261719 16.878906 13.671875 17.175781 14.09375 17.40625 C 14.835938 17.816406 15.617188 18.152344 16.378906 18.523438 C 16.515625 18.589844 16.644531 18.664062 16.808594 18.753906 C 16.0625 19.082031 15.371094 19.359375 14.710938 19.695312 C 14.320312 19.890625 13.875 20.113281 13.875 20.644531 C 13.875 21.179688 14.332031 21.378906 14.726562 21.578125 C 15.1875 21.808594 15.683594 21.988281 16.214844 22.207031 C 16.019531 22.289062 15.867188 22.339844 15.722656 22.410156 C 15.308594 22.601562 14.964844 22.867188 14.96875 23.363281 C 14.972656 23.851562 15.335938 24.082031 15.730469 24.253906 C 16.050781 24.394531 16.378906 24.519531 16.777344 24.679688 C 16.492188 24.820312 16.261719 24.921875 16.046875 25.039062 C 15.132812 25.542969 15.085938 26.089844 15.898438 26.734375 C 16.039062 26.84375 16.1875 26.945312 16.339844 27.035156 C 16.652344 27.222656 16.96875 27.402344 17.292969 27.589844 C 15.734375 28.800781 15.726562 29.042969 17.191406 30.183594 C 17.011719 30.300781 16.835938 30.410156 16.667969 30.53125 C 15.886719 31.097656 15.84375 31.601562 16.519531 32.28125 C 16.84375 32.605469 17.1875 32.914062 17.546875 33.253906 C 17.535156 33.238281 17.167969 33.722656 17.136719 33.777344 C 17.050781 33.921875 16.984375 34.078125 16.980469 34.246094 C 16.972656 34.421875 17.027344 34.59375 17.097656 34.753906 C 17.207031 34.996094 17.359375 35.222656 17.484375 35.460938 C 17.558594 35.601562 17.65625 35.738281 17.785156 35.839844 C 17.839844 35.886719 17.898438 35.925781 17.96875 35.933594 C 18.046875 35.941406 18.121094 35.90625 18.179688 35.859375 C 18.238281 35.8125 18.285156 35.75 18.328125 35.6875 C 18.636719 35.253906 19.109375 34.824219 19.078125 34.242188 C 19.066406 34.066406 19.003906 33.898438 18.921875 33.746094 C 18.898438 33.707031 18.621094 33.296875 18.613281 33.300781 C 19.011719 32.957031 19.410156 32.644531 19.761719 32.289062 C 20.214844 31.828125 20.199219 31.375 19.738281 30.929688 C 19.476562 30.679688 19.164062 30.472656 18.855469 30.230469 C 19.042969 30.128906 19.214844 30.042969 19.378906 29.945312 C 20.226562 29.441406 20.300781 28.90625 19.613281 28.207031 C 19.433594 28.023438 19.238281 27.855469 19.058594 27.6875 C 19.527344 27.425781 19.988281 27.214844 20.402344 26.929688 C 21.152344 26.417969 21.144531 25.925781 20.40625 25.402344 C 20.101562 25.1875 19.765625 25.015625 19.386719 24.785156 C 19.855469 24.640625 20.253906 24.53125 20.640625 24.382812 C 21.511719 24.042969 21.613281 23.289062 20.871094 22.71875 C 20.714844 22.597656 20.542969 22.5 20.414062 22.414062 C 21.003906 22.164062 21.601562 21.964844 22.144531 21.667969 C 22.679688 21.371094 22.714844 20.925781 22.265625 20.503906 C 21.957031 20.210938 21.59375 19.964844 21.21875 19.753906 C 20.671875 19.441406 20.097656 19.179688 19.476562 18.867188 C 20.507812 18.460938 21.480469 18.105469 22.433594 17.695312 C 22.824219 17.527344 23.210938 17.296875 23.519531 17.015625 C 24.152344 16.429688 24.195312 15.625 23.550781 15.070312 C 23.078125 14.664062 22.578125 14.296875 22.0625 13.949219 C 21.4375 13.523438 20.851562 13.152344 20.082031 13.105469 C 19.886719 13.097656 19.6875 13.117188 19.523438 13.21875 C 19.363281 13.324219 19.253906 13.519531 19.300781 13.707031 C 19.324219 13.8125 19.398438 13.898438 19.472656 13.976562 C 19.800781 14.316406 20.21875 14.539062 20.621094 14.769531 C 21.097656 15.042969 21.582031 15.296875 22.046875 15.585938 C 22.648438 15.960938 22.632812 16.34375 22.039062 16.738281 C 21.925781 16.808594 21.808594 16.878906 21.6875 16.929688 C 20.957031 17.226562 20.222656 17.519531 19.488281 17.804688 C 19.195312 17.921875 18.894531 18.019531 18.617188 18.117188 C 18.617188 17.304688 18.609375 16.535156 18.617188 15.769531 C 18.628906 14.566406 18.644531 13.363281 18.660156 12.160156 C 18.671875 12.167969 18.679688 12.179688 18.695312 12.1875 C 18.8125 12.261719 18.964844 12.289062 19.097656 12.253906 C 19.179688 12.230469 19.25 12.1875 19.324219 12.148438 C 19.382812 12.109375 19.441406 12.074219 19.492188 12.03125 C 19.582031 11.953125 19.644531 11.855469 19.695312 11.75 C 19.722656 11.695312 19.742188 11.640625 19.761719 11.582031 C 19.785156 11.515625 19.78125 11.453125 19.847656 11.519531 C 20.027344 11.703125 20.242188 11.894531 20.394531 12.09375 C 20.542969 12.289062 20.671875 12.457031 20.941406 12.472656 C 21.179688 12.484375 21.421875 12.335938 21.496094 12.113281 C 21.53125 12.011719 21.53125 11.902344 21.53125 11.792969 C 21.53125 11.394531 21.414062 10.984375 21.355469 10.589844 C 21.375 10.59375 21.394531 10.59375 21.402344 10.601562 C 21.433594 10.648438 21.460938 10.695312 21.496094 10.742188 C 21.890625 11.347656 22.390625 11.84375 23.03125 12.191406 C 23.332031 12.351562 23.648438 12.457031 23.996094 12.371094 C 24.339844 12.289062 24.515625 12.035156 24.449219 11.691406 C 24.421875 11.53125 24.375 11.371094 24.304688 11.226562 C 24.011719 10.652344 23.707031 10.085938 23.410156 9.511719 C 23.386719 9.46875 23.371094 9.421875 23.34375 9.351562 C 23.382812 9.371094 23.398438 9.375 23.410156 9.382812 C 23.457031 9.425781 23.5 9.472656 23.546875 9.519531 C 24.074219 10.066406 24.671875 10.527344 25.398438 10.777344 C 25.710938 10.886719 26.046875 10.945312 26.375 10.964844 C 26.671875 10.988281 26.945312 10.871094 27.089844 10.585938 C 27.230469 10.3125 27.105469 10.070312 26.9375 9.859375 C 26.707031 9.566406 26.453125 9.285156 26.199219 9.007812 C 26 8.789062 25.792969 8.582031 25.585938 8.367188 C 25.597656 8.347656 25.605469 8.332031 25.617188 8.316406 C 25.695312 8.34375 25.78125 8.359375 25.855469 8.398438 C 26.097656 8.523438 26.328125 8.660156 26.570312 8.78125 C 27.296875 9.140625 28.058594 9.351562 28.875 9.351562 C 29.195312 9.351562 29.503906 9.292969 29.761719 9.089844 C 30.039062 8.871094 30.089844 8.550781 29.855469 8.289062 C 29.691406 8.109375 29.480469 7.96875 29.289062 7.808594 C 29.238281 7.765625 29.179688 7.730469 29.171875 7.726562 C 29.664062 7.742188 30.191406 7.785156 30.714844 7.773438 C 31.125 7.761719 31.523438 7.660156 31.816406 7.335938 C 32.0625 7.066406 32.058594 6.738281 31.769531 6.519531 C 31.542969 6.34375 31.269531 6.226562 31.015625 6.085938 C 30.929688 6.035156 30.835938 6 30.746094 5.960938 C 30.777344 5.933594 30.796875 5.933594 30.816406 5.9375 C 31.777344 6.117188 32.738281 6.132812 33.671875 5.820312 C 33.933594 5.730469 34.195312 5.578125 34.394531 5.394531 C 34.726562 5.085938 34.648438 4.664062 34.238281 4.472656 C 33.960938 4.34375 33.648438 4.273438 33.351562 4.179688 C 33.257812 4.152344 33.164062 4.132812 33.070312 4.109375 C 33.828125 3.984375 34.546875 3.789062 35.222656 3.453125 C 35.574219 3.273438 35.898438 3.066406 36.125 2.726562 C 36.425781 2.273438 36.28125 1.789062 35.753906 1.636719 " fill-opacity="1" fill-rule="nonzero"/></g></g></g></g></svg>