<svg xmlns="http://www.w3.org/2000/svg" xmlns:xlink="http://www.w3.org/1999/xlink" width="500" zoomAndPan="magnify" viewBox="0 0 375 374.999991" height="500" preserveAspectRatio="xMidYMid meet" version="1.0"><defs><g/><clipPath id="82d92f7d9d"><path d="M 78 124 L 297 124 L 297 262.121094 L 78 262.121094 Z M 78 124 " clip-rule="nonzero"/></clipPath><clipPath id="0815c92156"><path d="M 56.25 88 L 106 88 L 106 176 L 56.25 176 Z M 56.25 88 " clip-rule="nonzero"/></clipPath><clipPath id="e701222371"><path d="M 269 88 L 318.75 88 L 318.75 176 L 269 176 Z M 269 88 " clip-rule="nonzero"/></clipPath><clipPath id="7271007358"><path d="M 68 165 L 116 165 L 116 262.121094 L 68 262.121094 Z M 68 165 " clip-rule="nonzero"/></clipPath><clipPath id="fca00e598e"><path d="M 260 165 L 308 165 L 308 262.121094 L 260 262.121094 Z M 260 165 " clip-rule="nonzero"/></clipPath><clipPath id="f520c1b42b"><path d="M 69 115.214844 L 305 115.214844 L 305 311.714844 L 69 311.714844 Z M 69 115.214844 " clip-rule="nonzero"/></clipPath></defs><path fill="#484477" d="M 143.574219 149.972656 C 145.597656 140.140625 148.949219 131.699219 155.152344 124.828125 C 164.4375 114.539062 173.175781 114.167969 173.175781 114.167969 C 174.464844 114.089844 175.574219 115.074219 175.652344 116.363281 C 175.726562 117.652344 174.742188 118.761719 173.453125 118.835938 C 173.453125 118.835938 166.347656 119.40625 158.628906 127.964844 C 153.152344 134.027344 150.136719 141.421875 148.292969 149.972656 Z M 225.296875 149.972656 C 224.089844 143.269531 221.964844 136.726562 218.207031 130.65625 C 212.039062 120.691406 203.902344 118.785156 203.902344 118.785156 C 202.640625 118.507812 201.839844 117.257812 202.117188 116 C 202.394531 114.738281 203.644531 113.941406 204.910156 114.21875 C 204.910156 114.21875 214.816406 116.28125 222.1875 128.195312 C 226.414062 135.023438 228.722656 142.410156 229.988281 149.972656 Z M 225.296875 149.972656 " fill-opacity="1" fill-rule="evenodd"/><path fill="#86aae7" d="M 187.75 119.929688 L 187.757812 119.917969 L 204.542969 117.550781 C 204.542969 117.550781 207.277344 117.707031 208.851562 119.386719 C 210.425781 121.070312 216.003906 127.03125 216.003906 127.03125 L 199.480469 227.882812 L 187.757812 255.410156 L 187.75 255.390625 L 187.75 255.410156 L 176.027344 227.882812 L 159.5 127.03125 C 159.5 127.03125 165.082031 121.070312 166.65625 119.386719 C 168.230469 117.707031 170.964844 117.550781 170.964844 117.550781 L 187.75 119.917969 Z M 187.75 119.929688 " fill-opacity="1" fill-rule="evenodd"/><path fill="#484477" d="M 164.035156 145.691406 L 169.515625 154.875 C 169.570312 154.96875 169.664062 155.027344 169.769531 155.035156 C 169.875 155.046875 169.980469 155.007812 170.050781 154.929688 C 170.050781 154.929688 175.480469 148.9375 178.109375 146.144531 C 179.554688 144.609375 180.695312 143.464844 181.636719 142.867188 C 182.433594 142.359375 183.0625 142.261719 183.613281 142.777344 C 183.75 142.902344 183.960938 142.898438 184.085938 142.761719 C 184.210938 142.628906 184.207031 142.417969 184.070312 142.289062 C 183.433594 141.691406 182.726562 141.609375 181.878906 141.980469 C 180.792969 142.453125 179.429688 143.765625 177.621094 145.6875 C 175.363281 148.085938 171.039062 152.847656 169.859375 154.144531 C 169.859375 154.144531 164.609375 145.347656 164.609375 145.347656 C 164.515625 145.191406 164.308594 145.140625 164.152344 145.234375 C 163.992188 145.328125 163.941406 145.53125 164.035156 145.691406 Z M 164.035156 145.691406 " fill-opacity="1" fill-rule="evenodd"/><path fill="#484477" d="M 211.472656 145.691406 L 205.988281 154.875 C 205.9375 154.96875 205.84375 155.027344 205.738281 155.035156 C 205.628906 155.046875 205.527344 155.007812 205.457031 154.929688 C 205.457031 154.929688 200.023438 148.9375 197.398438 146.144531 C 195.953125 144.609375 194.8125 143.464844 193.867188 142.867188 C 193.070312 142.359375 192.441406 142.261719 191.894531 142.777344 C 191.757812 142.902344 191.546875 142.898438 191.421875 142.761719 C 191.292969 142.628906 191.300781 142.417969 191.433594 142.289062 C 192.070312 141.691406 192.78125 141.609375 193.628906 141.980469 C 194.714844 142.453125 196.078125 143.765625 197.886719 145.6875 C 200.144531 148.085938 204.46875 152.847656 205.648438 154.144531 C 205.648438 154.144531 210.898438 145.347656 210.898438 145.347656 C 210.992188 145.191406 211.195312 145.140625 211.355469 145.234375 C 211.511719 145.328125 211.566406 145.53125 211.472656 145.691406 Z M 211.472656 145.691406 " fill-opacity="1" fill-rule="evenodd"/><g clip-path="url(#82d92f7d9d)"><path fill="#e7e8f8" d="M 78.777344 262.089844 C 78.777344 262.089844 81.402344 212.417969 84.253906 195.628906 C 86.277344 183.707031 88.28125 164.746094 93.433594 155.613281 C 96.03125 151.003906 99.933594 148.109375 103.929688 146.066406 C 117.726562 139.011719 161.40625 124.992188 161.40625 124.992188 C 161.40625 124.992188 170.132812 183.609375 187.75 242.523438 L 188.164062 241.140625 C 205.503906 182.699219 214.097656 124.992188 214.097656 124.992188 C 214.097656 124.992188 257.777344 139.011719 271.570312 146.066406 C 275.566406 148.109375 279.472656 151.003906 282.070312 155.613281 C 287.21875 164.746094 289.222656 183.707031 291.25 195.628906 C 294.101562 212.417969 296.726562 262.089844 296.726562 262.089844 L 187.75 262.082031 Z M 78.777344 262.089844 " fill-opacity="1" fill-rule="evenodd"/></g><path fill="#484477" d="M 187.417969 149.449219 L 187.417969 232.113281 C 187.417969 232.296875 187.566406 232.445312 187.75 232.445312 C 187.933594 232.445312 188.085938 232.296875 188.085938 232.113281 L 188.085938 149.449219 C 188.085938 149.265625 187.933594 149.113281 187.75 149.113281 C 187.566406 149.113281 187.417969 149.265625 187.417969 149.449219 Z M 187.417969 149.449219 " fill-opacity="1" fill-rule="evenodd"/><path fill="#484477" d="M 195.292969 163.238281 C 195.292969 163.484375 195.246094 163.722656 195.152344 163.949219 C 195.058594 164.175781 194.921875 164.378906 194.75 164.550781 C 194.574219 164.726562 194.375 164.859375 194.144531 164.953125 C 193.917969 165.046875 193.679688 165.09375 193.433594 165.09375 C 193.1875 165.09375 192.953125 165.046875 192.722656 164.953125 C 192.496094 164.859375 192.296875 164.726562 192.121094 164.550781 C 191.945312 164.378906 191.8125 164.175781 191.71875 163.949219 C 191.625 163.722656 191.578125 163.484375 191.578125 163.238281 C 191.578125 162.992188 191.625 162.757812 191.71875 162.527344 C 191.8125 162.300781 191.945312 162.101562 192.121094 161.925781 C 192.296875 161.753906 192.496094 161.617188 192.722656 161.523438 C 192.953125 161.429688 193.1875 161.382812 193.433594 161.382812 C 193.679688 161.382812 193.917969 161.429688 194.144531 161.523438 C 194.375 161.617188 194.574219 161.753906 194.75 161.925781 C 194.921875 162.101562 195.058594 162.300781 195.152344 162.527344 C 195.246094 162.757812 195.292969 162.992188 195.292969 163.238281 Z M 195.292969 163.238281 " fill-opacity="1" fill-rule="nonzero"/><path fill="#484477" d="M 195.292969 186.480469 C 195.292969 186.726562 195.246094 186.964844 195.152344 187.191406 C 195.058594 187.417969 194.921875 187.621094 194.75 187.792969 C 194.574219 187.96875 194.375 188.101562 194.144531 188.195312 C 193.917969 188.289062 193.679688 188.335938 193.433594 188.335938 C 193.1875 188.335938 192.953125 188.289062 192.722656 188.195312 C 192.496094 188.101562 192.296875 187.96875 192.121094 187.792969 C 191.945312 187.621094 191.8125 187.417969 191.71875 187.191406 C 191.625 186.964844 191.578125 186.726562 191.578125 186.480469 C 191.578125 186.234375 191.625 186 191.71875 185.769531 C 191.8125 185.542969 191.945312 185.34375 192.121094 185.167969 C 192.296875 184.996094 192.496094 184.859375 192.722656 184.765625 C 192.953125 184.671875 193.1875 184.625 193.433594 184.625 C 193.679688 184.625 193.917969 184.671875 194.144531 184.765625 C 194.375 184.859375 194.574219 184.996094 194.75 185.167969 C 194.921875 185.34375 195.058594 185.542969 195.152344 185.769531 C 195.246094 186 195.292969 186.234375 195.292969 186.480469 Z M 195.292969 186.480469 " fill-opacity="1" fill-rule="nonzero"/><path fill="#484477" d="M 195.292969 209.769531 C 195.292969 210.015625 195.246094 210.25 195.152344 210.476562 C 195.058594 210.707031 194.921875 210.90625 194.75 211.082031 C 194.574219 211.253906 194.375 211.386719 194.144531 211.484375 C 193.917969 211.578125 193.679688 211.625 193.433594 211.625 C 193.1875 211.625 192.953125 211.578125 192.722656 211.484375 C 192.496094 211.386719 192.296875 211.253906 192.121094 211.082031 C 191.945312 210.90625 191.8125 210.707031 191.71875 210.476562 C 191.625 210.25 191.578125 210.015625 191.578125 209.769531 C 191.578125 209.523438 191.625 209.285156 191.71875 209.058594 C 191.8125 208.828125 191.945312 208.628906 192.121094 208.457031 C 192.296875 208.28125 192.496094 208.148438 192.722656 208.050781 C 192.953125 207.957031 193.1875 207.910156 193.433594 207.910156 C 193.679688 207.910156 193.917969 207.957031 194.144531 208.050781 C 194.375 208.148438 194.574219 208.28125 194.75 208.457031 C 194.921875 208.628906 195.058594 208.828125 195.152344 209.058594 C 195.246094 209.285156 195.292969 209.523438 195.292969 209.769531 Z M 195.292969 209.769531 " fill-opacity="1" fill-rule="nonzero"/><path fill="#484477" d="M 226.511719 65.589844 C 226.511719 65.589844 231.867188 49.875 230.269531 36.738281 C 228.851562 25.101562 221.414062 26.671875 221.414062 26.671875 C 221.414062 26.671875 218.96875 18.769531 210.535156 16.9375 C 202.105469 15.105469 198.765625 16.554688 187.117188 14 C 176.179688 11.601562 168.214844 12.714844 163.746094 15.132812 C 163.582031 15.230469 163.480469 15.410156 163.484375 15.601562 C 163.492188 15.796875 163.601562 15.972656 163.773438 16.0625 C 164.730469 16.550781 166.382812 17.339844 168.101562 17.917969 C 168.101562 17.917969 162.035156 18.339844 157.179688 22.515625 C 152.515625 26.523438 149.761719 30.710938 146.015625 33.546875 C 145.894531 33.636719 145.816406 33.777344 145.796875 33.925781 C 145.78125 34.078125 145.828125 34.230469 145.925781 34.34375 C 146.515625 34.832031 147.761719 35.566406 150.035156 35.402344 C 150.035156 35.402344 146.695312 38.882812 145.867188 43.390625 C 145.839844 43.558594 145.878906 43.734375 145.980469 43.871094 C 146.082031 44.011719 146.238281 44.101562 146.40625 44.125 C 147.019531 44.183594 148.007812 44.203125 149.058594 43.902344 C 149.058594 43.902344 146.925781 51.734375 151.542969 64.660156 C 156.15625 77.585938 226.511719 65.589844 226.511719 65.589844 Z M 226.511719 65.589844 " fill-opacity="1" fill-rule="evenodd"/><path fill="#f2b8a6" d="M 157.429688 55.386719 C 157.445312 55.101562 157.628906 52.746094 159.722656 49.9375 C 161.957031 46.9375 164.71875 44.535156 164.71875 44.535156 C 164.71875 44.535156 174.296875 43.410156 183.824219 39.199219 C 183.824219 39.199219 182.867188 41.113281 179.296875 43.449219 C 179.121094 43.570312 179.035156 43.78125 179.070312 43.988281 C 179.105469 44.195312 179.261719 44.363281 179.46875 44.417969 C 181.476562 44.765625 185.738281 45.054688 191.023438 42.789062 C 198.4375 39.617188 204.625 36.035156 207.691406 38.117188 C 211.488281 40.691406 218.835938 53.738281 218.964844 58.960938 L 218.964844 59.023438 L 219.007812 65.105469 C 219.007812 65.105469 221.496094 62.503906 224.382812 63.242188 C 227.269531 63.988281 227.585938 66.621094 226.800781 69.660156 C 226.015625 72.699219 224.992188 75.308594 224.195312 78.6875 C 223.398438 82.066406 221.144531 84.742188 217.585938 82.832031 C 217.585938 82.832031 216.496094 93.015625 215.289062 96.054688 C 214.078125 99.09375 207.386719 106.652344 206.066406 108.003906 C 206.066406 108.003906 205.867188 118.484375 206.101562 122.0625 C 206.101562 122.0625 203.300781 127.113281 197.921875 132.34375 C 191.347656 138.734375 190.933594 139.039062 190.480469 140.433594 C 189.316406 144.050781 188.191406 147.207031 188.191406 147.207031 L 188.179688 147.152344 L 188.179688 147.207031 C 188.179688 147.207031 187.054688 144.050781 185.886719 140.433594 C 185.4375 139.039062 185.023438 138.734375 178.449219 132.34375 C 173.070312 127.113281 170.269531 122.0625 170.269531 122.0625 C 170.5 118.484375 170.304688 108.003906 170.304688 108.003906 C 168.984375 106.652344 162.292969 99.09375 161.082031 96.054688 C 159.875 93.015625 158.785156 82.832031 158.785156 82.832031 C 155.222656 84.742188 152.972656 82.066406 152.171875 78.6875 C 151.375 75.308594 150.355469 72.699219 149.570312 69.660156 C 148.78125 66.621094 149.101562 63.988281 151.988281 63.242188 C 154.871094 62.503906 157.363281 65.105469 157.363281 65.105469 L 157.429688 55.414062 Z M 157.429688 55.386719 " fill-opacity="1" fill-rule="evenodd"/><path fill="#c16d64" d="M 157.15625 66.238281 C 157.15625 66.238281 157.691406 75.152344 158.359375 81.875 C 158.378906 82.058594 158.539062 82.191406 158.726562 82.175781 C 158.90625 82.15625 159.042969 81.992188 159.023438 81.808594 C 158.359375 75.097656 157.824219 66.199219 157.824219 66.199219 C 157.8125 66.015625 157.652344 65.875 157.46875 65.886719 C 157.285156 65.898438 157.144531 66.054688 157.15625 66.238281 Z M 157.15625 66.238281 " fill-opacity="1" fill-rule="evenodd"/><path fill="#c16d64" d="M 218.546875 66.199219 C 218.546875 66.199219 218.011719 75.097656 217.347656 81.808594 C 217.328125 81.992188 217.460938 82.15625 217.644531 82.175781 C 217.828125 82.191406 217.992188 82.058594 218.011719 81.875 C 218.675781 75.152344 219.214844 66.238281 219.214844 66.238281 C 219.226562 66.054688 219.085938 65.898438 218.902344 65.886719 C 218.714844 65.875 218.558594 66.015625 218.546875 66.199219 Z M 218.546875 66.199219 " fill-opacity="1" fill-rule="evenodd"/><path fill="#c16d64" d="M 204.757812 108.609375 C 204.757812 108.609375 199.636719 113.101562 196.933594 113.898438 C 194.226562 114.699219 188.203125 114.464844 188.203125 114.464844 C 188.015625 114.457031 187.863281 114.605469 187.855469 114.789062 C 187.847656 114.972656 187.992188 115.128906 188.175781 115.132812 C 188.175781 115.132812 194.347656 115.359375 197.125 114.539062 C 199.90625 113.71875 205.199219 109.113281 205.199219 109.113281 C 205.335938 108.992188 205.351562 108.777344 205.230469 108.640625 C 205.109375 108.503906 204.898438 108.488281 204.757812 108.609375 Z M 204.757812 108.609375 " fill-opacity="1" fill-rule="evenodd"/><path fill="#c16d64" d="M 187.847656 64.902344 C 187.847656 64.902344 188.078125 71.171875 186.1875 76.28125 C 185.429688 78.324219 184.917969 79.917969 184.8125 81.132812 C 184.695312 82.480469 185.054688 83.40625 186.027344 84.015625 C 186.867188 84.542969 188.125 84.757812 189.335938 84.8125 C 191.09375 84.894531 192.742188 84.652344 192.742188 84.652344 C 192.925781 84.625 193.050781 84.453125 193.023438 84.273438 C 193 84.089844 192.828125 83.964844 192.644531 83.992188 C 192.644531 83.992188 191.058594 84.222656 189.367188 84.144531 C 188.277344 84.097656 187.136719 83.921875 186.382812 83.449219 C 185.625 82.976562 185.386719 82.238281 185.480469 81.191406 C 185.582031 80.015625 186.082031 78.484375 186.8125 76.511719 C 188.746094 71.289062 188.515625 64.875 188.515625 64.875 C 188.507812 64.691406 188.351562 64.546875 188.167969 64.554688 C 187.984375 64.5625 187.839844 64.714844 187.847656 64.902344 Z M 187.847656 64.902344 " fill-opacity="1" fill-rule="evenodd"/><path fill="#c16d64" d="M 171.613281 108.609375 C 171.613281 108.609375 176.734375 113.101562 179.4375 113.898438 C 182.144531 114.699219 188.167969 114.464844 188.167969 114.464844 C 188.351562 114.457031 188.507812 114.605469 188.515625 114.789062 C 188.523438 114.972656 188.378906 115.128906 188.191406 115.132812 C 188.191406 115.132812 182.023438 115.359375 179.246094 114.539062 C 176.460938 113.71875 171.171875 109.113281 171.171875 109.113281 C 171.035156 108.992188 171.019531 108.777344 171.140625 108.640625 C 171.261719 108.503906 171.472656 108.488281 171.613281 108.609375 Z M 171.613281 108.609375 " fill-opacity="1" fill-rule="evenodd"/><path fill="#484477" d="M 176.453125 66.855469 C 176.453125 67.359375 176.398438 67.839844 176.285156 68.300781 C 176.167969 68.765625 176.007812 69.171875 175.796875 69.527344 C 175.585938 69.878906 175.34375 70.152344 175.066406 70.34375 C 174.792969 70.535156 174.503906 70.632812 174.207031 70.632812 C 173.910156 70.632812 173.621094 70.535156 173.347656 70.34375 C 173.070312 70.152344 172.828125 69.878906 172.617188 69.527344 C 172.40625 69.171875 172.242188 68.765625 172.128906 68.300781 C 172.015625 67.839844 171.957031 67.359375 171.957031 66.855469 C 171.957031 66.355469 172.015625 65.875 172.128906 65.414062 C 172.242188 64.949219 172.40625 64.542969 172.617188 64.1875 C 172.828125 63.835938 173.070312 63.5625 173.347656 63.371094 C 173.621094 63.179688 173.910156 63.082031 174.207031 63.082031 C 174.503906 63.082031 174.792969 63.179688 175.066406 63.371094 C 175.34375 63.5625 175.585938 63.835938 175.796875 64.1875 C 176.007812 64.542969 176.167969 64.949219 176.285156 65.414062 C 176.398438 65.875 176.453125 66.355469 176.453125 66.855469 Z M 176.453125 66.855469 " fill-opacity="1" fill-rule="nonzero"/><path fill="#484477" d="M 204.410156 66.855469 C 204.410156 67.359375 204.355469 67.839844 204.242188 68.300781 C 204.125 68.765625 203.964844 69.171875 203.753906 69.527344 C 203.542969 69.878906 203.300781 70.152344 203.023438 70.34375 C 202.75 70.535156 202.460938 70.632812 202.164062 70.632812 C 201.867188 70.632812 201.578125 70.535156 201.304688 70.34375 C 201.027344 70.152344 200.785156 69.878906 200.574219 69.527344 C 200.363281 69.171875 200.199219 68.765625 200.085938 68.300781 C 199.972656 67.839844 199.914062 67.359375 199.914062 66.855469 C 199.914062 66.355469 199.972656 65.875 200.085938 65.414062 C 200.199219 64.949219 200.363281 64.542969 200.574219 64.1875 C 200.785156 63.835938 201.027344 63.5625 201.304688 63.371094 C 201.578125 63.179688 201.867188 63.082031 202.164062 63.082031 C 202.460938 63.082031 202.75 63.179688 203.023438 63.371094 C 203.300781 63.5625 203.542969 63.835938 203.753906 64.1875 C 203.964844 64.542969 204.125 64.949219 204.242188 65.414062 C 204.355469 65.875 204.410156 66.355469 204.410156 66.855469 Z M 204.410156 66.855469 " fill-opacity="1" fill-rule="nonzero"/><path fill="#484477" d="M 191.304688 67.09375 C 190.574219 66.921875 189.398438 66.703125 188.191406 66.703125 L 188.179688 66.703125 C 186.972656 66.703125 185.796875 66.921875 185.066406 67.09375 C 184.28125 61.804688 179.714844 57.746094 174.207031 57.746094 C 169.082031 57.746094 164.773438 61.257812 163.566406 66.003906 L 157.5625 63.601562 C 157.222656 63.464844 156.832031 63.632812 156.695312 63.976562 C 156.554688 64.316406 156.722656 64.707031 157.066406 64.84375 L 163.3125 67.34375 C 163.257812 67.792969 163.226562 68.25 163.226562 68.714844 C 163.226562 74.769531 168.148438 79.6875 174.207031 79.6875 C 180.265625 79.6875 185.1875 74.769531 185.1875 68.714844 C 185.1875 68.621094 185.183594 68.53125 185.183594 68.4375 C 185.808594 68.28125 186.972656 68.039062 188.179688 68.039062 L 188.191406 68.039062 C 189.398438 68.039062 190.5625 68.28125 191.1875 68.4375 C 191.183594 68.53125 191.183594 68.621094 191.183594 68.714844 C 191.183594 74.769531 196.105469 79.6875 202.164062 79.6875 C 208.222656 79.6875 213.140625 74.769531 213.140625 68.714844 C 213.140625 68.25 213.113281 67.792969 213.058594 67.34375 L 219.304688 64.84375 C 219.644531 64.707031 219.8125 64.316406 219.675781 63.976562 C 219.539062 63.632812 219.148438 63.464844 218.804688 63.601562 L 212.804688 66.003906 C 211.59375 61.257812 207.289062 57.746094 202.164062 57.746094 C 196.65625 57.746094 192.089844 61.804688 191.304688 67.09375 Z M 174.207031 59.078125 C 179.527344 59.078125 183.847656 63.398438 183.847656 68.714844 C 183.847656 74.03125 179.527344 78.351562 174.207031 78.351562 C 168.886719 78.351562 164.566406 74.03125 164.566406 68.714844 C 164.566406 63.398438 168.886719 59.078125 174.207031 59.078125 Z M 202.164062 59.078125 C 207.484375 59.078125 211.804688 63.398438 211.804688 68.714844 C 211.804688 74.03125 207.484375 78.351562 202.164062 78.351562 C 196.839844 78.351562 192.523438 74.03125 192.523438 68.714844 C 192.523438 63.398438 196.839844 59.078125 202.164062 59.078125 Z M 202.164062 59.078125 " fill-opacity="1" fill-rule="evenodd"/><path fill="#86aae7" d="M 235.3125 132.070312 L 234.769531 131.882812 C 234.855469 136.160156 235.175781 153.882812 234.996094 161.957031 C 234.957031 163.554688 234.902344 164.773438 234.824219 165.429688 C 234.804688 165.574219 234.769531 165.730469 234.753906 165.789062 C 234.714844 165.8125 234.605469 165.871094 234.507812 165.90625 C 234.207031 166.011719 233.757812 166.113281 233.203125 166.210938 C 229.527344 166.863281 221.441406 167.292969 220.835938 167.328125 C 218.164062 166.050781 216.144531 165.125 216.144531 165.125 C 215.976562 165.046875 215.78125 165.121094 215.703125 165.289062 C 215.625 165.457031 215.699219 165.65625 215.867188 165.730469 C 215.867188 165.730469 226.984375 170.839844 231.542969 173.53125 C 232.207031 173.921875 232.730469 174.261719 233.050781 174.523438 C 233.160156 174.617188 233.273438 174.742188 233.300781 174.773438 C 233.308594 174.894531 233.242188 175.09375 233.136719 175.367188 C 232.9375 175.90625 232.570312 176.664062 232.085938 177.582031 C 230.175781 181.203125 226.484375 187.234375 223.890625 192.039062 C 220.1875 198.90625 204.765625 225.304688 195.277344 239.417969 C 195.175781 239.570312 195.214844 239.777344 195.371094 239.882812 C 195.523438 239.984375 195.730469 239.941406 195.832031 239.789062 C 205.332031 225.660156 220.769531 199.230469 224.480469 192.359375 C 227.445312 186.855469 231.851562 179.757812 233.386719 176.484375 C 233.667969 175.882812 233.855469 175.40625 233.925781 175.082031 C 233.96875 174.894531 233.972656 174.746094 233.957031 174.636719 C 233.9375 174.519531 233.84375 174.34375 233.640625 174.152344 C 233.328125 173.859375 232.710938 173.445312 231.882812 172.953125 C 229.546875 171.574219 225.492188 169.5625 222.085938 167.925781 C 224.621094 167.773438 230.378906 167.394531 233.320312 166.871094 C 234.027344 166.746094 234.578125 166.609375 234.898438 166.46875 C 235.097656 166.382812 235.230469 166.285156 235.296875 166.191406 C 235.359375 166.113281 235.4375 165.886719 235.484375 165.511719 C 235.566406 164.84375 235.628906 163.601562 235.664062 161.972656 C 235.839844 154.035156 235.53125 136.789062 235.445312 132.117188 Z M 140.1875 132.070312 L 140.730469 131.882812 C 140.648438 136.160156 140.324219 153.882812 140.507812 161.957031 C 140.542969 163.554688 140.597656 164.773438 140.679688 165.429688 C 140.699219 165.574219 140.734375 165.730469 140.746094 165.789062 C 140.789062 165.8125 140.894531 165.871094 140.992188 165.90625 C 141.296875 166.011719 141.746094 166.113281 142.296875 166.210938 C 145.972656 166.863281 154.0625 167.292969 154.667969 167.328125 C 157.339844 166.050781 159.355469 165.125 159.355469 165.125 C 159.523438 165.046875 159.722656 165.121094 159.800781 165.289062 C 159.878906 165.457031 159.804688 165.65625 159.636719 165.730469 C 159.636719 165.730469 148.515625 170.839844 143.960938 173.53125 C 143.292969 173.921875 142.773438 174.261719 142.453125 174.523438 C 142.339844 174.617188 142.230469 174.742188 142.203125 174.773438 C 142.191406 174.894531 142.261719 175.09375 142.363281 175.367188 C 142.566406 175.90625 142.933594 176.664062 143.417969 177.582031 C 145.324219 181.203125 149.019531 187.234375 151.613281 192.039062 C 155.316406 198.90625 170.734375 225.304688 180.222656 239.417969 C 180.328125 239.570312 180.285156 239.777344 180.132812 239.882812 C 179.980469 239.984375 179.773438 239.941406 179.667969 239.789062 C 170.171875 225.660156 154.730469 199.230469 151.023438 192.359375 C 148.058594 186.855469 143.648438 179.757812 142.117188 176.484375 C 141.835938 175.882812 141.648438 175.40625 141.574219 175.082031 C 141.535156 174.894531 141.527344 174.746094 141.546875 174.636719 C 141.566406 174.519531 141.660156 174.34375 141.863281 174.152344 C 142.175781 173.859375 142.792969 173.445312 143.621094 172.953125 C 145.957031 171.574219 150.007812 169.5625 153.417969 167.925781 C 150.878906 167.773438 145.125 167.394531 142.179688 166.871094 C 141.476562 166.746094 140.925781 166.609375 140.605469 166.46875 C 140.40625 166.382812 140.273438 166.285156 140.203125 166.191406 C 140.144531 166.113281 140.0625 165.886719 140.015625 165.511719 C 139.933594 164.84375 139.875 163.601562 139.839844 161.972656 C 139.660156 154.035156 139.96875 136.789062 140.058594 132.117188 Z M 254.605469 204.351562 C 254.605469 204.167969 254.457031 204.015625 254.273438 204.015625 L 224.039062 204.015625 C 223.851562 204.015625 223.703125 204.167969 223.703125 204.351562 L 223.703125 213.324219 C 223.703125 213.511719 223.851562 213.660156 224.039062 213.660156 L 254.273438 213.660156 C 254.457031 213.660156 254.605469 213.511719 254.605469 213.324219 Z M 253.9375 204.6875 L 253.9375 212.992188 C 253.9375 212.992188 224.371094 212.992188 224.371094 212.992188 C 224.371094 212.992188 224.371094 204.6875 224.371094 204.6875 Z M 253.9375 204.6875 " fill-opacity="1" fill-rule="evenodd"/><path fill="#484477" d="M 167.722656 57.292969 C 167.722656 57.292969 172.15625 58.066406 178.578125 56.148438 C 179.109375 55.988281 179.414062 55.429688 179.253906 54.898438 C 179.09375 54.367188 178.535156 54.066406 178.003906 54.226562 C 172.117188 55.984375 168.058594 55.316406 168.058594 55.316406 C 167.511719 55.226562 166.996094 55.59375 166.902344 56.140625 C 166.808594 56.683594 167.179688 57.203125 167.722656 57.292969 Z M 167.722656 57.292969 " fill-opacity="1" fill-rule="evenodd"/><path fill="#484477" d="M 208.644531 57.292969 C 208.644531 57.292969 204.214844 58.066406 197.789062 56.148438 C 197.257812 55.988281 196.957031 55.429688 197.117188 54.898438 C 197.273438 54.367188 197.835938 54.066406 198.363281 54.226562 C 204.253906 55.984375 208.3125 55.316406 208.3125 55.316406 C 208.855469 55.226562 209.375 55.59375 209.46875 56.140625 C 209.558594 56.683594 209.191406 57.203125 208.644531 57.292969 Z M 208.644531 57.292969 " fill-opacity="1" fill-rule="evenodd"/><path fill="#c16d64" d="M 180.984375 94.820312 C 180.960938 93.761719 184.003906 92.492188 187.699219 92.457031 C 191.789062 92.414062 195.140625 93.382812 195.136719 94.851562 C 195.128906 96.460938 190.84375 96.789062 187.835938 96.738281 C 184.828125 96.691406 181.023438 96.339844 180.984375 94.820312 Z M 180.984375 94.820312 " fill-opacity="1" fill-rule="evenodd"/><path fill="#86aae7" d="M 235.011719 20.417969 C 235.316406 19.527344 236.152344 18.550781 237.171875 18.03125 C 238.121094 17.550781 239.246094 17.484375 240.234375 18.375 C 241.382812 19.40625 240.8125 20.984375 240.042969 21.894531 C 239.195312 22.902344 238.019531 23.300781 238.019531 23.300781 C 237.667969 23.417969 237.480469 23.796875 237.597656 24.148438 C 237.714844 24.496094 238.097656 24.683594 238.445312 24.566406 C 238.445312 24.566406 239.972656 24.054688 241.066406 22.753906 C 242.238281 21.363281 242.878906 18.957031 241.128906 17.382812 C 239.652344 16.054688 237.976562 16.121094 236.5625 16.84375 C 235.226562 17.523438 234.144531 18.820312 233.746094 19.988281 C 233.625 20.339844 233.8125 20.71875 234.164062 20.835938 C 234.511719 20.957031 234.894531 20.769531 235.011719 20.417969 Z M 235.011719 20.417969 " fill-opacity="1" fill-rule="evenodd"/><path fill="#86aae7" d="M 248.351562 19.636719 C 248.730469 18.550781 249.683594 17.570312 250.773438 17.089844 C 251.789062 16.640625 252.9375 16.632812 253.820312 17.488281 C 254.285156 17.9375 254.359375 18.503906 254.25 19.0625 C 254.121094 19.726562 253.746094 20.378906 253.34375 20.871094 C 252.523438 21.863281 251.34375 22.183594 251.34375 22.183594 C 250.988281 22.277344 250.773438 22.644531 250.871094 23.003906 C 250.96875 23.359375 251.335938 23.570312 251.691406 23.472656 C 251.691406 23.472656 253.273438 23.050781 254.375 21.71875 C 254.910156 21.066406 255.394531 20.195312 255.5625 19.316406 C 255.757812 18.324219 255.574219 17.324219 254.75 16.527344 C 253.433594 15.257812 251.738281 15.203125 250.234375 15.867188 C 248.8125 16.492188 247.585938 17.78125 247.089844 19.195312 C 246.96875 19.542969 247.152344 19.925781 247.5 20.046875 C 247.847656 20.167969 248.230469 19.984375 248.351562 19.636719 Z M 248.351562 19.636719 " fill-opacity="1" fill-rule="evenodd"/><path fill="#86aae7" d="M 242.929688 31.339844 C 244.210938 29.089844 247.6875 27.5 249.597656 30.027344 C 250.742188 31.542969 249.703125 33.429688 248.574219 34.371094 C 247.355469 35.386719 245.394531 35.550781 245.394531 35.550781 C 245.027344 35.585938 244.757812 35.910156 244.792969 36.277344 C 244.824219 36.644531 245.148438 36.917969 245.519531 36.882812 C 245.519531 36.882812 247.921875 36.648438 249.429688 35.398438 C 251.023438 34.070312 252.28125 31.363281 250.664062 29.222656 C 248.128906 25.867188 243.464844 27.695312 241.769531 30.679688 C 241.585938 31 241.699219 31.410156 242.019531 31.589844 C 242.339844 31.773438 242.746094 31.660156 242.929688 31.339844 Z M 242.929688 31.339844 " fill-opacity="1" fill-rule="evenodd"/><g clip-path="url(#0815c92156)"><path fill="#f2b8a6" d="M 72.785156 175.488281 C 72.785156 175.488281 72.617188 166 70.160156 160.109375 C 67.699219 154.21875 62.527344 145.9375 61.011719 137.164062 C 59.492188 128.390625 57.875 117.105469 57.230469 112.914062 C 56.585938 108.722656 56.792969 104.085938 59.742188 103.523438 C 62.347656 103.027344 63.382812 105.996094 64.335938 109.488281 C 64.335938 109.488281 63.371094 103.371094 63.210938 100.230469 C 63.054688 97.09375 63.160156 93.441406 65.828125 92.65625 C 68.285156 91.933594 69.785156 94.164062 70.769531 98.253906 C 70.769531 98.253906 69.734375 89.332031 73.0625 88.527344 C 76.054688 87.808594 77.914062 89.195312 79.519531 98.96875 C 79.519531 98.96875 79.457031 93.144531 82.332031 92.582031 C 85.171875 92.027344 86.515625 93.960938 87.6875 99.769531 C 88.863281 105.574219 91.886719 118.964844 95.265625 128.609375 C 95.265625 128.609375 96.296875 126.902344 96.320312 124.808594 C 96.339844 122.714844 97.140625 118.636719 99.640625 116.625 C 102.136719 114.609375 104.335938 114.640625 105 115.910156 C 105.664062 117.183594 105.175781 121.714844 105.210938 125.199219 C 105.246094 128.683594 104.992188 136.152344 103.898438 139.898438 C 102.800781 143.644531 97.765625 151.070312 97.191406 153.859375 C 96.613281 156.648438 97.515625 165.820312 97.964844 169.300781 C 98.417969 172.78125 81.371094 176.128906 72.785156 175.488281 Z M 72.785156 175.488281 " fill-opacity="1" fill-rule="evenodd"/></g><g clip-path="url(#e701222371)"><path fill="#f2b8a6" d="M 302.34375 175.488281 C 302.34375 175.488281 302.511719 166 304.972656 160.109375 C 307.429688 154.21875 312.601562 145.9375 314.121094 137.164062 C 315.636719 128.390625 317.257812 117.105469 317.902344 112.914062 C 318.542969 108.722656 318.339844 104.085938 315.386719 103.523438 C 312.785156 103.027344 311.746094 105.996094 310.792969 109.488281 C 310.792969 109.488281 311.761719 103.371094 311.917969 100.230469 C 312.078125 97.09375 311.972656 93.441406 309.300781 92.65625 C 306.847656 91.933594 305.34375 94.164062 304.359375 98.253906 C 304.359375 98.253906 305.394531 89.332031 302.070312 88.527344 C 299.078125 87.808594 297.214844 89.195312 295.609375 98.96875 C 295.609375 98.96875 295.675781 93.144531 292.796875 92.582031 C 289.960938 92.027344 288.613281 93.960938 287.441406 99.769531 C 286.269531 105.574219 283.242188 118.964844 279.867188 128.609375 C 279.867188 128.609375 278.832031 126.902344 278.8125 124.808594 C 278.789062 122.714844 277.992188 118.636719 275.492188 116.625 C 272.992188 114.609375 270.796875 114.640625 270.128906 115.910156 C 269.464844 117.183594 269.953125 121.714844 269.917969 125.199219 C 269.882812 128.683594 270.140625 136.152344 271.234375 139.898438 C 272.328125 143.644531 277.363281 151.070312 277.941406 153.859375 C 278.515625 156.648438 277.617188 165.820312 277.164062 169.300781 C 276.710938 172.78125 293.757812 176.128906 302.34375 175.488281 Z M 302.34375 175.488281 " fill-opacity="1" fill-rule="evenodd"/></g><path fill="#c16d64" d="M 94.613281 129.140625 C 94.613281 129.140625 93.949219 130.390625 92.027344 132.171875 C 89.917969 134.117188 86.386719 137.652344 86.175781 143.96875 C 86.171875 144.15625 86.316406 144.308594 86.5 144.316406 C 86.683594 144.320312 86.839844 144.175781 86.847656 143.992188 C 87.046875 137.921875 90.457031 134.53125 92.480469 132.660156 C 94.515625 130.78125 95.207031 129.449219 95.207031 129.449219 C 95.292969 129.289062 95.230469 129.085938 95.066406 129 C 94.902344 128.914062 94.699219 128.976562 94.613281 129.140625 Z M 69.671875 128.207031 C 69.671875 128.207031 77.847656 123.242188 84.394531 121.113281 C 84.566406 121.054688 84.664062 120.867188 84.605469 120.691406 C 84.550781 120.515625 84.363281 120.421875 84.1875 120.476562 C 77.582031 122.628906 69.324219 127.636719 69.324219 127.636719 C 69.167969 127.730469 69.117188 127.9375 69.214844 128.09375 C 69.308594 128.253906 69.515625 128.300781 69.671875 128.207031 Z M 64.164062 110.390625 C 64.164062 110.390625 66.242188 120.816406 67.050781 124.675781 C 67.089844 124.855469 67.265625 124.972656 67.449219 124.933594 C 67.628906 124.894531 67.742188 124.71875 67.707031 124.539062 C 66.898438 120.679688 64.820312 110.261719 64.820312 110.261719 C 64.785156 110.078125 64.609375 109.960938 64.429688 110 C 64.246094 110.035156 64.128906 110.210938 64.164062 110.390625 Z M 70.652344 99.175781 C 70.652344 99.175781 71.949219 106.242188 72.820312 110.207031 C 73.691406 114.160156 74.8125 120.851562 74.8125 120.851562 C 74.84375 121.03125 75.015625 121.15625 75.199219 121.125 C 75.378906 121.09375 75.503906 120.921875 75.472656 120.742188 C 75.472656 120.742188 74.347656 114.027344 73.472656 110.0625 C 72.601562 106.105469 71.308594 99.058594 71.308594 99.058594 C 71.277344 98.875 71.101562 98.753906 70.917969 98.789062 C 70.738281 98.820312 70.617188 98.996094 70.652344 99.175781 Z M 79.371094 99.871094 C 79.371094 99.871094 80.765625 106.953125 81.488281 110.898438 C 82.210938 114.851562 82.867188 117.792969 82.867188 117.792969 C 82.90625 117.972656 83.082031 118.085938 83.265625 118.046875 C 83.445312 118.007812 83.558594 117.828125 83.519531 117.648438 C 83.519531 117.648438 82.867188 114.714844 82.144531 110.777344 C 81.421875 106.832031 80.027344 99.742188 80.027344 99.742188 C 79.992188 99.5625 79.8125 99.445312 79.632812 99.480469 C 79.453125 99.515625 79.335938 99.691406 79.371094 99.871094 Z M 79.371094 99.871094 " fill-opacity="1" fill-rule="evenodd"/><path fill="#c16d64" d="M 280.515625 129.140625 C 280.515625 129.140625 281.179688 130.390625 283.105469 132.171875 C 285.210938 134.117188 288.746094 137.652344 288.953125 143.96875 C 288.960938 144.15625 288.816406 144.308594 288.628906 144.316406 C 288.445312 144.320312 288.292969 144.175781 288.285156 143.992188 C 288.082031 137.921875 284.675781 134.53125 282.648438 132.660156 C 280.617188 130.78125 279.925781 129.449219 279.925781 129.449219 C 279.839844 129.289062 279.902344 129.085938 280.066406 129 C 280.226562 128.914062 280.429688 128.976562 280.515625 129.140625 Z M 305.457031 128.207031 C 305.457031 128.207031 297.28125 123.242188 290.738281 121.113281 C 290.5625 121.054688 290.464844 120.867188 290.523438 120.691406 C 290.582031 120.515625 290.769531 120.421875 290.945312 120.476562 C 297.550781 122.628906 305.804688 127.636719 305.804688 127.636719 C 305.964844 127.730469 306.015625 127.9375 305.917969 128.09375 C 305.820312 128.253906 305.617188 128.300781 305.460938 128.207031 Z M 310.964844 110.390625 C 310.964844 110.390625 308.890625 120.816406 308.078125 124.675781 C 308.042969 124.855469 307.863281 124.972656 307.683594 124.933594 C 307.503906 124.894531 307.386719 124.71875 307.425781 124.539062 C 308.234375 120.679688 310.308594 110.261719 310.308594 110.261719 C 310.34375 110.078125 310.519531 109.960938 310.703125 110 C 310.882812 110.035156 311 110.210938 310.964844 110.390625 Z M 304.480469 99.175781 C 304.480469 99.175781 303.183594 106.242188 302.3125 110.207031 C 301.441406 114.160156 300.316406 120.851562 300.316406 120.851562 C 300.289062 121.03125 300.113281 121.15625 299.933594 121.125 C 299.75 121.09375 299.628906 120.921875 299.65625 120.742188 C 299.65625 120.742188 300.785156 114.027344 301.65625 110.0625 C 302.527344 106.105469 303.820312 99.058594 303.820312 99.058594 C 303.855469 98.875 304.03125 98.753906 304.210938 98.789062 C 304.394531 98.820312 304.511719 98.996094 304.480469 99.175781 Z M 295.761719 99.871094 C 295.761719 99.871094 294.367188 106.953125 293.640625 110.898438 C 292.917969 114.851562 292.265625 117.792969 292.265625 117.792969 C 292.222656 117.972656 292.046875 118.085938 291.867188 118.046875 C 291.6875 118.007812 291.574219 117.828125 291.613281 117.648438 C 291.613281 117.648438 292.261719 114.714844 292.984375 110.777344 C 293.707031 106.832031 295.105469 99.742188 295.105469 99.742188 C 295.140625 99.5625 295.316406 99.445312 295.496094 99.480469 C 295.679688 99.515625 295.796875 99.691406 295.761719 99.871094 Z M 295.761719 99.871094 " fill-opacity="1" fill-rule="evenodd"/><g clip-path="url(#7271007358)"><path fill="#e7e8f8" d="M 68 176.773438 C 67.996094 176.394531 68.242188 176.058594 68.601562 175.949219 C 72.765625 174.691406 97.019531 167.390625 104.523438 165.785156 C 104.6875 165.753906 104.859375 165.792969 104.992188 165.890625 C 105.128906 165.988281 105.214844 166.140625 105.234375 166.308594 C 105.679688 170.355469 108.050781 192.171875 108.722656 201.960938 C 109.460938 212.773438 111.90625 223.3125 111.097656 231.734375 C 110.292969 240.15625 113.160156 241.886719 113.878906 247.875 C 114.75 255.144531 115.027344 262.046875 115.027344 262.046875 L 70.527344 262.050781 C 70.527344 262.050781 68.707031 238.828125 68.382812 206.511719 C 68.289062 197.625 68.050781 180.300781 68 176.773438 Z M 68 176.773438 " fill-opacity="1" fill-rule="evenodd"/></g><g clip-path="url(#fca00e598e)"><path fill="#e7e8f8" d="M 307.128906 176.773438 C 307.136719 176.394531 306.890625 176.058594 306.527344 175.949219 C 302.367188 174.691406 278.113281 167.390625 270.609375 165.785156 C 270.445312 165.753906 270.273438 165.792969 270.136719 165.890625 C 270.003906 165.988281 269.914062 166.140625 269.894531 166.308594 C 269.453125 170.355469 267.078125 192.171875 266.410156 201.960938 C 265.667969 212.773438 263.226562 223.3125 264.03125 231.734375 C 264.839844 240.15625 261.972656 241.886719 261.253906 247.875 C 260.382812 255.144531 260.105469 262.046875 260.105469 262.046875 L 304.605469 262.050781 C 304.605469 262.050781 306.421875 238.828125 306.75 206.511719 C 306.839844 197.625 307.082031 180.300781 307.128906 176.773438 Z M 307.128906 176.773438 " fill-opacity="1" fill-rule="evenodd"/></g><path fill="#86aae7" d="M 100.828125 167.019531 C 102.242188 166.652344 103.472656 166.355469 104.441406 166.144531 C 104.550781 166.121094 104.664062 166.148438 104.757812 166.214844 C 104.847656 166.28125 104.90625 166.382812 104.917969 166.496094 C 105.402344 170.902344 107.726562 192.3125 108.386719 201.984375 C 109.128906 212.777344 111.570312 223.296875 110.765625 231.703125 C 110.273438 236.828125 111.125 239.507812 112.042969 242.140625 C 112.636719 243.855469 113.261719 245.546875 113.546875 247.914062 C 114.195312 253.339844 114.515625 258.5625 114.632812 260.851562 C 114.644531 261.039062 114.800781 261.179688 114.984375 261.167969 C 115.171875 261.160156 115.3125 261.003906 115.300781 260.816406 C 115.183594 258.519531 114.863281 253.28125 114.210938 247.832031 C 113.917969 245.410156 113.28125 243.675781 112.671875 241.921875 C 111.78125 239.359375 110.953125 236.753906 111.429688 231.769531 C 112.238281 223.332031 109.796875 212.769531 109.054688 201.9375 C 108.394531 192.261719 106.066406 170.832031 105.582031 166.421875 C 105.550781 166.125 105.394531 165.851562 105.152344 165.675781 C 104.910156 165.5 104.605469 165.429688 104.3125 165.488281 C 104.308594 165.488281 104.308594 165.488281 104.304688 165.492188 C 103.328125 165.703125 102.089844 166.003906 100.660156 166.371094 C 100.480469 166.417969 100.375 166.601562 100.421875 166.78125 C 100.464844 166.957031 100.648438 167.066406 100.828125 167.019531 Z M 100.828125 167.019531 " fill-opacity="1" fill-rule="evenodd"/><path fill="#86aae7" d="M 274.300781 167.019531 C 272.886719 166.652344 271.65625 166.355469 270.6875 166.144531 C 270.578125 166.121094 270.464844 166.148438 270.375 166.214844 C 270.28125 166.28125 270.222656 166.382812 270.210938 166.496094 C 269.730469 170.902344 267.402344 192.3125 266.742188 201.984375 C 266.003906 212.777344 263.5625 223.296875 264.367188 231.703125 C 264.855469 236.828125 264.007812 239.507812 263.089844 242.140625 C 262.496094 243.855469 261.867188 245.546875 261.585938 247.914062 C 260.933594 253.339844 260.613281 258.5625 260.496094 260.851562 C 260.484375 261.039062 260.328125 261.179688 260.144531 261.167969 C 259.960938 261.160156 259.816406 261.003906 259.828125 260.816406 C 259.945312 258.519531 260.269531 253.28125 260.921875 247.832031 C 261.210938 245.410156 261.847656 243.675781 262.457031 241.921875 C 263.347656 239.359375 264.175781 236.753906 263.699219 231.769531 C 262.890625 223.332031 265.332031 212.769531 266.074219 201.9375 C 266.738281 192.261719 269.0625 170.832031 269.546875 166.421875 C 269.582031 166.125 269.738281 165.851562 269.980469 165.675781 C 270.21875 165.5 270.527344 165.429688 270.820312 165.488281 C 270.824219 165.488281 270.824219 165.488281 270.828125 165.492188 C 271.800781 165.703125 273.042969 166.003906 274.46875 166.371094 C 274.648438 166.417969 274.757812 166.601562 274.710938 166.78125 C 274.664062 166.957031 274.480469 167.066406 274.300781 167.019531 Z M 274.300781 167.019531 " fill-opacity="1" fill-rule="evenodd"/><path fill="#86aae7" d="M 69.472656 196.519531 C 69.472656 196.519531 89.21875 194.6875 105.414062 187.625 C 105.585938 187.550781 105.660156 187.351562 105.589844 187.183594 C 105.515625 187.015625 105.316406 186.9375 105.148438 187.011719 C 89.042969 194.035156 69.410156 195.855469 69.410156 195.855469 C 69.226562 195.871094 69.089844 196.035156 69.109375 196.214844 C 69.125 196.402344 69.289062 196.535156 69.472656 196.519531 Z M 69.472656 196.519531 " fill-opacity="1" fill-rule="evenodd"/><path fill="#86aae7" d="M 305.65625 196.519531 C 305.65625 196.519531 285.914062 194.6875 269.714844 187.625 C 269.546875 187.550781 269.46875 187.351562 269.542969 187.183594 C 269.617188 187.015625 269.8125 186.9375 269.984375 187.011719 C 286.085938 194.035156 305.71875 195.855469 305.71875 195.855469 C 305.902344 195.871094 306.039062 196.035156 306.023438 196.214844 C 306.003906 196.402344 305.839844 196.535156 305.65625 196.519531 Z M 305.65625 196.519531 " fill-opacity="1" fill-rule="evenodd"/><path fill="#86aae7" d="M 75.34375 182.128906 C 76.765625 182.042969 77.992188 183.128906 78.074219 184.546875 C 78.160156 185.96875 77.078125 187.191406 75.65625 187.277344 C 74.234375 187.363281 73.011719 186.28125 72.925781 184.859375 C 72.839844 183.441406 73.921875 182.214844 75.34375 182.128906 Z M 75.34375 182.128906 " fill-opacity="1" fill-rule="evenodd"/><path fill="#484477" d="M 161.40625 124.992188 L 161.433594 125.160156 C 160.515625 125.984375 159.578125 126.914062 158.628906 127.964844 C 156.101562 130.761719 154.097656 133.847656 152.492188 137.195312 L 151.957031 138.355469 L 151.75 138.824219 C 150.804688 141.023438 150.007812 143.328125 149.335938 145.734375 L 148.847656 147.582031 L 148.46875 149.175781 L 148.292969 149.972656 C 146.792969 156.925781 146.066406 164.644531 145.425781 173.042969 L 146.027344 173.035156 C 146.847656 173.027344 147.535156 173.507812 147.660156 174.140625 C 154.363281 175.867188 160.320312 182.222656 161.574219 197.917969 C 162.839844 213.804688 157.390625 221.167969 155.804688 222.953125 C 155.804688 222.953125 153.539062 226.320312 151.066406 226.136719 C 148.589844 225.953125 147.488281 222.613281 149.003906 220.160156 C 149.921875 218.667969 151.265625 218.503906 152.667969 219.351562 C 153.179688 219.664062 153.621094 219.8125 154 219.839844 C 155.722656 217.40625 159.242188 210.777344 158.238281 198.183594 C 157.1875 185.003906 152.695312 179.21875 147.253906 177.523438 L 138.734375 177.613281 C 133.570312 179.429688 129.246094 185.132812 127.832031 197.664062 C 126.335938 210.945312 130.113281 217.71875 131.628906 219.839844 C 132.003906 219.808594 132.4375 219.660156 132.945312 219.351562 C 134.347656 218.503906 135.691406 218.667969 136.613281 220.160156 C 138.125 222.613281 137.023438 225.953125 134.546875 226.136719 C 132.074219 226.320312 129.863281 222.953125 129.863281 222.953125 L 129.859375 222.949219 C 129.632812 222.726562 122.457031 215.488281 124.511719 197.289062 C 126.1875 182.421875 131.835938 176.125 138.191406 174.242188 C 138.292969 173.605469 138.964844 173.109375 139.789062 173.101562 L 140.726562 173.089844 C 141.507812 162.886719 142.472656 153.640625 144.628906 145.46875 L 145.113281 143.710938 L 145.625 142.039062 L 146.121094 140.554688 L 146.980469 138.238281 L 147.410156 137.195312 C 149.328125 132.640625 151.832031 128.511719 155.152344 124.832031 C 155.625 124.308594 156.09375 123.8125 156.5625 123.335938 Z M 220.53125 125.730469 C 221.097656 126.503906 221.652344 127.324219 222.191406 128.195312 C 223.988281 131.105469 225.441406 134.113281 226.613281 137.195312 L 227.097656 138.511719 C 227.324219 139.152344 227.535156 139.796875 227.742188 140.445312 L 228.28125 142.253906 L 228.957031 144.863281 L 229.484375 147.238281 L 229.804688 148.914062 C 231.726562 159.519531 231.5 170.496094 231.558594 180.753906 C 236.199219 181.753906 239.679688 185.882812 239.679688 190.8125 C 239.679688 196.496094 235.0625 201.105469 229.378906 201.105469 C 223.695312 201.105469 219.078125 196.496094 219.078125 190.8125 C 219.078125 185.996094 222.398438 181.945312 226.878906 180.828125 C 226.824219 170.898438 227.144531 160.242188 225.296875 149.972656 C 225.054688 148.617188 224.773438 147.265625 224.449219 145.925781 L 224.027344 144.289062 L 223.511719 142.5 L 223.125 141.285156 L 222.589844 139.738281 L 222.007812 138.21875 L 221.636719 137.3125 C 220.679688 135.042969 219.546875 132.820312 218.207031 130.65625 C 216.882812 128.511719 215.460938 126.738281 214.050781 125.28125 L 214.273438 123.789062 Z M 220.53125 125.730469 " fill-opacity="1" fill-rule="evenodd"/><path fill="#ffffff" d="M 186 148.960938 L 268.324219 287.335938 L 105.222656 287.863281 Z M 186 148.960938 " fill-opacity="1" fill-rule="nonzero"/><g clip-path="url(#f520c1b42b)"><path fill="#ea0000" d="M 186.492188 115.480469 C 182.464844 115.21875 178.351562 117.121094 175.773438 120.542969 L 69.679688 299.144531 C 68.960938 301.84375 68.933594 303.5625 69.574219 306.101562 C 70.183594 308.53125 72.570312 311.039062 74.851562 311.644531 L 295.808594 311.710938 C 297.1875 311.457031 299.09375 310.804688 300.027344 310.265625 C 303.429688 308.289062 305.734375 303.023438 303.320312 299.023438 L 195.914062 120.871094 C 194.34375 118.269531 191.179688 116.394531 188.214844 115.730469 C 187.648438 115.601562 187.070312 115.515625 186.492188 115.476562 Z M 186 148.960938 L 268.328125 287.335938 L 105.226562 287.863281 Z M 186 148.960938 " fill-opacity="1" fill-rule="nonzero"/></g><path fill="#000000" d="M 183.066406 278.328125 C 179.339844 276.539062 176.503906 272.238281 176.503906 268.382812 C 176.503906 261.199219 183.992188 255.785156 191.078125 257.851562 C 195.855469 259.242188 199.105469 263.566406 199.066406 268.480469 C 199.03125 272.660156 197.230469 275.734375 193.546875 277.894531 C 190.730469 279.550781 186.015625 279.742188 183.066406 278.328125 Z M 183.914062 249.960938 C 183.445312 249.707031 182.351562 248.8125 181.476562 247.976562 C 178.417969 245.058594 178.421875 245.085938 176.433594 213.867188 C 174.660156 186.117188 174.644531 185.6875 175.40625 183.695312 C 177.117188 179.210938 180.925781 177.246094 187.265625 177.578125 C 191.296875 177.789062 194.402344 179.210938 196.417969 181.761719 C 198.144531 183.941406 198.519531 185.175781 198.515625 188.660156 C 198.515625 192.445312 196.101562 238.867188 195.757812 241.714844 C 195.308594 245.441406 193.140625 248.464844 189.957031 249.796875 C 188.140625 250.558594 185.140625 250.640625 183.914062 249.960938 Z M 183.914062 249.960938 " fill-opacity="1" fill-rule="nonzero"/><g fill="#000000" fill-opacity="1"><g transform="translate(14.231142, 341.640551)"><g><path d="M 12.640625 -23.8125 C 14.234375 -23.8125 15.734375 -23.488281 17.140625 -22.84375 C 18.554688 -22.207031 19.789062 -21.335938 20.84375 -20.234375 C 21.894531 -19.128906 22.722656 -17.847656 23.328125 -16.390625 C 23.929688 -14.929688 24.234375 -13.375 24.234375 -11.71875 C 24.234375 -10.082031 23.929688 -8.523438 23.328125 -7.046875 C 22.722656 -5.566406 21.894531 -4.273438 20.84375 -3.171875 C 19.789062 -2.066406 18.554688 -1.1875 17.140625 -0.53125 C 15.734375 0.113281 14.234375 0.4375 12.640625 0.4375 C 11.054688 0.4375 9.554688 0.113281 8.140625 -0.53125 C 6.734375 -1.1875 5.507812 -2.066406 4.46875 -3.171875 C 3.425781 -4.273438 2.601562 -5.566406 2 -7.046875 C 1.394531 -8.523438 1.09375 -10.082031 1.09375 -11.71875 C 1.09375 -13.375 1.394531 -14.929688 2 -16.390625 C 2.601562 -17.847656 3.425781 -19.128906 4.46875 -20.234375 C 5.507812 -21.335938 6.734375 -22.207031 8.140625 -22.84375 C 9.554688 -23.488281 11.054688 -23.8125 12.640625 -23.8125 Z M 12.640625 -4.5625 C 13.546875 -4.5625 14.394531 -4.75 15.1875 -5.125 C 15.988281 -5.5 16.6875 -6.007812 17.28125 -6.65625 C 17.875 -7.3125 18.34375 -8.070312 18.6875 -8.9375 C 19.03125 -9.800781 19.203125 -10.726562 19.203125 -11.71875 C 19.203125 -12.707031 19.03125 -13.640625 18.6875 -14.515625 C 18.34375 -15.390625 17.875 -16.148438 17.28125 -16.796875 C 16.6875 -17.453125 15.988281 -17.96875 15.1875 -18.34375 C 14.394531 -18.71875 13.546875 -18.90625 12.640625 -18.90625 C 11.742188 -18.90625 10.894531 -18.71875 10.09375 -18.34375 C 9.300781 -17.96875 8.609375 -17.453125 8.015625 -16.796875 C 7.421875 -16.148438 6.953125 -15.390625 6.609375 -14.515625 C 6.265625 -13.640625 6.09375 -12.707031 6.09375 -11.71875 C 6.09375 -10.726562 6.265625 -9.800781 6.609375 -8.9375 C 6.953125 -8.070312 7.421875 -7.3125 8.015625 -6.65625 C 8.609375 -6.007812 9.300781 -5.5 10.09375 -5.125 C 10.894531 -4.75 11.742188 -4.5625 12.640625 -4.5625 Z M 12.640625 -4.5625 "/></g></g></g><g fill="#000000" fill-opacity="1"><g transform="translate(40.887223, 341.640551)"><g><path d="M 12.609375 -4.5625 C 13.671875 -4.5625 14.707031 -4.804688 15.71875 -5.296875 C 16.738281 -5.785156 17.769531 -6.601562 18.8125 -7.75 L 22.046875 -4.671875 C 20.742188 -2.992188 19.257812 -1.722656 17.59375 -0.859375 C 15.925781 0.00390625 14.210938 0.4375 12.453125 0.4375 C 10.859375 0.4375 9.363281 0.113281 7.96875 -0.53125 C 6.582031 -1.1875 5.375 -2.066406 4.34375 -3.171875 C 3.320312 -4.273438 2.519531 -5.5625 1.9375 -7.03125 C 1.351562 -8.5 1.0625 -10.0625 1.0625 -11.71875 C 1.0625 -13.375 1.363281 -14.929688 1.96875 -16.390625 C 2.570312 -17.847656 3.394531 -19.128906 4.4375 -20.234375 C 5.476562 -21.335938 6.703125 -22.207031 8.109375 -22.84375 C 9.523438 -23.488281 11.023438 -23.8125 12.609375 -23.8125 C 14.085938 -23.8125 15.492188 -23.535156 16.828125 -22.984375 C 18.171875 -22.429688 19.484375 -21.515625 20.765625 -20.234375 L 17.84375 -16.6875 C 16.914062 -17.550781 16.035156 -18.128906 15.203125 -18.421875 C 14.378906 -18.722656 13.515625 -18.875 12.609375 -18.875 C 11.703125 -18.875 10.847656 -18.6875 10.046875 -18.3125 C 9.242188 -17.9375 8.539062 -17.425781 7.9375 -16.78125 C 7.34375 -16.144531 6.875 -15.390625 6.53125 -14.515625 C 6.195312 -13.640625 6.03125 -12.707031 6.03125 -11.71875 C 6.03125 -10.726562 6.195312 -9.800781 6.53125 -8.9375 C 6.875 -8.070312 7.34375 -7.3125 7.9375 -6.65625 C 8.539062 -6.007812 9.242188 -5.5 10.046875 -5.125 C 10.847656 -4.75 11.703125 -4.5625 12.609375 -4.5625 Z M 12.609375 -4.5625 "/></g></g></g><g fill="#000000" fill-opacity="1"><g transform="translate(65.225409, 341.640551)"><g><path d="M 14.828125 -23.46875 L 19.828125 -23.46875 L 19.828125 -8.46875 C 19.828125 -7.300781 19.582031 -6.175781 19.09375 -5.09375 C 18.613281 -4.007812 17.953125 -3.0625 17.109375 -2.25 C 16.273438 -1.4375 15.300781 -0.785156 14.1875 -0.296875 C 13.070312 0.191406 11.875 0.4375 10.59375 0.4375 C 9.332031 0.4375 8.140625 0.191406 7.015625 -0.296875 C 5.890625 -0.785156 4.910156 -1.4375 4.078125 -2.25 C 3.253906 -3.0625 2.597656 -4.007812 2.109375 -5.09375 C 1.628906 -6.175781 1.390625 -7.300781 1.390625 -8.46875 L 1.390625 -23.46875 L 6.390625 -23.46875 L 6.390625 -9.46875 C 6.390625 -8.800781 6.5 -8.175781 6.71875 -7.59375 C 6.9375 -7.007812 7.234375 -6.488281 7.609375 -6.03125 C 7.984375 -5.582031 8.429688 -5.222656 8.953125 -4.953125 C 9.472656 -4.691406 10.019531 -4.5625 10.59375 -4.5625 C 11.1875 -4.5625 11.738281 -4.691406 12.25 -4.953125 C 12.757812 -5.222656 13.207031 -5.582031 13.59375 -6.03125 C 13.976562 -6.488281 14.28125 -7.007812 14.5 -7.59375 C 14.71875 -8.175781 14.828125 -8.800781 14.828125 -9.46875 Z M 14.828125 -23.46875 "/></g></g></g><g fill="#000000" fill-opacity="1"><g transform="translate(87.742396, 341.640551)"><g><path d="M 18.4375 -16.484375 C 18.4375 -15.734375 18.332031 -15.019531 18.125 -14.34375 C 17.914062 -13.675781 17.625 -13.0625 17.25 -12.5 C 16.875 -11.9375 16.421875 -11.4375 15.890625 -11 C 15.359375 -10.570312 14.785156 -10.226562 14.171875 -9.96875 L 21.953125 0 L 16.09375 0 L 8.84375 -9.46875 L 6.59375 -9.46875 L 6.59375 0 L 1.5625 0 L 1.5625 -23.46875 L 11.6875 -23.46875 C 12.613281 -23.46875 13.488281 -23.285156 14.3125 -22.921875 C 15.144531 -22.554688 15.863281 -22.0625 16.46875 -21.4375 C 17.070312 -20.8125 17.550781 -20.070312 17.90625 -19.21875 C 18.257812 -18.363281 18.4375 -17.453125 18.4375 -16.484375 Z M 11.0625 -14.03125 C 11.695312 -14.03125 12.242188 -14.269531 12.703125 -14.75 C 13.171875 -15.226562 13.40625 -15.804688 13.40625 -16.484375 C 13.40625 -17.148438 13.171875 -17.71875 12.703125 -18.1875 C 12.242188 -18.664062 11.695312 -18.90625 11.0625 -18.90625 L 6.59375 -18.90625 L 6.59375 -14.03125 Z M 11.0625 -14.03125 "/></g></g></g><g fill="#000000" fill-opacity="1"><g transform="translate(111.81568, 341.640551)"><g><path d="M 18.4375 -16.484375 C 18.4375 -15.734375 18.332031 -15.019531 18.125 -14.34375 C 17.914062 -13.675781 17.625 -13.0625 17.25 -12.5 C 16.875 -11.9375 16.421875 -11.4375 15.890625 -11 C 15.359375 -10.570312 14.785156 -10.226562 14.171875 -9.96875 L 21.953125 0 L 16.09375 0 L 8.84375 -9.46875 L 6.59375 -9.46875 L 6.59375 0 L 1.5625 0 L 1.5625 -23.46875 L 11.6875 -23.46875 C 12.613281 -23.46875 13.488281 -23.285156 14.3125 -22.921875 C 15.144531 -22.554688 15.863281 -22.0625 16.46875 -21.4375 C 17.070312 -20.8125 17.550781 -20.070312 17.90625 -19.21875 C 18.257812 -18.363281 18.4375 -17.453125 18.4375 -16.484375 Z M 11.0625 -14.03125 C 11.695312 -14.03125 12.242188 -14.269531 12.703125 -14.75 C 13.171875 -15.226562 13.40625 -15.804688 13.40625 -16.484375 C 13.40625 -17.148438 13.171875 -17.71875 12.703125 -18.1875 C 12.242188 -18.664062 11.695312 -18.90625 11.0625 -18.90625 L 6.59375 -18.90625 L 6.59375 -14.03125 Z M 11.0625 -14.03125 "/></g></g></g><g fill="#000000" fill-opacity="1"><g transform="translate(135.88897, 341.640551)"><g><path d="M 10.09375 -23.46875 L 10.09375 -19.234375 L 8.34375 -19.234375 L 8.34375 -4.203125 L 10.09375 -4.203125 L 10.09375 0 L 1.5625 0 L 1.5625 -4.203125 L 3.3125 -4.203125 L 3.3125 -19.234375 L 1.5625 -19.234375 L 1.5625 -23.46875 Z M 10.09375 -23.46875 "/></g></g></g><g fill="#000000" fill-opacity="1"><g transform="translate(148.836362, 341.640551)"><g><path d="M 12.640625 -23.8125 C 14.234375 -23.8125 15.734375 -23.488281 17.140625 -22.84375 C 18.554688 -22.207031 19.789062 -21.335938 20.84375 -20.234375 C 21.894531 -19.128906 22.722656 -17.847656 23.328125 -16.390625 C 23.929688 -14.929688 24.234375 -13.375 24.234375 -11.71875 C 24.234375 -10.082031 23.929688 -8.523438 23.328125 -7.046875 C 22.722656 -5.566406 21.894531 -4.273438 20.84375 -3.171875 C 19.789062 -2.066406 18.554688 -1.1875 17.140625 -0.53125 C 15.734375 0.113281 14.234375 0.4375 12.640625 0.4375 C 11.054688 0.4375 9.554688 0.113281 8.140625 -0.53125 C 6.734375 -1.1875 5.507812 -2.066406 4.46875 -3.171875 C 3.425781 -4.273438 2.601562 -5.566406 2 -7.046875 C 1.394531 -8.523438 1.09375 -10.082031 1.09375 -11.71875 C 1.09375 -13.375 1.394531 -14.929688 2 -16.390625 C 2.601562 -17.847656 3.425781 -19.128906 4.46875 -20.234375 C 5.507812 -21.335938 6.734375 -22.207031 8.140625 -22.84375 C 9.554688 -23.488281 11.054688 -23.8125 12.640625 -23.8125 Z M 12.640625 -4.5625 C 13.546875 -4.5625 14.394531 -4.75 15.1875 -5.125 C 15.988281 -5.5 16.6875 -6.007812 17.28125 -6.65625 C 17.875 -7.3125 18.34375 -8.070312 18.6875 -8.9375 C 19.03125 -9.800781 19.203125 -10.726562 19.203125 -11.71875 C 19.203125 -12.707031 19.03125 -13.640625 18.6875 -14.515625 C 18.34375 -15.390625 17.875 -16.148438 17.28125 -16.796875 C 16.6875 -17.453125 15.988281 -17.96875 15.1875 -18.34375 C 14.394531 -18.71875 13.546875 -18.90625 12.640625 -18.90625 C 11.742188 -18.90625 10.894531 -18.71875 10.09375 -18.34375 C 9.300781 -17.96875 8.609375 -17.453125 8.015625 -16.796875 C 7.421875 -16.148438 6.953125 -15.390625 6.609375 -14.515625 C 6.265625 -13.640625 6.09375 -12.707031 6.09375 -11.71875 C 6.09375 -10.726562 6.265625 -9.800781 6.609375 -8.9375 C 6.953125 -8.070312 7.421875 -7.3125 8.015625 -6.65625 C 8.609375 -6.007812 9.300781 -5.5 10.09375 -5.125 C 10.894531 -4.75 11.742188 -4.5625 12.640625 -4.5625 Z M 12.640625 -4.5625 "/></g></g></g><g fill="#000000" fill-opacity="1"><g transform="translate(175.492445, 341.640551)"><g/></g></g><g fill="#000000" fill-opacity="1"><g transform="translate(185.923265, 341.640551)"><g><path d="M 14.828125 -23.46875 L 19.828125 -23.46875 L 19.828125 -8.46875 C 19.828125 -7.300781 19.582031 -6.175781 19.09375 -5.09375 C 18.613281 -4.007812 17.953125 -3.0625 17.109375 -2.25 C 16.273438 -1.4375 15.300781 -0.785156 14.1875 -0.296875 C 13.070312 0.191406 11.875 0.4375 10.59375 0.4375 C 9.332031 0.4375 8.140625 0.191406 7.015625 -0.296875 C 5.890625 -0.785156 4.910156 -1.4375 4.078125 -2.25 C 3.253906 -3.0625 2.597656 -4.007812 2.109375 -5.09375 C 1.628906 -6.175781 1.390625 -7.300781 1.390625 -8.46875 L 1.390625 -23.46875 L 6.390625 -23.46875 L 6.390625 -9.46875 C 6.390625 -8.800781 6.5 -8.175781 6.71875 -7.59375 C 6.9375 -7.007812 7.234375 -6.488281 7.609375 -6.03125 C 7.984375 -5.582031 8.429688 -5.222656 8.953125 -4.953125 C 9.472656 -4.691406 10.019531 -4.5625 10.59375 -4.5625 C 11.1875 -4.5625 11.738281 -4.691406 12.25 -4.953125 C 12.757812 -5.222656 13.207031 -5.582031 13.59375 -6.03125 C 13.976562 -6.488281 14.28125 -7.007812 14.5 -7.59375 C 14.71875 -8.175781 14.828125 -8.800781 14.828125 -9.46875 Z M 14.828125 -23.46875 "/></g></g></g><g fill="#000000" fill-opacity="1"><g transform="translate(208.440252, 341.640551)"><g><path d="M 17.609375 -23.46875 L 22.609375 -23.46875 L 22.609375 0 L 17.84375 0 L 6.5625 -15.328125 L 6.5625 0 L 1.5625 0 L 1.5625 -23.46875 L 6.25 -23.46875 L 17.609375 -8.046875 Z M 17.609375 -23.46875 "/></g></g></g><g fill="#000000" fill-opacity="1"><g transform="translate(233.937378, 341.640551)"><g/></g></g><g fill="#000000" fill-opacity="1"><g transform="translate(244.368186, 341.640551)"><g><path d="M 1.59375 -23.46875 L 16.25 -23.46875 L 16.25 -18.90625 L 6.625 -18.90625 L 6.625 -14.671875 L 15.09375 -14.671875 L 15.09375 -10.09375 L 6.625 -10.09375 L 6.625 -4.53125 L 16.25 -4.53125 L 16.25 0 L 1.59375 0 Z M 1.59375 -23.46875 "/></g></g></g><g fill="#000000" fill-opacity="1"><g transform="translate(263.540776, 341.640551)"><g><path d="M 18.4375 -16.484375 C 18.4375 -15.734375 18.332031 -15.019531 18.125 -14.34375 C 17.914062 -13.675781 17.625 -13.0625 17.25 -12.5 C 16.875 -11.9375 16.421875 -11.4375 15.890625 -11 C 15.359375 -10.570312 14.785156 -10.226562 14.171875 -9.96875 L 21.953125 0 L 16.09375 0 L 8.84375 -9.46875 L 6.59375 -9.46875 L 6.59375 0 L 1.5625 0 L 1.5625 -23.46875 L 11.6875 -23.46875 C 12.613281 -23.46875 13.488281 -23.285156 14.3125 -22.921875 C 15.144531 -22.554688 15.863281 -22.0625 16.46875 -21.4375 C 17.070312 -20.8125 17.550781 -20.070312 17.90625 -19.21875 C 18.257812 -18.363281 18.4375 -17.453125 18.4375 -16.484375 Z M 11.0625 -14.03125 C 11.695312 -14.03125 12.242188 -14.269531 12.703125 -14.75 C 13.171875 -15.226562 13.40625 -15.804688 13.40625 -16.484375 C 13.40625 -17.148438 13.171875 -17.71875 12.703125 -18.1875 C 12.242188 -18.664062 11.695312 -18.90625 11.0625 -18.90625 L 6.59375 -18.90625 L 6.59375 -14.03125 Z M 11.0625 -14.03125 "/></g></g></g><g fill="#000000" fill-opacity="1"><g transform="translate(287.614065, 341.640551)"><g><path d="M 18.4375 -16.484375 C 18.4375 -15.734375 18.332031 -15.019531 18.125 -14.34375 C 17.914062 -13.675781 17.625 -13.0625 17.25 -12.5 C 16.875 -11.9375 16.421875 -11.4375 15.890625 -11 C 15.359375 -10.570312 14.785156 -10.226562 14.171875 -9.96875 L 21.953125 0 L 16.09375 0 L 8.84375 -9.46875 L 6.59375 -9.46875 L 6.59375 0 L 1.5625 0 L 1.5625 -23.46875 L 11.6875 -23.46875 C 12.613281 -23.46875 13.488281 -23.285156 14.3125 -22.921875 C 15.144531 -22.554688 15.863281 -22.0625 16.46875 -21.4375 C 17.070312 -20.8125 17.550781 -20.070312 17.90625 -19.21875 C 18.257812 -18.363281 18.4375 -17.453125 18.4375 -16.484375 Z M 11.0625 -14.03125 C 11.695312 -14.03125 12.242188 -14.269531 12.703125 -14.75 C 13.171875 -15.226562 13.40625 -15.804688 13.40625 -16.484375 C 13.40625 -17.148438 13.171875 -17.71875 12.703125 -18.1875 C 12.242188 -18.664062 11.695312 -18.90625 11.0625 -18.90625 L 6.59375 -18.90625 L 6.59375 -14.03125 Z M 11.0625 -14.03125 "/></g></g></g><g fill="#000000" fill-opacity="1"><g transform="translate(311.687355, 341.640551)"><g><path d="M 12.640625 -23.8125 C 14.234375 -23.8125 15.734375 -23.488281 17.140625 -22.84375 C 18.554688 -22.207031 19.789062 -21.335938 20.84375 -20.234375 C 21.894531 -19.128906 22.722656 -17.847656 23.328125 -16.390625 C 23.929688 -14.929688 24.234375 -13.375 24.234375 -11.71875 C 24.234375 -10.082031 23.929688 -8.523438 23.328125 -7.046875 C 22.722656 -5.566406 21.894531 -4.273438 20.84375 -3.171875 C 19.789062 -2.066406 18.554688 -1.1875 17.140625 -0.53125 C 15.734375 0.113281 14.234375 0.4375 12.640625 0.4375 C 11.054688 0.4375 9.554688 0.113281 8.140625 -0.53125 C 6.734375 -1.1875 5.507812 -2.066406 4.46875 -3.171875 C 3.425781 -4.273438 2.601562 -5.566406 2 -7.046875 C 1.394531 -8.523438 1.09375 -10.082031 1.09375 -11.71875 C 1.09375 -13.375 1.394531 -14.929688 2 -16.390625 C 2.601562 -17.847656 3.425781 -19.128906 4.46875 -20.234375 C 5.507812 -21.335938 6.734375 -22.207031 8.140625 -22.84375 C 9.554688 -23.488281 11.054688 -23.8125 12.640625 -23.8125 Z M 12.640625 -4.5625 C 13.546875 -4.5625 14.394531 -4.75 15.1875 -5.125 C 15.988281 -5.5 16.6875 -6.007812 17.28125 -6.65625 C 17.875 -7.3125 18.34375 -8.070312 18.6875 -8.9375 C 19.03125 -9.800781 19.203125 -10.726562 19.203125 -11.71875 C 19.203125 -12.707031 19.03125 -13.640625 18.6875 -14.515625 C 18.34375 -15.390625 17.875 -16.148438 17.28125 -16.796875 C 16.6875 -17.453125 15.988281 -17.96875 15.1875 -18.34375 C 14.394531 -18.71875 13.546875 -18.90625 12.640625 -18.90625 C 11.742188 -18.90625 10.894531 -18.71875 10.09375 -18.34375 C 9.300781 -17.96875 8.609375 -17.453125 8.015625 -16.796875 C 7.421875 -16.148438 6.953125 -15.390625 6.609375 -14.515625 C 6.265625 -13.640625 6.09375 -12.707031 6.09375 -11.71875 C 6.09375 -10.726562 6.265625 -9.800781 6.609375 -8.9375 C 6.953125 -8.070312 7.421875 -7.3125 8.015625 -6.65625 C 8.609375 -6.007812 9.300781 -5.5 10.09375 -5.125 C 10.894531 -4.75 11.742188 -4.5625 12.640625 -4.5625 Z M 12.640625 -4.5625 "/></g></g></g><g fill="#000000" fill-opacity="1"><g transform="translate(338.343428, 341.640551)"><g><path d="M 18.4375 -16.484375 C 18.4375 -15.734375 18.332031 -15.019531 18.125 -14.34375 C 17.914062 -13.675781 17.625 -13.0625 17.25 -12.5 C 16.875 -11.9375 16.421875 -11.4375 15.890625 -11 C 15.359375 -10.570312 14.785156 -10.226562 14.171875 -9.96875 L 21.953125 0 L 16.09375 0 L 8.84375 -9.46875 L 6.59375 -9.46875 L 6.59375 0 L 1.5625 0 L 1.5625 -23.46875 L 11.6875 -23.46875 C 12.613281 -23.46875 13.488281 -23.285156 14.3125 -22.921875 C 15.144531 -22.554688 15.863281 -22.0625 16.46875 -21.4375 C 17.070312 -20.8125 17.550781 -20.070312 17.90625 -19.21875 C 18.257812 -18.363281 18.4375 -17.453125 18.4375 -16.484375 Z M 11.0625 -14.03125 C 11.695312 -14.03125 12.242188 -14.269531 12.703125 -14.75 C 13.171875 -15.226562 13.40625 -15.804688 13.40625 -16.484375 C 13.40625 -17.148438 13.171875 -17.71875 12.703125 -18.1875 C 12.242188 -18.664062 11.695312 -18.90625 11.0625 -18.90625 L 6.59375 -18.90625 L 6.59375 -14.03125 Z M 11.0625 -14.03125 "/></g></g></g></svg>