<svg xmlns="http://www.w3.org/2000/svg" xmlns:xlink="http://www.w3.org/1999/xlink" width="150" zoomAndPan="magnify" viewBox="0 0 112.5 37.5" height="50" preserveAspectRatio="xMidYMid meet" version="1.0"><defs><g/><clipPath id="c145af518d"><path d="M 0.492188 29 L 6 29 L 6 36 L 0.492188 36 Z M 0.492188 29 " clip-rule="nonzero"/></clipPath></defs><g fill="#2d67fe" fill-opacity="1"><g transform="translate(4.741178, 21.119347)"><g><path d="M 0.609375 -18.546875 L 14.015625 -18.546875 L 14.015625 -14.9375 L 9.28125 -14.9375 L 9.28125 0 L 5.328125 0 L 5.328125 -14.9375 L 0.609375 -14.9375 Z M 0.609375 -18.546875 "/></g></g></g><g fill="#2d67fe" fill-opacity="1"><g transform="translate(20.408377, 21.119347)"><g><path d="M 4.734375 -11.171875 C 4.910156 -11.453125 5.109375 -11.71875 5.328125 -11.96875 C 5.554688 -12.21875 5.828125 -12.441406 6.140625 -12.640625 C 6.460938 -12.847656 6.820312 -13.007812 7.21875 -13.125 C 7.625 -13.25 8.078125 -13.3125 8.578125 -13.3125 C 9.171875 -13.3125 9.859375 -13.207031 10.640625 -13 L 10.3125 -9.78125 C 10.113281 -9.8125 9.921875 -9.851562 9.734375 -9.90625 C 9.578125 -9.945312 9.398438 -9.976562 9.203125 -10 C 9.015625 -10.03125 8.84375 -10.046875 8.6875 -10.046875 C 8.125 -10.046875 7.601562 -9.96875 7.125 -9.8125 C 6.644531 -9.65625 6.226562 -9.4375 5.875 -9.15625 C 5.53125 -8.875 5.253906 -8.535156 5.046875 -8.140625 C 4.835938 -7.753906 4.734375 -7.332031 4.734375 -6.875 L 4.734375 0 L 1.125 0 L 1.125 -12.96875 L 4.390625 -12.96875 Z M 4.734375 -11.171875 "/></g></g></g><g fill="#2d67fe" fill-opacity="1"><g transform="translate(32.230757, 21.119347)"><g><path d="M 5.09375 0 L 1.484375 0 L 1.484375 -12.96875 L 5.09375 -12.96875 Z M 3.296875 -14.75 C 2.734375 -14.75 2.257812 -14.941406 1.875 -15.328125 C 1.5 -15.710938 1.3125 -16.179688 1.3125 -16.734375 C 1.3125 -17.296875 1.5 -17.769531 1.875 -18.15625 C 2.257812 -18.550781 2.734375 -18.75 3.296875 -18.75 C 3.847656 -18.75 4.316406 -18.550781 4.703125 -18.15625 C 5.085938 -17.769531 5.28125 -17.296875 5.28125 -16.734375 C 5.28125 -16.179688 5.085938 -15.710938 4.703125 -15.328125 C 4.316406 -14.941406 3.847656 -14.75 3.296875 -14.75 Z M 3.296875 -14.75 "/></g></g></g><g fill="#2d67fe" fill-opacity="1"><g transform="translate(39.894464, 21.119347)"><g><path d="M 12.640625 -18.546875 L 20.375 0 L 16.09375 0 L 14.40625 -3.96875 L 6.53125 -3.96875 L 4.890625 0 L 0.578125 0 L 8.3125 -18.546875 Z M 12.921875 -7.578125 L 10.484375 -13.421875 L 8.0625 -7.578125 Z M 12.921875 -7.578125 "/></g></g></g><g fill="#2d67fe" fill-opacity="1"><g transform="translate(61.891218, 21.119347)"><g><path d="M 7.984375 -18.546875 L 7.984375 -15.203125 L 6.59375 -15.203125 L 6.59375 -3.328125 L 7.984375 -3.328125 L 7.984375 0 L 1.234375 0 L 1.234375 -3.328125 L 2.609375 -3.328125 L 2.609375 -15.203125 L 1.234375 -15.203125 L 1.234375 -18.546875 Z M 7.984375 -18.546875 "/></g></g></g><g fill="#2d67fe" fill-opacity="1"><g transform="translate(72.118133, 21.119347)"><g><path d="M 11.359375 -12.96875 L 14.4375 -12.96875 L 14.4375 -4.390625 C 14.4375 -3.398438 14.421875 -2.515625 14.390625 -1.734375 C 14.367188 -0.960938 14.304688 -0.269531 14.203125 0.34375 C 14.097656 0.96875 13.925781 1.523438 13.6875 2.015625 C 13.457031 2.503906 13.132812 2.957031 12.71875 3.375 C 11.945312 4.125 11.082031 4.632812 10.125 4.90625 C 9.175781 5.1875 8.179688 5.328125 7.140625 5.328125 C 6.253906 5.328125 5.414062 5.222656 4.625 5.015625 C 3.84375 4.804688 3.140625 4.519531 2.515625 4.15625 L 2.515625 0.78125 C 2.671875 1.03125 2.890625 1.25 3.171875 1.4375 C 3.460938 1.625 3.796875 1.785156 4.171875 1.921875 C 4.546875 2.066406 4.945312 2.175781 5.375 2.25 C 5.800781 2.332031 6.234375 2.375 6.671875 2.375 C 7.242188 2.375 7.78125 2.300781 8.28125 2.15625 C 8.789062 2.007812 9.234375 1.769531 9.609375 1.4375 C 9.984375 1.101562 10.28125 0.6875 10.5 0.1875 C 10.71875 -0.300781 10.828125 -0.90625 10.828125 -1.625 L 10.828125 -1.890625 C 10.316406 -1.429688 9.726562 -1.066406 9.0625 -0.796875 C 8.40625 -0.523438 7.6875 -0.390625 6.90625 -0.390625 C 6.03125 -0.390625 5.222656 -0.554688 4.484375 -0.890625 C 3.742188 -1.234375 3.101562 -1.695312 2.5625 -2.28125 C 2.019531 -2.875 1.597656 -3.566406 1.296875 -4.359375 C 0.992188 -5.148438 0.84375 -5.988281 0.84375 -6.875 C 0.84375 -7.769531 0.992188 -8.609375 1.296875 -9.390625 C 1.597656 -10.171875 2.019531 -10.851562 2.5625 -11.4375 C 3.101562 -12.019531 3.742188 -12.484375 4.484375 -12.828125 C 5.222656 -13.171875 6.03125 -13.34375 6.90625 -13.34375 C 7.726562 -13.34375 8.46875 -13.234375 9.125 -13.015625 C 9.789062 -12.796875 10.359375 -12.453125 10.828125 -11.984375 Z M 7.640625 -3.609375 C 8.191406 -3.609375 8.664062 -3.707031 9.0625 -3.90625 C 9.46875 -4.113281 9.800781 -4.375 10.0625 -4.6875 C 10.332031 -5 10.523438 -5.34375 10.640625 -5.71875 C 10.765625 -6.101562 10.828125 -6.484375 10.828125 -6.859375 C 10.828125 -7.253906 10.757812 -7.644531 10.625 -8.03125 C 10.5 -8.425781 10.304688 -8.773438 10.046875 -9.078125 C 9.785156 -9.390625 9.453125 -9.640625 9.046875 -9.828125 C 8.648438 -10.023438 8.179688 -10.125 7.640625 -10.125 C 7.179688 -10.125 6.757812 -10.035156 6.375 -9.859375 C 6 -9.679688 5.664062 -9.441406 5.375 -9.140625 C 5.082031 -8.847656 4.851562 -8.503906 4.6875 -8.109375 C 4.53125 -7.722656 4.453125 -7.304688 4.453125 -6.859375 C 4.453125 -6.398438 4.53125 -5.972656 4.6875 -5.578125 C 4.851562 -5.191406 5.082031 -4.847656 5.375 -4.546875 C 5.664062 -4.253906 6 -4.023438 6.375 -3.859375 C 6.757812 -3.691406 7.179688 -3.609375 7.640625 -3.609375 Z M 7.640625 -3.609375 "/></g></g></g><g fill="#2d67fe" fill-opacity="1"><g transform="translate(88.674606, 21.119347)"><g><path d="M 7.578125 -13.34375 C 8.554688 -13.34375 9.445312 -13.144531 10.25 -12.75 C 11.050781 -12.351562 11.738281 -11.835938 12.3125 -11.203125 C 12.894531 -10.566406 13.34375 -9.832031 13.65625 -9 C 13.96875 -8.175781 14.125 -7.328125 14.125 -6.453125 C 14.125 -5.929688 14.054688 -5.375 13.921875 -4.78125 L 4.65625 -4.78125 C 5 -4.1875 5.492188 -3.6875 6.140625 -3.28125 C 6.785156 -2.875 7.484375 -2.671875 8.234375 -2.671875 C 8.984375 -2.671875 9.640625 -2.726562 10.203125 -2.84375 C 10.773438 -2.96875 11.316406 -3.128906 11.828125 -3.328125 L 13.03125 -1.09375 C 12.382812 -0.644531 11.644531 -0.296875 10.8125 -0.046875 C 9.988281 0.191406 9.101562 0.3125 8.15625 0.3125 C 7.132812 0.3125 6.175781 0.132812 5.28125 -0.21875 C 4.394531 -0.582031 3.617188 -1.066406 2.953125 -1.671875 C 2.296875 -2.285156 1.773438 -3.007812 1.390625 -3.84375 C 1.003906 -4.675781 0.8125 -5.566406 0.8125 -6.515625 C 0.8125 -7.441406 0.984375 -8.316406 1.328125 -9.140625 C 1.679688 -9.972656 2.164062 -10.695312 2.78125 -11.3125 C 3.40625 -11.925781 4.125 -12.414062 4.9375 -12.78125 C 5.757812 -13.15625 6.640625 -13.34375 7.578125 -13.34375 Z M 10.546875 -7.578125 C 10.335938 -8.328125 9.960938 -8.9375 9.421875 -9.40625 C 8.878906 -9.882812 8.265625 -10.125 7.578125 -10.125 C 6.878906 -10.125 6.25 -9.882812 5.6875 -9.40625 C 5.125 -8.9375 4.738281 -8.328125 4.53125 -7.578125 Z M 10.546875 -7.578125 "/></g></g></g><g clip-path="url(#c145af518d)"><g fill="#2d66fd" fill-opacity="1"><g transform="translate(0.493421, 35.115536)"><g><path d="M 0.9375 0 L 0.078125 0 L 2.28125 -5.296875 L 3.140625 -5.296875 L 5.34375 0 L 4.5 0 L 3.8125 -1.65625 L 1.625 -1.65625 Z M 1.921875 -2.375 L 3.515625 -2.375 L 2.71875 -4.28125 Z M 1.921875 -2.375 "/></g></g></g></g><g fill="#2d66fd" fill-opacity="1"><g transform="translate(8.683423, 35.115536)"><g><path d="M 3.953125 -1.484375 C 3.953125 -1.265625 3.90625 -1.054688 3.8125 -0.859375 C 3.726562 -0.671875 3.597656 -0.503906 3.421875 -0.359375 C 3.078125 -0.0664062 2.632812 0.078125 2.09375 0.078125 C 1.675781 0.078125 1.296875 -0.00390625 0.953125 -0.171875 C 0.617188 -0.347656 0.375 -0.582031 0.21875 -0.875 L 0.875 -1.21875 C 0.976562 -1.039062 1.140625 -0.898438 1.359375 -0.796875 C 1.578125 -0.703125 1.820312 -0.65625 2.09375 -0.65625 C 2.820312 -0.65625 3.1875 -0.929688 3.1875 -1.484375 C 3.1875 -1.585938 3.164062 -1.675781 3.125 -1.75 C 3.082031 -1.820312 3.023438 -1.894531 2.953125 -1.96875 C 2.773438 -2.113281 2.457031 -2.25 2 -2.375 C 1.71875 -2.4375 1.476562 -2.507812 1.28125 -2.59375 C 1.09375 -2.675781 0.929688 -2.773438 0.796875 -2.890625 C 0.484375 -3.148438 0.328125 -3.488281 0.328125 -3.90625 C 0.328125 -4.113281 0.367188 -4.304688 0.453125 -4.484375 C 0.535156 -4.671875 0.648438 -4.832031 0.796875 -4.96875 C 0.953125 -5.101562 1.132812 -5.203125 1.34375 -5.265625 C 1.550781 -5.335938 1.78125 -5.375 2.03125 -5.375 C 2.382812 -5.375 2.710938 -5.300781 3.015625 -5.15625 C 3.328125 -5.019531 3.566406 -4.828125 3.734375 -4.578125 L 3.125 -4.203125 C 2.976562 -4.367188 2.8125 -4.488281 2.625 -4.5625 C 2.4375 -4.632812 2.238281 -4.671875 2.03125 -4.671875 C 1.875 -4.671875 1.734375 -4.644531 1.609375 -4.59375 C 1.484375 -4.550781 1.378906 -4.492188 1.296875 -4.421875 C 1.222656 -4.359375 1.171875 -4.285156 1.140625 -4.203125 C 1.109375 -4.117188 1.09375 -4.023438 1.09375 -3.921875 C 1.09375 -3.859375 1.101562 -3.789062 1.125 -3.71875 C 1.144531 -3.65625 1.191406 -3.585938 1.265625 -3.515625 C 1.335938 -3.441406 1.445312 -3.367188 1.59375 -3.296875 C 1.738281 -3.234375 1.9375 -3.171875 2.1875 -3.109375 C 2.488281 -3.035156 2.738281 -2.953125 2.9375 -2.859375 C 3.144531 -2.773438 3.316406 -2.671875 3.453125 -2.546875 C 3.785156 -2.285156 3.953125 -1.929688 3.953125 -1.484375 Z M 3.953125 -1.484375 "/></g></g></g><g fill="#2d66fd" fill-opacity="1"><g transform="translate(15.737737, 35.115536)"><g><path d="M 1.859375 -4.65625 L 1.859375 -0.640625 L 2.234375 -0.640625 L 2.234375 0 L 0.671875 0 L 0.671875 -0.640625 L 1.078125 -0.640625 L 1.078125 -4.65625 L 0.671875 -4.65625 L 0.671875 -5.296875 L 2.234375 -5.296875 L 2.234375 -4.65625 Z M 1.859375 -4.65625 "/></g></g></g><g fill="#2d66fd" fill-opacity="1"><g transform="translate(21.394848, 35.115536)"><g><path d="M 3.953125 -1.484375 C 3.953125 -1.265625 3.90625 -1.054688 3.8125 -0.859375 C 3.726562 -0.671875 3.597656 -0.503906 3.421875 -0.359375 C 3.078125 -0.0664062 2.632812 0.078125 2.09375 0.078125 C 1.675781 0.078125 1.296875 -0.00390625 0.953125 -0.171875 C 0.617188 -0.347656 0.375 -0.582031 0.21875 -0.875 L 0.875 -1.21875 C 0.976562 -1.039062 1.140625 -0.898438 1.359375 -0.796875 C 1.578125 -0.703125 1.820312 -0.65625 2.09375 -0.65625 C 2.820312 -0.65625 3.1875 -0.929688 3.1875 -1.484375 C 3.1875 -1.585938 3.164062 -1.675781 3.125 -1.75 C 3.082031 -1.820312 3.023438 -1.894531 2.953125 -1.96875 C 2.773438 -2.113281 2.457031 -2.25 2 -2.375 C 1.71875 -2.4375 1.476562 -2.507812 1.28125 -2.59375 C 1.09375 -2.675781 0.929688 -2.773438 0.796875 -2.890625 C 0.484375 -3.148438 0.328125 -3.488281 0.328125 -3.90625 C 0.328125 -4.113281 0.367188 -4.304688 0.453125 -4.484375 C 0.535156 -4.671875 0.648438 -4.832031 0.796875 -4.96875 C 0.953125 -5.101562 1.132812 -5.203125 1.34375 -5.265625 C 1.550781 -5.335938 1.78125 -5.375 2.03125 -5.375 C 2.382812 -5.375 2.710938 -5.300781 3.015625 -5.15625 C 3.328125 -5.019531 3.566406 -4.828125 3.734375 -4.578125 L 3.125 -4.203125 C 2.976562 -4.367188 2.8125 -4.488281 2.625 -4.5625 C 2.4375 -4.632812 2.238281 -4.671875 2.03125 -4.671875 C 1.875 -4.671875 1.734375 -4.644531 1.609375 -4.59375 C 1.484375 -4.550781 1.378906 -4.492188 1.296875 -4.421875 C 1.222656 -4.359375 1.171875 -4.285156 1.140625 -4.203125 C 1.109375 -4.117188 1.09375 -4.023438 1.09375 -3.921875 C 1.09375 -3.859375 1.101562 -3.789062 1.125 -3.71875 C 1.144531 -3.65625 1.191406 -3.585938 1.265625 -3.515625 C 1.335938 -3.441406 1.445312 -3.367188 1.59375 -3.296875 C 1.738281 -3.234375 1.9375 -3.171875 2.1875 -3.109375 C 2.488281 -3.035156 2.738281 -2.953125 2.9375 -2.859375 C 3.144531 -2.773438 3.316406 -2.671875 3.453125 -2.546875 C 3.785156 -2.285156 3.953125 -1.929688 3.953125 -1.484375 Z M 3.953125 -1.484375 "/></g></g></g><g fill="#2d66fd" fill-opacity="1"><g transform="translate(28.449161, 35.115536)"><g><path d="M 1.46875 -4.59375 L 0.03125 -4.59375 L 0.03125 -5.296875 L 3.6875 -5.296875 L 3.6875 -4.59375 L 2.25 -4.59375 L 2.25 0 L 1.46875 0 Z M 1.46875 -4.59375 "/></g></g></g><g fill="#2d66fd" fill-opacity="1"><g transform="translate(35.07012, 35.115536)"><g><path d="M 3.65625 -5.296875 L 3.65625 -4.59375 L 1.1875 -4.59375 L 1.1875 -3.15625 L 3.390625 -3.15625 L 3.390625 -2.421875 L 1.1875 -2.421875 L 1.1875 -0.71875 L 3.65625 -0.71875 L 3.65625 0 L 0.421875 0 L 0.421875 -5.296875 Z M 3.65625 -5.296875 "/></g></g></g><g fill="#2d66fd" fill-opacity="1"><g transform="translate(41.892808, 35.115536)"><g><path d="M 4.984375 -5.296875 L 4.984375 0 L 4.1875 0 L 1.234375 -4.0625 L 1.234375 0 L 0.421875 0 L 0.421875 -5.296875 L 1.234375 -5.296875 L 4.203125 -1.203125 L 4.203125 -5.296875 Z M 4.984375 -5.296875 "/></g></g></g><g fill="#2d66fd" fill-opacity="1"><g transform="translate(50.030511, 35.115536)"><g><path d="M 1.46875 -4.59375 L 0.03125 -4.59375 L 0.03125 -5.296875 L 3.6875 -5.296875 L 3.6875 -4.59375 L 2.25 -4.59375 L 2.25 0 L 1.46875 0 Z M 1.46875 -4.59375 "/></g></g></g><g fill="#2d66fd" fill-opacity="1"><g transform="translate(56.65147, 35.115536)"><g><path d="M 3.65625 -5.296875 L 3.65625 -4.59375 L 1.1875 -4.59375 L 1.1875 -3.15625 L 3.390625 -3.15625 L 3.390625 -2.421875 L 1.1875 -2.421875 L 1.1875 -0.71875 L 3.65625 -0.71875 L 3.65625 0 L 0.421875 0 L 0.421875 -5.296875 Z M 3.65625 -5.296875 "/></g></g></g><g fill="#2d66fd" fill-opacity="1"><g transform="translate(63.474158, 35.115536)"><g/></g></g><g fill="#2d66fd" fill-opacity="1"><g transform="translate(68.14501, 35.115536)"><g><path d="M 4.921875 -5.296875 L 5.71875 -5.296875 L 5.71875 0 L 4.9375 0 L 4.9375 -4.0625 L 3.390625 -1.9375 L 2.78125 -1.9375 L 1.234375 -4.0625 L 1.234375 0 L 0.453125 0 L 0.453125 -5.296875 L 1.234375 -5.296875 L 3.078125 -2.75 Z M 4.921875 -5.296875 "/></g></g></g><g fill="#2d66fd" fill-opacity="1"><g transform="translate(77.02988, 35.115536)"><g><path d="M 3.65625 -5.296875 L 3.65625 -4.59375 L 1.1875 -4.59375 L 1.1875 -3.15625 L 3.390625 -3.15625 L 3.390625 -2.421875 L 1.1875 -2.421875 L 1.1875 -0.71875 L 3.65625 -0.71875 L 3.65625 0 L 0.421875 0 L 0.421875 -5.296875 Z M 2.546875 -6.984375 L 2.125 -5.65625 L 1.546875 -5.65625 L 1.71875 -6.984375 Z M 2.546875 -6.984375 "/></g></g></g><g fill="#2d66fd" fill-opacity="1"><g transform="translate(83.852568, 35.115536)"><g><path d="M 0.453125 0 L 0.453125 -5.296875 L 2.328125 -5.296875 C 2.710938 -5.296875 3.050781 -5.222656 3.34375 -5.078125 C 3.632812 -4.941406 3.878906 -4.753906 4.078125 -4.515625 C 4.273438 -4.273438 4.425781 -3.992188 4.53125 -3.671875 C 4.632812 -3.347656 4.6875 -3.003906 4.6875 -2.640625 C 4.6875 -2.273438 4.628906 -1.929688 4.515625 -1.609375 C 4.410156 -1.285156 4.265625 -1.003906 4.078125 -0.765625 C 3.890625 -0.523438 3.664062 -0.335938 3.40625 -0.203125 C 3.144531 -0.0664062 2.863281 0 2.5625 0 Z M 2.296875 -0.71875 C 2.578125 -0.71875 2.816406 -0.769531 3.015625 -0.875 C 3.222656 -0.976562 3.390625 -1.117188 3.515625 -1.296875 C 3.648438 -1.472656 3.742188 -1.675781 3.796875 -1.90625 C 3.859375 -2.144531 3.890625 -2.390625 3.890625 -2.640625 C 3.890625 -2.898438 3.859375 -3.144531 3.796875 -3.375 C 3.742188 -3.613281 3.648438 -3.820312 3.515625 -4 C 3.390625 -4.175781 3.222656 -4.316406 3.015625 -4.421875 C 2.816406 -4.535156 2.578125 -4.59375 2.296875 -4.59375 L 1.234375 -4.59375 L 1.234375 -0.71875 Z M 2.296875 -0.71875 "/></g></g></g><g fill="#2d66fd" fill-opacity="1"><g transform="translate(91.639103, 35.115536)"><g><path d="M 1.859375 -4.65625 L 1.859375 -0.640625 L 2.234375 -0.640625 L 2.234375 0 L 0.671875 0 L 0.671875 -0.640625 L 1.078125 -0.640625 L 1.078125 -4.65625 L 0.671875 -4.65625 L 0.671875 -5.296875 L 2.234375 -5.296875 L 2.234375 -4.65625 Z M 1.859375 -4.65625 "/></g></g></g><g fill="#2d66fd" fill-opacity="1"><g transform="translate(97.296215, 35.115536)"><g><path d="M 2.90625 -0.65625 C 3.195312 -0.65625 3.460938 -0.722656 3.703125 -0.859375 C 3.953125 -0.992188 4.164062 -1.175781 4.34375 -1.40625 L 4.890625 -0.890625 C 4.648438 -0.609375 4.359375 -0.375 4.015625 -0.1875 C 3.671875 -0.0078125 3.300781 0.078125 2.90625 0.078125 C 2.550781 0.078125 2.210938 0.00390625 1.890625 -0.140625 C 1.578125 -0.285156 1.300781 -0.476562 1.0625 -0.71875 C 0.832031 -0.96875 0.648438 -1.257812 0.515625 -1.59375 C 0.378906 -1.925781 0.3125 -2.273438 0.3125 -2.640625 C 0.3125 -3.015625 0.378906 -3.363281 0.515625 -3.6875 C 0.648438 -4.019531 0.832031 -4.304688 1.0625 -4.546875 C 1.300781 -4.796875 1.578125 -4.992188 1.890625 -5.140625 C 2.210938 -5.285156 2.550781 -5.359375 2.90625 -5.359375 C 3.238281 -5.359375 3.550781 -5.289062 3.84375 -5.15625 C 4.144531 -5.03125 4.414062 -4.859375 4.65625 -4.640625 L 4.1875 -4.0625 C 4.019531 -4.226562 3.828125 -4.367188 3.609375 -4.484375 C 3.390625 -4.597656 3.15625 -4.65625 2.90625 -4.65625 C 2.65625 -4.65625 2.414062 -4.597656 2.1875 -4.484375 C 1.96875 -4.378906 1.773438 -4.234375 1.609375 -4.046875 C 1.453125 -3.867188 1.320312 -3.660156 1.21875 -3.421875 C 1.125 -3.179688 1.078125 -2.921875 1.078125 -2.640625 C 1.078125 -2.367188 1.125 -2.113281 1.21875 -1.875 C 1.320312 -1.632812 1.453125 -1.421875 1.609375 -1.234375 C 1.773438 -1.054688 1.96875 -0.914062 2.1875 -0.8125 C 2.414062 -0.707031 2.65625 -0.65625 2.90625 -0.65625 Z M 2.90625 -0.65625 "/></g></g></g><g fill="#2d66fd" fill-opacity="1"><g transform="translate(105.142526, 35.115536)"><g><path d="M 2.875 -5.375 C 3.226562 -5.375 3.566406 -5.300781 3.890625 -5.15625 C 4.210938 -5.007812 4.488281 -4.8125 4.71875 -4.5625 C 4.957031 -4.320312 5.144531 -4.035156 5.28125 -3.703125 C 5.425781 -3.367188 5.5 -3.019531 5.5 -2.65625 C 5.5 -2.28125 5.425781 -1.925781 5.28125 -1.59375 C 5.144531 -1.269531 4.957031 -0.984375 4.71875 -0.734375 C 4.476562 -0.484375 4.195312 -0.285156 3.875 -0.140625 C 3.5625 -0.00390625 3.226562 0.0625 2.875 0.0625 C 2.507812 0.0625 2.164062 -0.00390625 1.84375 -0.140625 C 1.53125 -0.285156 1.253906 -0.484375 1.015625 -0.734375 C 0.785156 -0.984375 0.597656 -1.269531 0.453125 -1.59375 C 0.316406 -1.925781 0.25 -2.28125 0.25 -2.65625 C 0.25 -3.019531 0.316406 -3.367188 0.453125 -3.703125 C 0.597656 -4.035156 0.785156 -4.320312 1.015625 -4.5625 C 1.253906 -4.8125 1.535156 -5.007812 1.859375 -5.15625 C 2.179688 -5.300781 2.519531 -5.375 2.875 -5.375 Z M 2.875 -0.671875 C 3.125 -0.671875 3.359375 -0.722656 3.578125 -0.828125 C 3.804688 -0.929688 4 -1.070312 4.15625 -1.25 C 4.320312 -1.425781 4.453125 -1.632812 4.546875 -1.875 C 4.648438 -2.113281 4.703125 -2.375 4.703125 -2.65625 C 4.703125 -2.925781 4.648438 -3.179688 4.546875 -3.421875 C 4.453125 -3.660156 4.320312 -3.867188 4.15625 -4.046875 C 4 -4.222656 3.804688 -4.363281 3.578125 -4.46875 C 3.359375 -4.570312 3.125 -4.625 2.875 -4.625 C 2.625 -4.625 2.382812 -4.570312 2.15625 -4.46875 C 1.9375 -4.363281 1.742188 -4.222656 1.578125 -4.046875 C 1.421875 -3.867188 1.289062 -3.660156 1.1875 -3.421875 C 1.09375 -3.179688 1.046875 -2.925781 1.046875 -2.65625 C 1.046875 -2.375 1.09375 -2.113281 1.1875 -1.875 C 1.289062 -1.632812 1.421875 -1.425781 1.578125 -1.25 C 1.742188 -1.070312 1.9375 -0.929688 2.15625 -0.828125 C 2.382812 -0.722656 2.625 -0.671875 2.875 -0.671875 Z M 2.875 -0.671875 "/></g></g></g></svg>