<svg xmlns="http://www.w3.org/2000/svg" xmlns:xlink="http://www.w3.org/1999/xlink" width="500" zoomAndPan="magnify" viewBox="0 0 375 374.999991" height="500" preserveAspectRatio="xMidYMid meet" version="1.0"><defs><filter x="0%" y="0%" width="100%" height="100%" id="fd9b692ebe"><feColorMatrix values="0 0 0 0 1 0 0 0 0 1 0 0 0 0 1 0 0 0 1 0" color-interpolation-filters="sRGB"/></filter><g/><mask id="2949661b1b"><g filter="url(#fd9b692ebe)"><rect x="-37.5" width="450" fill="#000000" y="-37.499999" height="449.999989" fill-opacity="0.5882"/></g></mask><clipPath id="aaa53f9479"><path d="M 0.695312 31 L 101.945312 31 L 101.945312 178.699219 L 0.695312 178.699219 Z M 0.695312 31 " clip-rule="nonzero"/></clipPath><clipPath id="9f3a424181"><path d="M 29 32 L 101.945312 32 L 101.945312 178 L 29 178 Z M 29 32 " clip-rule="nonzero"/></clipPath><clipPath id="9d4d95366a"><rect x="0" width="103" y="0" height="180"/></clipPath><mask id="5f65f5b3e0"><g filter="url(#fd9b692ebe)"><rect x="-37.5" width="450" fill="#000000" y="-37.499999" height="449.999989" fill-opacity="0.2588"/></g></mask><clipPath id="78f3db8529"><rect x="0" width="326" y="0" height="144"/></clipPath><mask id="ebaeff4a33"><g filter="url(#fd9b692ebe)"><rect x="-37.5" width="450" fill="#000000" y="-37.499999" height="449.999989" fill-opacity="0.2588"/></g></mask><clipPath id="fba93bed74"><rect x="0" width="252" y="0" height="26"/></clipPath></defs><rect x="-37.5" width="450" fill="#ffffff" y="-37.499999" height="449.999989" fill-opacity="1"/><rect x="-37.5" width="450" fill="#ffffff" y="-37.499999" height="449.999989" fill-opacity="1"/><rect x="-37.5" width="450" fill="#ffffff" y="-37.499999" height="449.999989" fill-opacity="1"/><g mask="url(#2949661b1b)"><g transform="matrix(1, 0, 0, 1, 263, 124)"><g clip-path="url(#9d4d95366a)"><path fill="#231f20" d="M 16.46875 14.636719 C 15.480469 15.808594 15.113281 16.875 15.378906 17.804688 C 15.703125 18.949219 16.886719 19.527344 17.394531 19.730469 C 16.90625 20.792969 16.910156 21.757812 17.414062 22.605469 C 19.292969 25.757812 27.574219 26.171875 29.074219 26.222656 L 28.929688 28.554688 L 29.214844 28.472656 C 36.347656 26.453125 36.203125 22.976562 36.074219 19.910156 C 36.039062 19.027344 36.003906 18.1875 36.125 17.386719 C 36.691406 13.632812 32.792969 3.21875 30.691406 1.695312 C 29.246094 0.648438 28.144531 1.304688 26.472656 2.292969 C 25.613281 2.804688 24.546875 3.4375 23.167969 3.992188 C 19.667969 5.40625 19.628906 7.863281 19.703125 8.601562 L 17.699219 9.019531 C 16.828125 9.203125 16.066406 9.671875 15.554688 10.34375 C 15.089844 10.953125 14.902344 11.605469 15 12.285156 C 15.167969 13.425781 16.078125 14.304688 16.46875 14.636719 Z M 16.46875 14.636719 " fill-opacity="1" fill-rule="nonzero"/><path fill="#231f20" d="M 29.136719 33.097656 L 28.808594 32.871094 L 28.808594 41.257812 L 31.4375 43.347656 C 31.871094 43.6875 32.402344 43.871094 32.941406 43.871094 C 33.179688 43.871094 33.417969 43.835938 33.652344 43.761719 C 34.402344 43.53125 34.964844 42.980469 35.199219 42.242188 C 36.484375 38.167969 29.4375 33.300781 29.136719 33.097656 Z M 29.136719 33.097656 " fill-opacity="1" fill-rule="nonzero"/><g clip-path="url(#aaa53f9479)"><path fill="#231f20" d="M 101.578125 157.839844 C 101.140625 154.175781 98.621094 150.273438 93.875 145.917969 C 87.746094 140.285156 87.390625 137.015625 87.128906 134.632812 C 86.972656 133.199219 86.839844 131.960938 85.535156 130.710938 C 84.253906 129.480469 83.75 128.78125 83.261719 128.109375 C 82.460938 127 81.707031 125.953125 77.78125 122.8125 C 77.402344 122.511719 77.058594 122.234375 76.746094 121.984375 C 73.457031 119.363281 73.457031 119.363281 72.871094 117.5 C 72.578125 116.566406 72.132812 115.152344 71.085938 112.753906 C 68.714844 107.320312 62.511719 102.28125 58.808594 99.273438 C 57.585938 98.28125 56.433594 97.34375 56.324219 97.078125 C 56.460938 96.570312 58.367188 95.605469 60.210938 94.667969 C 61.066406 94.234375 61.953125 93.785156 62.832031 93.308594 C 64.0625 92.632812 64.78125 92.660156 65.695312 92.6875 C 67.007812 92.730469 68.640625 92.78125 72.398438 90.773438 C 78.757812 87.378906 87.273438 75.746094 89.246094 70.238281 C 89.683594 69.027344 90.183594 67.820312 90.667969 66.65625 C 92.421875 62.441406 94.238281 58.082031 93.90625 51.566406 C 93.507812 43.769531 90.726562 41.191406 86.875 37.628906 C 86.574219 37.351562 86.269531 37.070312 85.957031 36.777344 C 83.554688 34.53125 80.164062 32.949219 76.136719 32.199219 C 71.4375 31.324219 66.152344 31.617188 60.425781 33.066406 C 49.4375 35.84375 41.84375 44.238281 38.191406 48.269531 C 37.769531 48.738281 37.402344 49.144531 37.097656 49.460938 C 35.25 51.402344 35.167969 52.546875 35.09375 53.652344 C 35.046875 54.265625 35.007812 54.84375 34.667969 55.574219 C 34.554688 55.816406 34.402344 55.859375 34.300781 55.871094 C 33.09375 56 30.199219 52.519531 29.1875 51.167969 L 28.800781 50.65625 L 29.484375 130.152344 C 28.304688 130.257812 27 130.796875 25.9375 131.234375 C 25.289062 131.5 24.726562 131.730469 24.304688 131.832031 C 24.222656 131.847656 24.136719 131.867188 24.042969 131.886719 C 23.078125 132.097656 21.472656 132.449219 20.796875 133.605469 C 20.445312 134.21875 20.402344 134.976562 20.675781 135.855469 C 21.347656 138.003906 26.554688 137.804688 30.355469 137.660156 C 31.730469 137.605469 33.277344 137.546875 33.625 137.691406 C 33.472656 137.800781 32.84375 138.097656 30.375 138.414062 C 28.738281 138.625 26.796875 138.773438 25.664062 138.773438 C 25.28125 138.773438 24.285156 138.675781 22.910156 138.542969 C 16.660156 137.929688 3.660156 136.664062 1.203125 139.621094 C 0.789062 140.121094 0.679688 140.714844 0.875 141.390625 C 1.8125 144.621094 7.140625 144.472656 11.839844 144.339844 C 15.03125 144.246094 18.046875 144.164062 18.976562 145.164062 C 19.207031 145.410156 19.300781 145.714844 19.261719 146.097656 C 18.925781 149.453125 20.617188 151.203125 21.851562 152.484375 C 22.382812 153.035156 22.84375 153.511719 23.027344 153.988281 C 24.101562 156.757812 25.558594 158.425781 27.472656 159.085938 C 28.644531 159.496094 29.25 160.839844 29.832031 162.140625 C 30.40625 163.417969 30.945312 164.621094 32.003906 164.820312 C 33.074219 165.027344 33.457031 165.0625 33.824219 165.101562 C 34.128906 165.132812 34.417969 165.164062 35.101562 165.292969 C 36.535156 165.558594 46.316406 162.84375 47.9375 162.390625 C 48.21875 163.5 49.675781 168.328125 53.816406 169.234375 C 54.441406 169.371094 55.101562 169.507812 55.796875 169.652344 C 59.949219 170.519531 65.113281 171.597656 65.917969 173.207031 C 66.621094 174.613281 70.683594 175.917969 72.398438 176.410156 C 75.925781 177.429688 79.9375 178.117188 83.128906 178.25 C 83.355469 178.261719 83.574219 178.265625 83.792969 178.265625 C 89.410156 178.265625 91.953125 175.117188 96.066406 170.023438 C 96.613281 169.34375 97.183594 168.636719 97.796875 167.894531 C 100.769531 164.296875 101.96875 161.101562 101.578125 157.839844 Z M 101.578125 157.839844 " fill-opacity="1" fill-rule="nonzero"/></g><path fill="#e29578" d="M 47.609375 57.101562 C 47.523438 57.710938 47.390625 58.339844 47.203125 58.988281 L 47.191406 59.019531 C 47.160156 59.132812 47.125 59.246094 47.085938 59.363281 C 46.871094 60.042969 46.59375 60.753906 46.261719 61.476562 L 46.238281 61.523438 C 46.195312 61.617188 46.152344 61.710938 46.105469 61.804688 C 45.515625 63.046875 44.753906 64.355469 43.839844 65.695312 L 43.640625 65.992188 C 43.425781 66.296875 43.25 66.546875 43.078125 66.78125 C 43 66.886719 42.921875 66.996094 42.84375 67.101562 C 42.617188 67.40625 42.378906 67.71875 42.117188 68.054688 C 41.917969 68.304688 41.722656 68.550781 41.527344 68.792969 C 39.253906 71.582031 37.007812 73.730469 36.148438 74.523438 C 36.234375 73.871094 36.417969 73.132812 36.6875 72.339844 C 36.722656 72.238281 36.761719 72.136719 36.796875 72.03125 C 36.859375 71.863281 36.925781 71.6875 36.996094 71.511719 C 37.011719 71.46875 37.027344 71.429688 37.046875 71.386719 L 37.050781 71.371094 C 38.628906 67.480469 41.984375 62.542969 45.808594 58.765625 C 45.996094 58.574219 46.191406 58.390625 46.382812 58.207031 C 46.792969 57.820312 47.203125 57.453125 47.609375 57.101562 Z M 47.609375 57.101562 " fill-opacity="1" fill-rule="nonzero"/><path fill="#231f20" d="M 63.195312 53.128906 C 65.3125 55.363281 68.539062 59.152344 68.320312 59.957031 C 68.3125 59.980469 68.304688 60 68.253906 60.011719 C 67.886719 60.113281 67.398438 59.558594 66.726562 58.792969 C 65.140625 56.980469 62.488281 53.949219 56.289062 52.738281 C 56.242188 52.707031 56.195312 52.664062 56.175781 52.636719 C 56.246094 52.570312 56.628906 52.351562 58.589844 52.351562 C 60.183594 52.519531 61.722656 52.777344 63.195312 53.128906 Z M 63.195312 53.128906 " fill-opacity="1" fill-rule="nonzero"/><path fill="#e29578" d="M 81.167969 70.921875 C 80.5625 69.1875 77.273438 67.792969 77.238281 67.78125 C 76.46875 67.492188 76.128906 66.863281 76.253906 66.425781 C 76.339844 66.121094 76.675781 65.835938 77.359375 65.96875 C 78.28125 66.148438 79.808594 67.265625 80.601562 67.886719 C 80.132812 66.296875 79.449219 64.820312 78.6875 63.515625 C 76.3125 59.449219 72.300781 56.289062 67.183594 54.34375 C 66.933594 54.25 66.683594 54.15625 66.425781 54.066406 C 65.628906 53.789062 64.800781 53.535156 63.953125 53.316406 C 65.460938 54.941406 69.035156 58.945312 68.726562 60.066406 C 68.679688 60.242188 68.550781 60.367188 68.367188 60.417969 C 68.296875 60.4375 68.226562 60.449219 68.152344 60.449219 C 67.617188 60.449219 67.121094 59.882812 66.410156 59.070312 C 64.855469 57.292969 62.253906 54.324219 56.171875 53.144531 L 56.136719 53.140625 L 56.109375 53.121094 C 55.90625 53.011719 55.699219 52.792969 55.753906 52.546875 C 53.617188 53.023438 51.289062 54.210938 48.898438 56.050781 C 48.898438 56.050781 48.898438 56.054688 48.90625 56.058594 C 49.550781 56.40625 51.207031 57.308594 53.304688 58.449219 C 58.53125 61.292969 66.5 65.632812 68.460938 66.722656 C 69.890625 67.511719 71.300781 70.269531 72.792969 73.1875 C 74.476562 76.488281 76.21875 79.898438 78.03125 80.589844 C 80.648438 77.28125 81.410156 73.96875 81.167969 70.921875 Z M 78.921875 74.273438 C 78.875 74.273438 74.804688 74.070312 72.160156 70.015625 C 71.816406 69.488281 71.496094 68.898438 71.214844 68.230469 L 71.136719 68.050781 L 71.3125 67.960938 C 71.316406 67.957031 71.320312 67.957031 71.328125 67.953125 C 71.519531 67.859375 73.285156 67.050781 75.207031 67.933594 C 77.023438 68.769531 78.347656 70.8125 79.136719 74.011719 L 79.203125 74.285156 Z M 78.921875 74.273438 " fill-opacity="1" fill-rule="nonzero"/><path fill="#231f20" d="M 80.789062 68.582031 C 80.894531 69.007812 80.980469 69.441406 81.046875 69.882812 C 79.882812 68.441406 77.523438 67.441406 77.394531 67.386719 C 76.828125 67.175781 76.601562 66.753906 76.660156 66.542969 C 76.707031 66.378906 76.945312 66.320312 77.28125 66.382812 C 78.339844 66.589844 80.441406 68.292969 80.789062 68.582031 Z M 80.789062 68.582031 " fill-opacity="1" fill-rule="nonzero"/><path fill="#5fbcde" d="M 35.707031 17.324219 C 35.582031 18.167969 35.617188 19.0625 35.652344 19.929688 C 35.777344 22.9375 35.910156 26.046875 29.386719 27.984375 L 29.523438 25.8125 L 29.304688 25.804688 C 29.207031 25.804688 19.679688 25.585938 17.777344 22.386719 C 17.558594 22.019531 17.449219 21.625 17.453125 21.207031 C 17.457031 20.773438 17.578125 20.3125 17.820312 19.820312 C 18.164062 19.8125 19.160156 19.796875 20.515625 19.75 C 21.363281 19.722656 22.355469 19.679688 23.414062 19.621094 C 23.941406 19.59375 24.488281 19.558594 25.042969 19.519531 C 25.597656 19.476562 26.164062 19.4375 26.726562 19.378906 C 27.007812 19.351562 27.289062 19.320312 27.570312 19.285156 C 27.851562 19.253906 28.128906 19.222656 28.40625 19.179688 C 28.542969 19.15625 28.679688 19.136719 28.820312 19.117188 C 28.957031 19.097656 29.089844 19.070312 29.222656 19.046875 C 29.492188 18.996094 29.757812 18.945312 30.019531 18.898438 C 30.082031 18.886719 30.148438 18.875 30.210938 18.859375 C 30.277344 18.851562 30.339844 18.84375 30.40625 18.835938 C 30.53125 18.820312 30.65625 18.804688 30.785156 18.785156 C 31.035156 18.773438 31.28125 18.746094 31.523438 18.757812 C 32.003906 18.761719 32.460938 18.828125 32.855469 18.976562 C 33.246094 19.125 33.570312 19.347656 33.816406 19.582031 C 34.070312 19.816406 34.261719 20.046875 34.40625 20.246094 C 34.558594 20.441406 34.667969 20.601562 34.742188 20.710938 C 34.789062 20.777344 34.824219 20.828125 34.84375 20.855469 C 34.824219 20.824219 34.792969 20.777344 34.746094 20.707031 C 34.738281 20.699219 34.734375 20.691406 34.726562 20.675781 C 34.652344 20.566406 34.554688 20.417969 34.421875 20.234375 C 34.28125 20.035156 34.09375 19.796875 33.84375 19.554688 C 33.597656 19.3125 33.277344 19.074219 32.878906 18.914062 C 32.480469 18.753906 32.015625 18.675781 31.527344 18.660156 C 31.28125 18.640625 31.03125 18.664062 30.773438 18.671875 C 30.648438 18.683594 30.515625 18.699219 30.386719 18.714844 C 30.320312 18.71875 30.253906 18.726562 30.191406 18.734375 C 30.125 18.742188 30.058594 18.753906 29.996094 18.765625 C 29.734375 18.808594 29.46875 18.851562 29.199219 18.894531 C 29.066406 18.914062 28.929688 18.941406 28.792969 18.957031 C 28.65625 18.976562 28.519531 18.992188 28.382812 19.007812 C 28.109375 19.046875 27.832031 19.070312 27.550781 19.097656 C 27.273438 19.125 26.988281 19.148438 26.707031 19.167969 C 26.148438 19.210938 25.585938 19.242188 25.03125 19.269531 C 24.476562 19.296875 23.929688 19.316406 23.398438 19.335938 C 22.34375 19.367188 21.355469 19.386719 20.507812 19.394531 C 18.980469 19.410156 17.914062 19.402344 17.722656 19.398438 C 17.609375 19.363281 17.152344 19.199219 16.703125 18.878906 C 16.316406 18.601562 15.933594 18.210938 15.785156 17.6875 C 15.59375 17.011719 15.816406 16.226562 16.449219 15.351562 C 16.578125 15.171875 16.722656 14.992188 16.886719 14.804688 C 17.464844 14.695312 21.472656 13.933594 25.480469 13.167969 C 26.023438 13.070312 26.5625 12.957031 27.097656 12.875 C 27.628906 12.789062 28.160156 12.726562 28.671875 12.683594 C 29.699219 12.601562 30.667969 12.609375 31.484375 12.710938 C 32.304688 12.808594 32.972656 13.019531 33.382812 13.265625 C 33.589844 13.386719 33.734375 13.515625 33.820312 13.613281 C 33.867188 13.65625 33.894531 13.699219 33.914062 13.726562 C 33.917969 13.730469 33.921875 13.738281 33.929688 13.742188 C 33.925781 13.738281 33.921875 13.734375 33.917969 13.726562 C 33.917969 13.726562 33.917969 13.726562 33.914062 13.726562 C 33.894531 13.699219 33.867188 13.65625 33.824219 13.609375 C 33.742188 13.507812 33.597656 13.378906 33.394531 13.25 C 32.984375 12.988281 32.316406 12.765625 31.496094 12.644531 C 30.671875 12.523438 29.699219 12.492188 28.664062 12.550781 C 28.144531 12.578125 27.609375 12.628906 27.070312 12.703125 C 26.527344 12.773438 25.988281 12.875 25.441406 12.960938 C 21.457031 13.621094 17.476562 14.28125 16.828125 14.386719 C 16.695312 14.28125 16.382812 14.011719 16.082031 13.632812 C 15.785156 13.253906 15.496094 12.769531 15.421875 12.226562 C 15.339844 11.660156 15.496094 11.113281 15.890625 10.597656 C 15.988281 10.472656 16.09375 10.351562 16.210938 10.242188 C 16.636719 9.84375 17.179688 9.558594 17.785156 9.433594 L 19.964844 8.976562 C 20.027344 8.976562 20.214844 8.96875 20.5 8.949219 C 20.855469 8.925781 21.359375 8.878906 21.957031 8.808594 C 22.558594 8.734375 23.257812 8.636719 24 8.511719 C 24.371094 8.449219 24.753906 8.378906 25.144531 8.304688 C 25.535156 8.230469 25.929688 8.136719 26.320312 8.035156 C 27.097656 7.832031 27.863281 7.585938 28.582031 7.375 C 29.304688 7.167969 29.988281 7.003906 30.585938 6.976562 C 30.882812 6.957031 31.15625 6.980469 31.394531 7.027344 C 31.636719 7.070312 31.835938 7.148438 31.992188 7.21875 C 32.074219 7.253906 32.144531 7.289062 32.199219 7.324219 C 32.261719 7.359375 32.3125 7.390625 32.347656 7.417969 C 32.40625 7.457031 32.445312 7.484375 32.460938 7.492188 C 32.445312 7.480469 32.40625 7.457031 32.351562 7.414062 C 32.324219 7.390625 32.292969 7.371094 32.253906 7.347656 C 32.238281 7.339844 32.222656 7.328125 32.207031 7.316406 C 32.148438 7.28125 32.078125 7.242188 32.003906 7.203125 C 31.84375 7.125 31.644531 7.042969 31.402344 6.988281 C 31.164062 6.933594 30.886719 6.902344 30.582031 6.910156 C 29.976562 6.917969 29.277344 7.0625 28.550781 7.246094 C 27.820312 7.433594 27.046875 7.652344 26.269531 7.828125 C 25.878906 7.917969 25.488281 7.996094 25.101562 8.058594 C 24.714844 8.121094 24.328125 8.175781 23.957031 8.222656 C 23.214844 8.324219 22.519531 8.402344 21.921875 8.453125 C 21.324219 8.503906 20.828125 8.53125 20.480469 8.546875 C 20.328125 8.550781 20.210938 8.554688 20.121094 8.554688 C 20.085938 8.230469 20.070312 7.449219 20.546875 6.589844 C 20.972656 5.828125 21.789062 5.007812 23.328125 4.386719 C 24.734375 3.816406 25.816406 3.175781 26.6875 2.65625 C 27.742188 2.03125 28.492188 1.589844 29.214844 1.589844 C 29.617188 1.589844 30.007812 1.722656 30.441406 2.035156 C 30.972656 2.421875 31.675781 3.488281 32.40625 4.972656 C 32.40625 4.972656 32.40625 4.972656 32.40625 4.976562 C 32.945312 6.070312 33.503906 7.394531 34.019531 8.839844 C 35.304688 12.4375 35.953125 15.691406 35.707031 17.324219 Z M 29.230469 33.679688 L 29.230469 41.054688 L 31.699219 43.015625 C 32.125 43.351562 32.664062 43.5 33.191406 43.429688 C 33.304688 43.417969 33.417969 43.394531 33.53125 43.359375 C 34.144531 43.171875 34.605469 42.71875 34.796875 42.113281 C 35.839844 38.820312 30.617188 34.703125 29.230469 33.679688 Z M 52.546875 139.140625 C 51.824219 138.566406 47.648438 135.796875 44.472656 133.863281 C 44.046875 133.601562 43.640625 133.355469 43.261719 133.132812 C 42.699219 132.804688 42.199219 132.523438 41.800781 132.316406 C 41.054688 131.933594 39.925781 131.617188 38.636719 131.367188 C 38.132812 131.265625 37.601562 131.175781 37.0625 131.09375 C 36.09375 130.953125 35.09375 130.835938 34.144531 130.753906 C 33.601562 130.703125 33.078125 130.664062 32.589844 130.632812 C 31.320312 130.550781 30.269531 130.53125 29.710938 130.558594 C 28.550781 130.617188 27.25 131.152344 26.101562 131.625 C 25.433594 131.898438 24.859375 132.136719 24.398438 132.242188 C 24.316406 132.261719 24.226562 132.28125 24.128906 132.300781 C 23.238281 132.496094 21.746094 132.820312 21.164062 133.820312 C 21.089844 133.949219 21.03125 134.089844 20.992188 134.234375 C 20.871094 134.664062 20.902344 135.164062 21.078125 135.730469 C 21.652344 137.570312 26.882812 137.371094 30.339844 137.238281 C 32.828125 137.144531 33.722656 137.136719 33.988281 137.4375 C 34.089844 137.554688 34.113281 137.695312 34.054688 137.828125 C 33.988281 137.972656 33.824219 138.335938 31.179688 138.730469 C 30.964844 138.761719 30.738281 138.792969 30.488281 138.828125 C 28.820312 139.042969 26.832031 139.195312 25.664062 139.195312 C 25.261719 139.195312 24.257812 139.097656 22.867188 138.960938 C 17.175781 138.40625 3.839844 137.105469 1.53125 139.890625 C 1.207031 140.28125 1.125 140.730469 1.28125 141.273438 C 1.3125 141.386719 1.351562 141.492188 1.398438 141.59375 C 2.523438 144.179688 7.457031 144.039062 11.828125 143.917969 C 15.261719 143.820312 18.226562 143.734375 19.285156 144.875 C 19.597656 145.210938 19.730469 145.636719 19.679688 146.140625 C 19.367188 149.300781 20.910156 150.902344 22.152344 152.191406 C 22.71875 152.773438 23.203125 153.277344 23.421875 153.835938 C 24.449219 156.480469 25.820312 158.066406 27.609375 158.6875 C 28.957031 159.15625 29.625 160.648438 30.21875 161.96875 C 30.644531 162.921875 31.054688 163.832031 31.644531 164.222656 C 31.78125 164.3125 31.925781 164.378906 32.085938 164.40625 C 33.136719 164.609375 33.507812 164.644531 33.867188 164.683594 C 34.179688 164.714844 34.476562 164.746094 35.179688 164.878906 C 36.371094 165.101562 44.863281 162.820312 48.03125 161.925781 L 48.25 161.863281 L 48.261719 161.917969 C 49.070312 161.929688 52.648438 161.914062 53.664062 160.898438 C 54.167969 160.394531 56.175781 157.257812 56.878906 152.972656 C 57.480469 149.300781 57.21875 143.921875 52.546875 139.140625 Z M 52.546875 139.140625 " fill-opacity="1" fill-rule="nonzero"/><g clip-path="url(#9f3a424181)"><path fill="#ffffff" d="M 35.726562 85.269531 C 35.351562 85.460938 34.949219 85.6875 34.535156 85.933594 C 32.578125 87.09375 30.351562 88.71875 29.554688 89.308594 L 29.433594 74.988281 L 29.382812 68.90625 L 29.234375 51.925781 C 29.863281 52.722656 31.09375 54.214844 32.28125 55.234375 C 32.839844 55.714844 33.394531 56.089844 33.863281 56.230469 C 33.328125 57.125 31.632812 60.203125 30.894531 64.648438 C 30.089844 69.488281 30.285156 76.976562 35.726562 85.269531 Z M 36.101562 75.507812 C 36.480469 83.492188 38.703125 89.160156 42.71875 92.347656 C 46.96875 95.722656 52.304688 95.617188 56.027344 94.933594 C 57.703125 94.625 60.007812 93.769531 62.683594 92.375 C 61.601562 92.394531 60.296875 92.410156 58.996094 92.402344 C 57.410156 92.394531 55.828125 92.359375 54.640625 92.269531 C 54.046875 92.222656 53.554688 92.164062 53.214844 92.097656 C 53.128906 92.085938 53.054688 92.066406 52.988281 92.050781 C 52.921875 92.035156 52.867188 92.023438 52.824219 92.003906 C 52.757812 91.980469 52.714844 91.96875 52.699219 91.960938 C 52.714844 91.96875 52.757812 91.976562 52.824219 91.996094 C 52.867188 92.011719 52.925781 92.023438 52.992188 92.03125 C 53.058594 92.042969 53.132812 92.058594 53.21875 92.070312 C 53.5625 92.117188 54.054688 92.148438 54.644531 92.160156 C 55.828125 92.183594 57.410156 92.132812 58.984375 92.050781 C 60.5625 91.972656 62.140625 91.859375 63.320312 91.769531 C 63.523438 91.753906 63.714844 91.738281 63.890625 91.726562 C 63.894531 91.726562 63.894531 91.726562 63.894531 91.726562 C 64.6875 91.28125 65.507812 90.796875 66.347656 90.265625 C 65.554688 90.226562 64.652344 90.171875 63.753906 90.105469 C 62.464844 90.007812 61.175781 89.878906 60.214844 89.71875 C 59.976562 89.679688 59.757812 89.636719 59.566406 89.597656 C 59.46875 89.574219 59.378906 89.554688 59.296875 89.535156 C 59.214844 89.515625 59.136719 89.492188 59.070312 89.472656 C 58.933594 89.429688 58.828125 89.398438 58.757812 89.367188 C 58.707031 89.34375 58.671875 89.328125 58.660156 89.320312 C 58.671875 89.328125 58.707031 89.339844 58.761719 89.355469 C 58.832031 89.386719 58.941406 89.410156 59.078125 89.445312 C 59.148438 89.457031 59.222656 89.472656 59.304688 89.488281 C 59.390625 89.503906 59.480469 89.519531 59.578125 89.535156 C 59.773438 89.558594 59.992188 89.585938 60.230469 89.609375 C 61.191406 89.699219 62.480469 89.742188 63.769531 89.75 C 65.003906 89.761719 66.242188 89.746094 67.191406 89.722656 L 67.195312 89.722656 C 68.261719 89.023438 69.355469 88.261719 70.460938 87.429688 C 70.238281 87.324219 69.945312 87.175781 69.613281 86.976562 C 69.25 86.757812 68.839844 86.472656 68.433594 86.132812 C 68.234375 85.960938 68.03125 85.777344 67.835938 85.574219 C 67.640625 85.378906 67.457031 85.164062 67.277344 84.945312 C 67.191406 84.835938 67.109375 84.71875 67.027344 84.609375 C 66.949219 84.492188 66.867188 84.378906 66.796875 84.257812 C 66.652344 84.023438 66.519531 83.785156 66.410156 83.546875 C 66.296875 83.3125 66.203125 83.074219 66.125 82.851562 C 66.085938 82.734375 66.046875 82.625 66.015625 82.519531 C 65.988281 82.410156 65.960938 82.304688 65.933594 82.203125 C 65.886719 82 65.847656 81.816406 65.820312 81.648438 C 65.796875 81.480469 65.769531 81.335938 65.761719 81.21875 C 65.742188 80.976562 65.730469 80.839844 65.730469 80.839844 C 65.730469 80.839844 65.753906 80.976562 65.792969 81.210938 C 65.8125 81.332031 65.847656 81.472656 65.882812 81.636719 C 65.921875 81.796875 65.976562 81.980469 66.039062 82.175781 C 66.074219 82.269531 66.109375 82.371094 66.144531 82.476562 C 66.183594 82.578125 66.230469 82.683594 66.277344 82.789062 C 66.371094 83.003906 66.480469 83.226562 66.605469 83.445312 C 66.730469 83.664062 66.878906 83.882812 67.035156 84.097656 C 67.109375 84.207031 67.199219 84.308594 67.28125 84.414062 C 67.367188 84.515625 67.457031 84.617188 67.546875 84.714844 C 67.730469 84.910156 67.921875 85.101562 68.121094 85.273438 C 68.320312 85.445312 68.527344 85.605469 68.730469 85.75 C 69.140625 86.042969 69.542969 86.277344 69.902344 86.457031 C 70.257812 86.636719 70.566406 86.757812 70.78125 86.835938 C 70.890625 86.875 70.976562 86.902344 71.03125 86.921875 C 71.070312 86.929688 71.09375 86.9375 71.105469 86.941406 C 72.660156 85.746094 74.242188 84.417969 75.816406 82.96875 C 76.546875 82.292969 77.191406 81.613281 77.757812 80.929688 C 75.839844 80.078125 74.101562 76.675781 72.414062 73.382812 C 70.953125 70.523438 69.574219 67.820312 68.257812 67.089844 C 65.425781 65.519531 50.074219 57.171875 48.535156 56.335938 C 48.386719 56.457031 48.234375 56.578125 48.085938 56.703125 C 48.078125 56.769531 48.070312 56.835938 48.0625 56.902344 L 48.050781 56.992188 C 47.980469 57.582031 47.851562 58.203125 47.679688 58.832031 C 47.835938 58.988281 48.566406 59.738281 49.621094 60.785156 C 50.8125 61.96875 52.414062 63.535156 54.054688 65.054688 C 55.695312 66.578125 57.378906 68.054688 58.71875 69.066406 C 59.390625 69.570312 59.976562 69.957031 60.414062 70.175781 C 60.628906 70.289062 60.8125 70.355469 60.9375 70.390625 C 61 70.410156 61.050781 70.417969 61.082031 70.421875 C 61.117188 70.425781 61.132812 70.429688 61.132812 70.429688 C 61.132812 70.429688 61.117188 70.429688 61.082031 70.425781 C 61.046875 70.421875 61 70.414062 60.933594 70.398438 C 60.808594 70.367188 60.621094 70.308594 60.398438 70.203125 C 59.953125 70 59.347656 69.636719 58.65625 69.15625 C 57.269531 68.195312 55.523438 66.777344 53.820312 65.320312 C 52.117188 63.859375 50.449219 62.355469 49.210938 61.214844 C 48.417969 60.488281 47.800781 59.910156 47.457031 59.585938 C 47.269531 60.167969 47.035156 60.769531 46.761719 61.382812 C 47.027344 61.65625 47.972656 62.621094 48.929688 63.585938 C 49.496094 64.152344 50.0625 64.714844 50.492188 65.132812 C 50.917969 65.550781 51.21875 65.816406 51.21875 65.816406 C 51.21875 65.816406 50.890625 65.585938 50.417969 65.214844 C 49.945312 64.847656 49.320312 64.347656 48.695312 63.847656 C 47.789062 63.117188 46.886719 62.382812 46.464844 62.035156 C 45.90625 63.195312 45.203125 64.421875 44.367188 65.671875 C 44.382812 65.691406 44.40625 65.714844 44.429688 65.738281 C 44.539062 65.851562 44.699219 66.011719 44.910156 66.210938 C 45.328125 66.617188 45.941406 67.183594 46.707031 67.824219 C 47.476562 68.464844 48.398438 69.183594 49.445312 69.867188 C 50.484375 70.558594 51.652344 71.214844 52.890625 71.699219 C 53.507812 71.941406 54.144531 72.136719 54.785156 72.265625 C 54.945312 72.292969 55.101562 72.324219 55.261719 72.347656 C 55.421875 72.367188 55.585938 72.386719 55.746094 72.402344 C 56.066406 72.4375 56.386719 72.472656 56.699219 72.503906 C 57.011719 72.550781 57.324219 72.597656 57.625 72.644531 C 57.921875 72.707031 58.214844 72.765625 58.5 72.828125 C 58.78125 72.90625 59.054688 72.964844 59.316406 73.046875 C 59.578125 73.132812 59.832031 73.203125 60.066406 73.300781 C 60.183594 73.34375 60.300781 73.386719 60.414062 73.429688 C 60.527344 73.480469 60.632812 73.527344 60.738281 73.570312 C 60.953125 73.660156 61.144531 73.765625 61.328125 73.859375 C 61.691406 74.054688 61.996094 74.246094 62.230469 74.425781 C 62.46875 74.597656 62.640625 74.753906 62.753906 74.863281 C 62.824219 74.933594 62.871094 74.988281 62.894531 75.015625 C 62.867188 74.988281 62.820312 74.9375 62.746094 74.871094 C 62.632812 74.765625 62.457031 74.613281 62.214844 74.449219 C 61.972656 74.277344 61.664062 74.101562 61.300781 73.917969 C 61.113281 73.832031 60.921875 73.734375 60.707031 73.652344 C 60.597656 73.609375 60.492188 73.566406 60.378906 73.519531 C 60.265625 73.484375 60.148438 73.445312 60.03125 73.402344 C 59.792969 73.316406 59.539062 73.253906 59.28125 73.179688 C 59.019531 73.105469 58.742188 73.054688 58.464844 72.988281 C 58.183594 72.933594 57.890625 72.886719 57.59375 72.835938 C 57.296875 72.800781 56.992188 72.765625 56.679688 72.726562 C 56.367188 72.703125 56.046875 72.679688 55.722656 72.65625 C 55.558594 72.644531 55.394531 72.628906 55.230469 72.617188 C 55.0625 72.597656 54.898438 72.570312 54.734375 72.546875 C 54.066406 72.4375 53.410156 72.257812 52.769531 72.027344 C 51.484375 71.574219 50.269531 70.941406 49.1875 70.273438 C 48.101562 69.609375 47.136719 68.914062 46.335938 68.285156 C 45.535156 67.660156 44.890625 67.105469 44.449219 66.707031 C 44.242188 66.519531 44.082031 66.371094 43.96875 66.261719 C 43.828125 66.460938 43.703125 66.636719 43.585938 66.800781 C 43.613281 66.871094 43.683594 67.03125 43.792969 67.273438 C 43.9375 67.601562 44.148438 68.0625 44.421875 68.617188 C 44.691406 69.167969 45.019531 69.804688 45.394531 70.476562 C 45.582031 70.808594 45.777344 71.15625 45.984375 71.5 C 46.191406 71.84375 46.414062 72.191406 46.636719 72.535156 C 46.75 72.703125 46.867188 72.875 46.980469 73.042969 C 47.097656 73.210938 47.214844 73.375 47.332031 73.539062 C 47.570312 73.863281 47.8125 74.179688 48.058594 74.476562 C 48.183594 74.621094 48.300781 74.769531 48.425781 74.902344 C 48.550781 75.042969 48.671875 75.175781 48.792969 75.300781 C 48.855469 75.363281 48.914062 75.425781 48.972656 75.488281 C 49.035156 75.546875 49.097656 75.605469 49.15625 75.664062 C 49.214844 75.722656 49.277344 75.777344 49.332031 75.832031 C 49.394531 75.882812 49.453125 75.9375 49.511719 75.988281 C 49.625 76.089844 49.738281 76.183594 49.851562 76.269531 C 49.960938 76.351562 50.0625 76.441406 50.167969 76.507812 C 50.269531 76.578125 50.367188 76.644531 50.457031 76.707031 C 50.550781 76.761719 50.636719 76.8125 50.710938 76.859375 C 50.867188 76.953125 51 77.003906 51.085938 77.050781 C 51.148438 77.082031 51.191406 77.101562 51.207031 77.109375 C 51.191406 77.101562 51.148438 77.085938 51.078125 77.054688 C 50.992188 77.015625 50.855469 76.972656 50.699219 76.882812 C 50.617188 76.84375 50.53125 76.796875 50.433594 76.746094 C 50.339844 76.6875 50.238281 76.628906 50.132812 76.5625 C 50.023438 76.5 49.914062 76.417969 49.796875 76.339844 C 49.679688 76.257812 49.5625 76.167969 49.441406 76.070312 C 49.378906 76.023438 49.316406 75.976562 49.253906 75.925781 C 49.191406 75.875 49.128906 75.816406 49.066406 75.765625 C 49.003906 75.710938 48.9375 75.652344 48.871094 75.597656 C 48.808594 75.539062 48.746094 75.480469 48.679688 75.417969 C 48.546875 75.296875 48.417969 75.167969 48.285156 75.035156 C 48.152344 74.90625 48.023438 74.761719 47.890625 74.621094 C 47.625 74.335938 47.367188 74.03125 47.105469 73.714844 C 46.976562 73.554688 46.851562 73.394531 46.722656 73.234375 C 46.597656 73.066406 46.472656 72.902344 46.347656 72.738281 C 46.101562 72.402344 45.863281 72.0625 45.636719 71.722656 C 45.40625 71.386719 45.1875 71.050781 44.980469 70.71875 C 44.566406 70.0625 44.199219 69.4375 43.894531 68.890625 C 43.589844 68.347656 43.347656 67.890625 43.183594 67.566406 C 43.160156 67.519531 43.140625 67.476562 43.121094 67.4375 C 42.910156 67.71875 42.691406 68.007812 42.449219 68.316406 C 42.398438 68.378906 42.351562 68.4375 42.300781 68.5 C 42.324219 68.863281 42.355469 69.308594 42.390625 69.816406 C 42.496094 71.226562 42.652344 73.109375 42.871094 74.984375 C 42.976562 75.921875 43.101562 76.859375 43.238281 77.730469 C 43.304688 78.167969 43.378906 78.589844 43.457031 78.988281 C 43.53125 79.386719 43.609375 79.761719 43.691406 80.105469 C 43.855469 80.789062 44.035156 81.355469 44.210938 81.726562 C 44.246094 81.824219 44.296875 81.902344 44.335938 81.972656 C 44.375 82.042969 44.40625 82.101562 44.445312 82.144531 C 44.484375 82.199219 44.515625 82.238281 44.53125 82.257812 C 44.515625 82.238281 44.480469 82.199219 44.4375 82.148438 C 44.398438 82.109375 44.363281 82.050781 44.320312 81.980469 C 44.277344 81.914062 44.226562 81.835938 44.183594 81.742188 C 43.992188 81.371094 43.785156 80.816406 43.585938 80.132812 C 43.488281 79.789062 43.390625 79.417969 43.296875 79.019531 C 43.199219 78.625 43.109375 78.207031 43.019531 77.769531 C 42.839844 76.898438 42.675781 75.96875 42.519531 75.03125 C 42.21875 73.164062 41.96875 71.285156 41.800781 69.875 C 41.773438 69.640625 41.746094 69.421875 41.722656 69.21875 C 39.300781 72.167969 36.933594 74.382812 36.257812 75 C 36.191406 75.0625 36.140625 75.109375 36.101562 75.140625 C 36.097656 75.265625 36.097656 75.390625 36.101562 75.507812 Z M 37.359375 85.085938 C 36.820312 85.15625 35.867188 85.632812 34.789062 86.273438 C 32.917969 87.386719 30.671875 88.996094 29.5625 89.832031 L 29.597656 94.183594 C 30.683594 93.167969 33.992188 90.164062 36.671875 88.773438 C 37.40625 88.394531 38.089844 88.132812 38.667969 88.066406 C 38.171875 87.152344 37.734375 86.160156 37.359375 85.085938 Z M 101.160156 157.890625 C 100.734375 154.328125 98.257812 150.515625 93.589844 146.230469 C 87.34375 140.488281 86.976562 137.128906 86.710938 134.675781 C 86.558594 133.269531 86.4375 132.160156 85.242188 131.015625 C 83.933594 129.757812 83.417969 129.046875 82.917969 128.355469 C 82.136719 127.273438 81.394531 126.246094 77.515625 123.140625 C 77.140625 122.839844 76.796875 122.566406 76.484375 122.316406 C 73.15625 119.664062 73.09375 119.613281 72.46875 117.625 C 72.175781 116.699219 71.738281 115.300781 70.699219 112.921875 C 68.371094 107.582031 61.976562 102.390625 58.542969 99.601562 C 56.445312 97.898438 55.84375 97.394531 55.90625 97.03125 C 55.960938 96.683594 56.367188 96.316406 57.085938 95.867188 C 57.78125 95.433594 58.769531 94.925781 60.019531 94.292969 C 60.875 93.859375 61.757812 93.410156 62.628906 92.9375 C 63.226562 92.609375 63.722656 92.433594 64.171875 92.34375 L 64.175781 92.34375 C 64.585938 92.261719 64.953125 92.25 65.328125 92.253906 C 65.457031 92.253906 65.582031 92.261719 65.710938 92.265625 C 65.964844 92.273438 66.234375 92.28125 66.527344 92.273438 C 67.691406 92.242188 69.28125 91.957031 72.199219 90.402344 C 78.480469 87.046875 86.894531 75.542969 88.851562 70.09375 C 89.289062 68.871094 89.792969 67.664062 90.28125 66.492188 C 92.015625 62.320312 93.808594 58.007812 93.484375 51.589844 C 93.097656 43.960938 90.507812 41.566406 86.585938 37.941406 C 86.289062 37.664062 85.980469 37.378906 85.667969 37.085938 C 80.417969 32.171875 71.019531 30.820312 60.527344 33.472656 C 49.664062 36.222656 42.128906 44.550781 38.503906 48.554688 C 38.078125 49.023438 37.710938 49.429688 37.40625 49.75 C 35.660156 51.585938 35.589844 52.601562 35.511719 53.679688 C 35.46875 54.304688 35.425781 54.953125 35.050781 55.75 C 34.863281 56.15625 34.5625 56.269531 34.34375 56.292969 C 34.335938 56.292969 34.328125 56.292969 34.320312 56.292969 C 33.964844 56.855469 32.089844 60.007812 31.308594 64.734375 C 30.554688 69.296875 30.703125 76.253906 35.429688 84.011719 C 35.648438 84.367188 35.875 84.726562 36.109375 85.085938 C 36.265625 85.011719 36.414062 84.949219 36.554688 84.894531 C 36.804688 84.792969 37.03125 84.71875 37.222656 84.683594 C 37.101562 84.320312 36.992188 83.945312 36.882812 83.5625 C 36.605469 82.574219 36.375 81.523438 36.1875 80.417969 C 36.003906 79.320312 35.863281 78.171875 35.769531 76.964844 C 35.734375 76.492188 35.703125 76.015625 35.679688 75.527344 C 35.632812 74.554688 35.878906 73.34375 36.355469 71.992188 C 36.335938 71.988281 36.316406 71.988281 36.296875 71.984375 C 35.761719 71.941406 35.050781 71.898438 34.34375 71.972656 C 33.992188 72.007812 33.644531 72.078125 33.332031 72.183594 C 33.023438 72.289062 32.75 72.441406 32.550781 72.617188 C 32.351562 72.789062 32.234375 72.984375 32.167969 73.128906 C 32.136719 73.191406 32.117188 73.25 32.105469 73.289062 C 32.101562 73.292969 32.101562 73.292969 32.101562 73.296875 C 32.089844 73.328125 32.085938 73.347656 32.082031 73.355469 C 32.085938 73.347656 32.085938 73.328125 32.09375 73.292969 C 32.101562 73.253906 32.117188 73.191406 32.140625 73.117188 C 32.164062 73.039062 32.203125 72.949219 32.253906 72.847656 C 32.308594 72.75 32.378906 72.648438 32.46875 72.542969 C 32.496094 72.515625 32.523438 72.488281 32.550781 72.457031 C 32.730469 72.277344 32.972656 72.109375 33.25 71.976562 C 33.566406 71.824219 33.921875 71.710938 34.285156 71.625 C 35.015625 71.460938 35.757812 71.410156 36.308594 71.390625 C 36.40625 71.386719 36.496094 71.386719 36.582031 71.382812 C 36.863281 70.660156 37.207031 69.902344 37.605469 69.121094 C 37.589844 69.113281 37.570312 69.105469 37.546875 69.09375 C 37.367188 69.007812 37.109375 68.882812 36.804688 68.722656 C 36.195312 68.40625 35.394531 67.964844 34.628906 67.460938 C 34.246094 67.210938 33.871094 66.941406 33.539062 66.671875 C 33.371094 66.539062 33.214844 66.402344 33.070312 66.265625 C 33 66.199219 32.929688 66.132812 32.863281 66.066406 C 32.800781 66 32.742188 65.933594 32.683594 65.871094 C 32.628906 65.804688 32.574219 65.742188 32.523438 65.683594 C 32.476562 65.621094 32.433594 65.558594 32.390625 65.503906 C 32.3125 65.390625 32.246094 65.289062 32.203125 65.195312 C 32.15625 65.109375 32.128906 65.035156 32.109375 64.984375 C 32.089844 64.933594 32.082031 64.910156 32.082031 64.910156 C 32.085938 64.917969 32.097656 64.941406 32.117188 64.980469 C 32.140625 65.03125 32.175781 65.101562 32.230469 65.183594 C 32.28125 65.265625 32.355469 65.359375 32.441406 65.464844 C 32.488281 65.515625 32.539062 65.570312 32.589844 65.625 C 32.644531 65.679688 32.699219 65.738281 32.761719 65.792969 C 32.824219 65.851562 32.890625 65.910156 32.957031 65.96875 C 33.027344 66.023438 33.101562 66.085938 33.175781 66.144531 C 33.328125 66.257812 33.496094 66.378906 33.671875 66.492188 C 34.023438 66.722656 34.410156 66.949219 34.808594 67.15625 C 35.601562 67.578125 36.425781 67.933594 37.050781 68.183594 C 37.363281 68.308594 37.625 68.40625 37.808594 68.472656 C 37.851562 68.488281 37.890625 68.503906 37.925781 68.511719 C 39.464844 65.652344 41.679688 62.546875 44.199219 59.820312 C 44.183594 59.761719 44.152344 59.652344 44.105469 59.5 C 44.03125 59.265625 43.929688 58.933594 43.804688 58.53125 C 43.550781 57.730469 43.199219 56.671875 42.804688 55.621094 C 42.414062 54.574219 41.976562 53.542969 41.574219 52.808594 C 41.375 52.4375 41.183594 52.148438 41.03125 51.953125 C 41.007812 51.925781 40.984375 51.894531 40.960938 51.871094 C 40.921875 51.820312 40.882812 51.78125 40.851562 51.75 C 40.851562 51.75 40.847656 51.746094 40.847656 51.742188 C 40.84375 51.742188 40.84375 51.742188 40.84375 51.742188 C 40.816406 51.714844 40.796875 51.699219 40.785156 51.683594 C 40.796875 51.695312 40.820312 51.714844 40.847656 51.738281 C 40.878906 51.757812 40.910156 51.789062 40.953125 51.828125 C 40.953125 51.832031 40.957031 51.832031 40.957031 51.835938 C 40.988281 51.863281 41.019531 51.898438 41.054688 51.933594 C 41.222656 52.117188 41.441406 52.394531 41.667969 52.75 C 42.132812 53.460938 42.652344 54.464844 43.128906 55.484375 C 43.609375 56.507812 44.046875 57.546875 44.363281 58.332031 C 44.515625 58.707031 44.644531 59.027344 44.730469 59.253906 C 45.179688 58.789062 45.632812 58.335938 46.09375 57.898438 C 47.78125 56.304688 49.460938 55.011719 51.101562 54.039062 C 52.734375 53.066406 54.324219 52.410156 55.824219 52.101562 C 55.832031 52.054688 55.835938 51.992188 55.847656 51.921875 C 55.867188 51.730469 55.890625 51.460938 55.910156 51.132812 C 55.929688 50.804688 55.949219 50.421875 55.953125 50.011719 C 55.957031 49.601562 55.941406 49.164062 55.917969 48.726562 C 55.902344 48.507812 55.886719 48.289062 55.863281 48.074219 C 55.835938 47.859375 55.820312 47.644531 55.785156 47.441406 C 55.746094 47.242188 55.726562 47.042969 55.679688 46.859375 C 55.636719 46.675781 55.605469 46.496094 55.5625 46.335938 C 55.519531 46.179688 55.476562 46.035156 55.4375 45.902344 C 55.410156 45.804688 55.378906 45.71875 55.347656 45.640625 C 55.339844 45.617188 55.332031 45.59375 55.324219 45.574219 C 55.273438 45.429688 55.238281 45.332031 55.226562 45.300781 C 55.226562 45.296875 55.222656 45.292969 55.222656 45.289062 L 55.226562 45.292969 C 55.226562 45.292969 55.226562 45.296875 55.230469 45.304688 C 55.246094 45.335938 55.28125 45.40625 55.328125 45.507812 C 55.335938 45.527344 55.34375 45.542969 55.351562 45.5625 C 55.394531 45.652344 55.449219 45.753906 55.5 45.882812 C 55.550781 46.007812 55.605469 46.148438 55.667969 46.304688 C 55.726562 46.460938 55.777344 46.636719 55.839844 46.816406 C 55.902344 47 55.945312 47.195312 56.003906 47.398438 C 56.058594 47.601562 56.097656 47.8125 56.148438 48.027344 C 56.195312 48.246094 56.226562 48.464844 56.269531 48.6875 C 56.335938 49.128906 56.394531 49.574219 56.429688 49.992188 C 56.472656 50.410156 56.492188 50.804688 56.507812 51.140625 C 56.515625 51.476562 56.519531 51.757812 56.519531 51.957031 C 56.519531 51.964844 56.519531 51.972656 56.515625 51.980469 C 56.519531 51.980469 56.519531 51.980469 56.519531 51.980469 C 57.246094 51.878906 57.949219 51.863281 58.621094 51.929688 C 60.371094 52.113281 62.054688 52.40625 63.65625 52.804688 C 63.675781 52.75 63.695312 52.6875 63.714844 52.609375 C 63.75 52.484375 63.785156 52.332031 63.828125 52.15625 C 63.863281 51.976562 63.902344 51.777344 63.9375 51.550781 C 63.980469 51.328125 64.003906 51.085938 64.039062 50.828125 C 64.066406 50.566406 64.101562 50.292969 64.117188 50.007812 C 64.125 49.867188 64.136719 49.722656 64.148438 49.574219 C 64.152344 49.429688 64.160156 49.28125 64.164062 49.128906 C 64.179688 48.832031 64.1875 48.523438 64.1875 48.21875 C 64.195312 47.914062 64.1875 47.605469 64.183594 47.304688 C 64.179688 47.152344 64.179688 47.003906 64.175781 46.855469 C 64.171875 46.707031 64.164062 46.5625 64.15625 46.417969 C 64.140625 46.128906 64.136719 45.851562 64.117188 45.589844 C 64.097656 45.328125 64.082031 45.078125 64.066406 44.847656 C 64.035156 44.386719 63.988281 44.003906 63.96875 43.738281 C 63.945312 43.519531 63.933594 43.378906 63.929688 43.332031 C 63.929688 43.324219 63.929688 43.320312 63.929688 43.316406 C 63.929688 43.316406 63.953125 43.46875 64 43.734375 C 64.039062 44 64.109375 44.378906 64.175781 44.835938 C 64.207031 45.066406 64.242188 45.3125 64.277344 45.574219 C 64.320312 45.835938 64.34375 46.113281 64.378906 46.402344 C 64.394531 46.542969 64.414062 46.691406 64.429688 46.839844 C 64.441406 46.988281 64.457031 47.136719 64.46875 47.289062 C 64.496094 47.59375 64.523438 47.898438 64.539062 48.210938 C 64.558594 48.519531 64.578125 48.824219 64.582031 49.132812 C 64.589844 49.285156 64.59375 49.4375 64.597656 49.585938 L 64.597656 50.027344 C 64.601562 50.320312 64.585938 50.601562 64.578125 50.871094 C 64.5625 51.136719 64.554688 51.390625 64.527344 51.628906 C 64.507812 51.859375 64.480469 52.078125 64.453125 52.269531 C 64.425781 52.460938 64.398438 52.628906 64.371094 52.765625 C 64.355469 52.847656 64.339844 52.917969 64.324219 52.976562 C 65.199219 53.210938 66.046875 53.480469 66.871094 53.78125 C 66.992188 53.703125 67.125 53.613281 67.265625 53.515625 C 67.929688 53.050781 68.777344 52.378906 69.507812 51.585938 C 69.6875 51.386719 69.867188 51.179688 70.027344 50.96875 C 70.066406 50.917969 70.105469 50.867188 70.144531 50.8125 C 70.183594 50.757812 70.222656 50.703125 70.257812 50.652344 C 70.332031 50.546875 70.402344 50.4375 70.46875 50.332031 C 70.601562 50.113281 70.710938 49.898438 70.808594 49.6875 C 70.855469 49.582031 70.894531 49.476562 70.9375 49.375 C 70.960938 49.304688 70.984375 49.238281 71.003906 49.175781 C 71.015625 49.140625 71.023438 49.105469 71.035156 49.074219 C 71.089844 48.878906 71.128906 48.695312 71.148438 48.53125 C 71.179688 48.367188 71.175781 48.222656 71.183594 48.105469 C 71.1875 47.984375 71.179688 47.890625 71.179688 47.828125 C 71.175781 47.761719 71.175781 47.730469 71.175781 47.730469 C 71.175781 47.730469 71.179688 47.761719 71.1875 47.828125 C 71.191406 47.890625 71.210938 47.984375 71.214844 48.105469 C 71.214844 48.222656 71.230469 48.371094 71.214844 48.539062 C 71.210938 48.707031 71.179688 48.894531 71.144531 49.101562 C 71.117188 49.199219 71.097656 49.308594 71.066406 49.417969 C 71.03125 49.523438 71 49.636719 70.960938 49.75 C 70.949219 49.777344 70.941406 49.804688 70.925781 49.835938 C 70.851562 50.035156 70.765625 50.238281 70.660156 50.4375 C 70.601562 50.554688 70.542969 50.671875 70.472656 50.789062 C 70.4375 50.84375 70.402344 50.90625 70.371094 50.960938 C 70.332031 51.019531 70.296875 51.078125 70.257812 51.136719 C 70.109375 51.367188 69.945312 51.589844 69.777344 51.8125 C 69.089844 52.691406 68.273438 53.453125 67.628906 53.984375 C 67.605469 54.003906 67.582031 54.027344 67.558594 54.042969 C 68.886719 54.566406 70.144531 55.171875 71.339844 55.867188 C 71.53125 55.980469 71.722656 56.09375 71.914062 56.210938 C 71.945312 56.148438 71.980469 56.074219 72.023438 55.988281 C 72.164062 55.695312 72.363281 55.273438 72.59375 54.765625 C 73.058594 53.753906 73.660156 52.394531 74.203125 51.007812 C 74.476562 50.316406 74.730469 49.617188 74.949219 48.957031 C 75.058594 48.625 75.160156 48.304688 75.25 47.996094 C 75.292969 47.84375 75.335938 47.695312 75.371094 47.546875 C 75.410156 47.402344 75.445312 47.261719 75.476562 47.128906 C 75.507812 46.992188 75.539062 46.863281 75.558594 46.734375 C 75.578125 46.648438 75.59375 46.566406 75.605469 46.484375 C 75.613281 46.449219 75.617188 46.414062 75.621094 46.382812 C 75.636719 46.269531 75.65625 46.164062 75.664062 46.066406 C 75.671875 45.96875 75.683594 45.878906 75.683594 45.796875 C 75.6875 45.71875 75.691406 45.644531 75.691406 45.582031 C 75.691406 45.519531 75.6875 45.464844 75.683594 45.421875 C 75.679688 45.332031 75.679688 45.289062 75.679688 45.289062 C 75.679688 45.289062 75.683594 45.332031 75.695312 45.421875 C 75.699219 45.464844 75.707031 45.519531 75.710938 45.582031 C 75.710938 45.644531 75.714844 45.71875 75.714844 45.800781 C 75.71875 45.867188 75.714844 45.9375 75.710938 46.011719 C 75.710938 46.03125 75.710938 46.050781 75.710938 46.070312 C 75.707031 46.171875 75.699219 46.277344 75.6875 46.390625 C 75.675781 46.503906 75.664062 46.625 75.644531 46.75 C 75.628906 46.878906 75.609375 47.011719 75.582031 47.148438 C 75.5625 47.289062 75.535156 47.433594 75.503906 47.578125 C 75.476562 47.730469 75.441406 47.882812 75.40625 48.039062 C 75.335938 48.351562 75.253906 48.679688 75.164062 49.019531 C 74.984375 49.699219 74.765625 50.414062 74.535156 51.128906 C 74.070312 52.550781 73.550781 53.953125 73.144531 55 C 72.9375 55.523438 72.765625 55.957031 72.640625 56.261719 C 72.582031 56.398438 72.539062 56.507812 72.503906 56.589844 C 73.285156 57.101562 74.019531 57.648438 74.707031 58.226562 C 75.398438 58.804688 76.039062 59.414062 76.628906 60.054688 C 76.671875 59.972656 76.726562 59.875 76.785156 59.765625 C 76.988281 59.386719 77.277344 58.839844 77.613281 58.175781 C 78.285156 56.855469 79.152344 55.074219 79.917969 53.25 C 80.109375 52.792969 80.300781 52.339844 80.472656 51.882812 C 80.652344 51.429688 80.816406 50.980469 80.96875 50.542969 C 81.121094 50.105469 81.257812 49.679688 81.378906 49.269531 C 81.4375 49.066406 81.492188 48.867188 81.546875 48.675781 C 81.59375 48.480469 81.640625 48.292969 81.683594 48.113281 C 81.726562 47.933594 81.761719 47.757812 81.796875 47.59375 C 81.828125 47.425781 81.851562 47.269531 81.875 47.121094 C 81.902344 46.972656 81.914062 46.832031 81.929688 46.699219 C 81.949219 46.570312 81.953125 46.453125 81.960938 46.34375 C 81.964844 46.234375 81.972656 46.140625 81.972656 46.054688 C 81.972656 46.015625 81.972656 45.976562 81.96875 45.941406 C 81.96875 45.941406 81.96875 45.941406 81.96875 45.9375 C 81.96875 45.902344 81.96875 45.871094 81.96875 45.84375 C 81.96875 45.726562 81.964844 45.664062 81.964844 45.664062 C 81.964844 45.664062 81.96875 45.679688 81.96875 45.707031 C 81.96875 45.722656 81.972656 45.738281 81.972656 45.761719 C 81.972656 45.765625 81.972656 45.777344 81.972656 45.785156 C 81.972656 45.792969 81.976562 45.800781 81.976562 45.8125 C 81.976562 45.816406 81.976562 45.824219 81.976562 45.832031 C 81.976562 45.855469 81.980469 45.882812 81.980469 45.914062 C 81.980469 45.925781 81.984375 45.9375 81.984375 45.953125 C 81.988281 45.984375 81.988281 46.023438 81.992188 46.0625 C 81.992188 46.144531 81.988281 46.238281 81.988281 46.34375 C 81.988281 46.453125 81.988281 46.574219 81.976562 46.707031 C 81.964844 46.835938 81.960938 46.976562 81.941406 47.128906 C 81.921875 47.277344 81.90625 47.4375 81.882812 47.609375 C 81.851562 47.777344 81.824219 47.953125 81.792969 48.136719 C 81.753906 48.320312 81.71875 48.507812 81.679688 48.707031 C 81.632812 48.902344 81.589844 49.105469 81.535156 49.3125 C 81.433594 49.730469 81.3125 50.164062 81.179688 50.609375 C 81.046875 51.058594 80.898438 51.515625 80.742188 51.980469 C 80.585938 52.445312 80.417969 52.914062 80.246094 53.378906 C 79.554688 55.246094 78.765625 57.074219 78.148438 58.433594 C 77.839844 59.113281 77.574219 59.679688 77.386719 60.070312 C 77.261719 60.328125 77.171875 60.511719 77.125 60.609375 C 77.859375 61.464844 78.503906 62.363281 79.050781 63.300781 C 80.535156 65.847656 81.382812 68.367188 81.582031 70.824219 C 81.597656 70.871094 81.613281 70.914062 81.625 70.957031 L 81.59375 70.96875 C 81.625 71.449219 81.640625 71.929688 81.625 72.40625 L 81.675781 72.382812 C 81.800781 72.308594 81.957031 72.230469 82.125 72.121094 C 82.296875 72.015625 82.484375 71.882812 82.6875 71.738281 C 82.789062 71.667969 82.890625 71.578125 82.996094 71.496094 C 83.101562 71.410156 83.210938 71.324219 83.316406 71.226562 C 83.421875 71.128906 83.53125 71.027344 83.644531 70.925781 C 83.753906 70.820312 83.855469 70.703125 83.96875 70.59375 C 84.195312 70.371094 84.390625 70.109375 84.609375 69.855469 C 84.71875 69.730469 84.804688 69.585938 84.90625 69.453125 C 85.003906 69.3125 85.105469 69.175781 85.203125 69.035156 C 85.289062 68.890625 85.378906 68.746094 85.464844 68.597656 L 85.597656 68.382812 C 85.644531 68.3125 85.6875 68.238281 85.722656 68.164062 C 85.871094 67.863281 86.027344 67.570312 86.160156 67.277344 C 86.285156 66.980469 86.402344 66.695312 86.515625 66.421875 C 86.617188 66.144531 86.695312 65.878906 86.777344 65.636719 C 86.820312 65.511719 86.855469 65.394531 86.894531 65.28125 C 86.929688 65.171875 86.949219 65.0625 86.976562 64.960938 C 87.027344 64.753906 87.070312 64.578125 87.105469 64.429688 C 87.160156 64.207031 87.199219 64.058594 87.214844 64 C 87.203125 64.058594 87.175781 64.210938 87.136719 64.4375 C 87.132812 64.46875 87.125 64.503906 87.121094 64.535156 C 87.097656 64.664062 87.070312 64.8125 87.042969 64.976562 C 87.019531 65.078125 87.007812 65.191406 86.976562 65.304688 C 86.949219 65.417969 86.917969 65.539062 86.886719 65.664062 C 86.816406 65.914062 86.753906 66.191406 86.667969 66.476562 C 86.574219 66.757812 86.472656 67.054688 86.367188 67.363281 C 86.332031 67.457031 86.292969 67.550781 86.253906 67.644531 C 86.164062 67.855469 86.070312 68.070312 85.976562 68.292969 C 85.945312 68.371094 85.90625 68.449219 85.867188 68.523438 L 85.746094 68.753906 C 85.664062 68.910156 85.582031 69.0625 85.5 69.21875 C 85.414062 69.371094 85.316406 69.519531 85.226562 69.664062 C 85.132812 69.8125 85.050781 69.96875 84.945312 70.105469 C 84.738281 70.382812 84.546875 70.664062 84.328125 70.910156 C 84.21875 71.039062 84.117188 71.164062 84.011719 71.28125 C 83.898438 71.398438 83.792969 71.511719 83.6875 71.617188 C 83.582031 71.730469 83.472656 71.832031 83.367188 71.925781 C 83.257812 72.023438 83.160156 72.121094 83.054688 72.203125 C 82.847656 72.371094 82.660156 72.527344 82.480469 72.652344 C 82.304688 72.785156 82.136719 72.878906 82.007812 72.96875 C 81.867188 73.046875 81.761719 73.113281 81.675781 73.152344 C 81.636719 73.171875 81.609375 73.1875 81.585938 73.199219 C 81.582031 73.203125 81.578125 73.203125 81.574219 73.207031 C 81.238281 76.847656 79.398438 80.234375 76.101562 83.277344 C 75.335938 83.984375 74.550781 84.675781 73.753906 85.347656 C 73.796875 85.371094 73.84375 85.394531 73.890625 85.414062 C 73.96875 85.445312 74.046875 85.484375 74.136719 85.515625 C 74.222656 85.550781 74.316406 85.585938 74.414062 85.617188 C 74.511719 85.652344 74.617188 85.675781 74.71875 85.703125 C 74.726562 85.703125 74.734375 85.707031 74.742188 85.707031 C 74.839844 85.734375 74.941406 85.746094 75.042969 85.769531 C 75.148438 85.777344 75.261719 85.796875 75.367188 85.800781 C 75.476562 85.800781 75.585938 85.8125 75.6875 85.800781 C 75.789062 85.789062 75.890625 85.789062 75.984375 85.765625 C 76.078125 85.746094 76.171875 85.738281 76.25 85.707031 C 76.328125 85.679688 76.40625 85.65625 76.46875 85.632812 C 76.53125 85.605469 76.585938 85.578125 76.632812 85.554688 C 76.710938 85.515625 76.757812 85.492188 76.769531 85.484375 C 76.761719 85.492188 76.714844 85.527344 76.648438 85.582031 C 76.605469 85.609375 76.558594 85.652344 76.5 85.691406 C 76.4375 85.726562 76.367188 85.765625 76.289062 85.808594 C 76.214844 85.859375 76.121094 85.882812 76.027344 85.925781 C 75.933594 85.96875 75.828125 85.988281 75.722656 86.019531 C 75.613281 86.054688 75.496094 86.066406 75.382812 86.085938 C 75.261719 86.105469 75.144531 86.109375 75.023438 86.121094 C 74.902344 86.117188 74.78125 86.125 74.664062 86.117188 C 74.566406 86.109375 74.472656 86.105469 74.378906 86.09375 C 74.355469 86.09375 74.335938 86.089844 74.3125 86.085938 C 74.203125 86.074219 74.09375 86.058594 73.992188 86.039062 C 73.886719 86.023438 73.792969 85.996094 73.703125 85.980469 C 73.527344 85.933594 73.378906 85.894531 73.273438 85.859375 C 73.238281 85.847656 73.207031 85.835938 73.179688 85.828125 C 71.488281 87.222656 69.75 88.523438 67.996094 89.699219 C 67.996094 89.699219 67.996094 89.699219 67.992188 89.703125 C 67.6875 89.90625 67.390625 90.105469 67.082031 90.304688 C 66.421875 90.730469 65.757812 91.140625 65.097656 91.53125 C 65.035156 91.566406 64.976562 91.605469 64.917969 91.640625 C 64.914062 91.640625 64.914062 91.640625 64.910156 91.640625 C 64.484375 91.890625 64.066406 92.128906 63.648438 92.355469 C 63.644531 92.355469 63.644531 92.355469 63.644531 92.355469 C 60.769531 93.925781 58.128906 94.976562 56.105469 95.347656 C 54.867188 95.574219 53.457031 95.738281 51.96875 95.738281 C 49.972656 95.738281 47.835938 95.445312 45.773438 94.609375 C 44.628906 94.148438 43.511719 93.515625 42.453125 92.675781 C 41.054688 91.5625 39.871094 90.160156 38.898438 88.472656 C 38.789062 88.476562 38.679688 88.488281 38.5625 88.507812 C 38.085938 88.585938 37.527344 88.800781 36.929688 89.109375 C 34.023438 90.597656 30.148438 94.242188 29.605469 94.761719 L 29.847656 122.90625 L 29.90625 130.128906 C 30.625 130.109375 31.820312 130.144531 33.207031 130.246094 C 33.246094 130.226562 33.285156 130.199219 33.324219 130.175781 C 34.105469 129.667969 35.207031 128.914062 36.453125 127.90625 C 37.699219 126.898438 39.089844 125.640625 40.40625 124.132812 C 41.71875 122.628906 42.953125 120.863281 43.808594 118.910156 C 44.234375 117.933594 44.589844 116.917969 44.898438 115.90625 C 45.203125 114.894531 45.453125 113.882812 45.648438 112.894531 C 46.042969 110.917969 46.21875 109.035156 46.242188 107.417969 C 46.257812 106.394531 46.210938 105.476562 46.121094 104.710938 C 46.070312 104.265625 46.007812 103.871094 45.929688 103.53125 C 45.832031 103.074219 45.710938 102.722656 45.597656 102.496094 C 45.59375 102.496094 45.59375 102.492188 45.59375 102.492188 C 45.539062 102.382812 45.480469 102.300781 45.4375 102.253906 C 45.417969 102.226562 45.398438 102.210938 45.386719 102.199219 C 45.402344 102.210938 45.417969 102.226562 45.441406 102.25 C 45.484375 102.296875 45.542969 102.375 45.605469 102.488281 C 45.730469 102.710938 45.859375 103.0625 45.976562 103.523438 C 46.117188 104.085938 46.234375 104.8125 46.3125 105.664062 C 46.359375 106.203125 46.390625 106.789062 46.398438 107.417969 C 46.425781 109.042969 46.304688 110.945312 45.964844 112.953125 C 45.796875 113.957031 45.578125 114.988281 45.296875 116.019531 C 45.015625 117.054688 44.683594 118.089844 44.277344 119.109375 C 43.449219 121.144531 42.230469 122.996094 40.925781 124.574219 C 39.621094 126.160156 38.234375 127.484375 36.988281 128.550781 C 36.132812 129.28125 35.34375 129.886719 34.679688 130.375 C 35.691406 130.472656 36.746094 130.605469 37.75 130.773438 C 37.816406 130.738281 37.890625 130.699219 37.96875 130.660156 C 38.773438 130.238281 39.898438 129.554688 41.128906 128.570312 C 42.359375 127.585938 43.691406 126.296875 44.921875 124.746094 C 45.539062 123.96875 46.128906 123.128906 46.679688 122.246094 C 46.957031 121.804688 47.21875 121.347656 47.476562 120.886719 C 47.601562 120.652344 47.722656 120.417969 47.847656 120.1875 L 48.214844 119.472656 C 50.171875 115.660156 52.144531 111.859375 53.507812 108.957031 C 54.191406 107.503906 54.71875 106.273438 55.003906 105.382812 C 55.023438 105.316406 55.046875 105.25 55.0625 105.183594 C 55.167969 104.828125 55.226562 104.539062 55.226562 104.324219 C 55.230469 104.199219 55.207031 104.105469 55.179688 104.046875 C 55.171875 104.023438 55.160156 104.007812 55.152344 103.996094 C 55.164062 104.007812 55.171875 104.023438 55.183594 104.046875 C 55.214844 104.101562 55.238281 104.199219 55.238281 104.324219 C 55.242188 104.578125 55.175781 104.945312 55.046875 105.394531 C 54.789062 106.300781 54.292969 107.546875 53.65625 109.023438 C 52.371094 111.972656 50.515625 115.832031 48.675781 119.699219 L 48.328125 120.421875 C 48.207031 120.664062 48.089844 120.90625 47.96875 121.148438 C 47.71875 121.625 47.46875 122.097656 47.195312 122.554688 C 46.660156 123.476562 46.078125 124.351562 45.464844 125.164062 C 44.246094 126.792969 42.90625 128.164062 41.660156 129.21875 C 40.753906 129.984375 39.894531 130.589844 39.171875 131.042969 C 40.308594 131.285156 41.300781 131.585938 41.996094 131.941406 C 42.507812 132.207031 43.179688 132.59375 43.9375 133.042969 C 44.390625 132.984375 44.910156 132.914062 45.480469 132.832031 C 47.589844 132.53125 50.394531 132.097656 53.183594 131.570312 C 55.972656 131.039062 58.742188 130.410156 60.757812 129.730469 C 61.003906 129.652344 61.234375 129.570312 61.453125 129.484375 C 61.457031 129.484375 61.457031 129.484375 61.457031 129.484375 C 62.144531 129.226562 62.710938 128.964844 63.113281 128.714844 C 63.347656 128.570312 63.527344 128.433594 63.644531 128.320312 C 63.652344 128.316406 63.652344 128.3125 63.65625 128.3125 C 63.667969 128.300781 63.675781 128.292969 63.683594 128.285156 C 63.746094 128.226562 63.785156 128.175781 63.8125 128.144531 C 63.828125 128.125 63.839844 128.113281 63.847656 128.101562 C 63.839844 128.113281 63.828125 128.125 63.816406 128.144531 C 63.789062 128.179688 63.753906 128.234375 63.691406 128.292969 C 63.578125 128.417969 63.394531 128.578125 63.132812 128.75 C 62.617188 129.101562 61.8125 129.496094 60.8125 129.878906 C 60.6875 129.925781 60.558594 129.972656 60.429688 130.023438 C 58.46875 130.742188 55.886719 131.4375 53.285156 132.050781 C 50.511719 132.703125 47.71875 133.257812 45.617188 133.652344 C 45.4375 133.683594 45.265625 133.71875 45.097656 133.746094 C 48.242188 135.683594 52.148438 138.28125 52.820312 138.820312 L 52.691406 138.980469 L 52.839844 138.835938 C 52.914062 138.914062 52.988281 138.992188 53.0625 139.070312 C 53.113281 139.039062 53.175781 139.003906 53.257812 138.953125 C 53.363281 138.898438 53.5 138.828125 53.65625 138.753906 C 53.816406 138.683594 54 138.601562 54.214844 138.53125 C 54.636719 138.382812 55.160156 138.257812 55.75 138.15625 C 56.339844 138.058594 57.003906 137.980469 57.722656 137.90625 C 59.160156 137.757812 60.835938 137.613281 62.628906 137.453125 C 63.078125 137.410156 63.535156 137.371094 63.996094 137.328125 C 64.457031 137.289062 64.9375 137.25 65.414062 137.242188 C 66.375 137.214844 67.347656 137.261719 68.3125 137.386719 C 69.277344 137.507812 70.226562 137.707031 71.144531 137.957031 C 72.066406 138.207031 72.953125 138.5 73.804688 138.808594 C 74.652344 139.117188 75.460938 139.433594 76.234375 139.730469 C 77.003906 140.027344 77.734375 140.304688 78.414062 140.535156 C 79.09375 140.765625 79.726562 140.953125 80.292969 141.09375 C 80.863281 141.230469 81.363281 141.332031 81.777344 141.386719 C 81.984375 141.421875 82.171875 141.4375 82.335938 141.457031 C 82.496094 141.480469 82.632812 141.488281 82.746094 141.496094 C 82.886719 141.503906 82.988281 141.511719 83.042969 141.515625 C 82.984375 141.515625 82.886719 141.511719 82.746094 141.503906 C 82.632812 141.5 82.496094 141.496094 82.332031 141.480469 C 82.167969 141.464844 81.980469 141.453125 81.773438 141.421875 C 81.355469 141.378906 80.851562 141.289062 80.277344 141.167969 C 79.703125 141.046875 79.0625 140.871094 78.375 140.660156 C 77.683594 140.445312 76.945312 140.191406 76.164062 139.914062 C 75.386719 139.640625 74.570312 139.34375 73.714844 139.0625 C 72.863281 138.777344 71.976562 138.511719 71.0625 138.289062 C 70.234375 138.089844 69.386719 137.929688 68.53125 137.835938 C 68.441406 137.824219 68.351562 137.8125 68.261719 137.804688 C 67.320312 137.710938 66.367188 137.6875 65.4375 137.742188 C 64.96875 137.765625 64.511719 137.8125 64.054688 137.867188 C 63.59375 137.921875 63.136719 137.976562 62.691406 138.027344 C 60.898438 138.238281 59.230469 138.425781 57.804688 138.613281 C 57.097656 138.707031 56.449219 138.804688 55.886719 138.910156 C 55.324219 139.023438 54.855469 139.152344 54.488281 139.289062 C 54.304688 139.355469 54.148438 139.433594 54.011719 139.496094 C 53.875 139.566406 53.765625 139.628906 53.671875 139.679688 C 53.660156 139.6875 53.648438 139.695312 53.636719 139.703125 C 55.308594 141.636719 56.34375 143.648438 56.925781 145.640625 C 59.125 153.125 54.917969 160.242188 53.964844 161.195312 C 52.917969 162.242188 49.738281 162.34375 48.539062 162.34375 C 48.476562 162.34375 48.414062 162.34375 48.363281 162.34375 C 48.667969 163.472656 50.117188 167.992188 53.90625 168.820312 C 54.527344 168.957031 55.1875 169.09375 55.882812 169.238281 C 60.34375 170.171875 65.402344 171.226562 66.296875 173.015625 C 67.238281 174.898438 76.527344 177.554688 83.144531 177.828125 C 89.019531 178.074219 91.550781 174.945312 95.734375 169.757812 C 96.285156 169.078125 96.859375 168.371094 97.472656 167.625 C 100.363281 164.121094 101.535156 161.03125 101.160156 157.890625 Z M 101.160156 157.890625 " fill-opacity="1" fill-rule="nonzero"/></g><path fill="#e2e3df" d="M 45.375 102.183594 C 45.375 102.1875 45.382812 102.195312 45.386719 102.199219 C 45.382812 102.191406 45.375 102.1875 45.375 102.183594 Z M 45.375 102.183594 " fill-opacity="1" fill-rule="nonzero"/><path fill="#231f20" d="M 76.511719 70.214844 C 76.511719 70.425781 76.472656 70.625 76.390625 70.820312 C 76.3125 71.015625 76.195312 71.1875 76.046875 71.335938 C 75.898438 71.484375 75.726562 71.597656 75.535156 71.679688 C 75.339844 71.757812 75.136719 71.800781 74.925781 71.800781 C 74.71875 71.800781 74.515625 71.757812 74.320312 71.679688 C 74.128906 71.597656 73.957031 71.484375 73.808594 71.335938 C 73.660156 71.1875 73.542969 71.015625 73.464844 70.820312 C 73.382812 70.625 73.34375 70.425781 73.34375 70.214844 C 73.34375 70.003906 73.382812 69.800781 73.464844 69.605469 C 73.542969 69.414062 73.660156 69.242188 73.808594 69.09375 C 73.957031 68.945312 74.128906 68.828125 74.320312 68.75 C 74.515625 68.667969 74.71875 68.628906 74.925781 68.628906 C 75.136719 68.628906 75.339844 68.667969 75.535156 68.75 C 75.726562 68.828125 75.898438 68.945312 76.046875 69.09375 C 76.195312 69.242188 76.3125 69.414062 76.390625 69.605469 C 76.472656 69.800781 76.511719 70.003906 76.511719 70.214844 Z M 76.511719 70.214844 " fill-opacity="1" fill-rule="nonzero"/><path fill="#ffffff" d="M 74.785156 72.214844 C 74.832031 72.21875 74.878906 72.222656 74.925781 72.222656 C 76.035156 72.222656 76.933594 71.320312 76.933594 70.214844 C 76.933594 70.105469 76.921875 69.996094 76.90625 69.894531 C 77.632812 70.855469 78.214844 72.167969 78.652344 73.824219 C 78.015625 73.738281 76.414062 73.414062 74.785156 72.214844 Z M 74.785156 72.214844 " fill-opacity="1" fill-rule="nonzero"/><path fill="#ffffff" d="M 74.777344 68.214844 C 73.742188 68.292969 72.921875 69.15625 72.921875 70.214844 C 72.921875 70.265625 72.925781 70.320312 72.929688 70.371094 C 72.476562 69.773438 72.050781 69.078125 71.6875 68.257812 C 72.144531 68.078125 73.410156 67.695312 74.777344 68.214844 Z M 74.777344 68.214844 " fill-opacity="1" fill-rule="nonzero"/><path fill="#231f20" d="M 64.75 63.105469 L 64.945312 63.140625 L 64.992188 62.949219 C 65.015625 62.867188 65.496094 60.890625 64.171875 59.140625 C 62.964844 57.546875 60.679688 56.699219 57.390625 56.625 L 57.109375 56.617188 L 57.179688 56.890625 C 57.195312 56.941406 58.570312 61.953125 64.75 63.105469 Z M 64.75 63.105469 " fill-opacity="1" fill-rule="nonzero"/><path fill="#231f20" d="M 61.074219 57.589844 C 61.53125 57.738281 61.941406 57.914062 62.316406 58.121094 C 62.496094 58.320312 62.621094 58.566406 62.679688 58.828125 C 62.871094 59.683594 62.328125 60.53125 61.476562 60.722656 C 61.0625 60.8125 60.640625 60.738281 60.28125 60.511719 C 59.925781 60.285156 59.679688 59.929688 59.585938 59.519531 C 59.398438 58.664062 59.9375 57.816406 60.792969 57.625 C 60.886719 57.605469 60.980469 57.59375 61.074219 57.589844 Z M 61.074219 57.589844 " fill-opacity="1" fill-rule="nonzero"/><path fill="#ffffff" d="M 63.832031 59.390625 C 64.804688 60.671875 64.699219 62.128906 64.621094 62.648438 C 63.136719 62.347656 61.949219 61.808594 61.007812 61.179688 C 61.046875 61.179688 61.085938 61.183594 61.128906 61.183594 C 61.273438 61.183594 61.421875 61.167969 61.570312 61.132812 C 62.089844 61.015625 62.539062 60.703125 62.828125 60.25 C 63.113281 59.800781 63.207031 59.261719 63.09375 58.738281 C 63.082031 58.695312 63.070312 58.652344 63.058594 58.613281 C 63.355469 58.847656 63.613281 59.105469 63.832031 59.390625 Z M 63.832031 59.390625 " fill-opacity="1" fill-rule="nonzero"/><path fill="#ffffff" d="M 60.257812 57.371094 C 59.460938 57.757812 58.996094 58.640625 59.164062 59.539062 C 58.285156 58.503906 57.851562 57.519531 57.679688 57.054688 C 58.632812 57.09375 59.492188 57.199219 60.257812 57.371094 Z M 60.257812 57.371094 " fill-opacity="1" fill-rule="nonzero"/><path fill="#5fbcde" d="M 55.144531 103.992188 C 55.144531 104.007812 55.144531 104.027344 55.140625 104.046875 C 55.144531 104.019531 55.144531 104 55.144531 103.992188 Z M 55.144531 103.992188 " fill-opacity="1" fill-rule="nonzero"/><path fill="#5fbcde" d="M 55.136719 104.132812 C 55.140625 104.101562 55.140625 104.074219 55.140625 104.046875 C 55.140625 104.070312 55.140625 104.097656 55.136719 104.132812 Z M 55.136719 104.132812 " fill-opacity="1" fill-rule="nonzero"/><path fill="#5fbcde" d="M 63.644531 128.320312 C 63.554688 128.378906 63.449219 128.433594 63.328125 128.488281 C 63.492188 128.398438 63.601562 128.339844 63.65625 128.3125 C 63.675781 128.300781 63.6875 128.296875 63.691406 128.292969 C 63.675781 128.304688 63.660156 128.3125 63.644531 128.320312 Z M 63.644531 128.320312 " fill-opacity="1" fill-rule="nonzero"/><path fill="#bebfbc" d="M 32.140625 73.117188 C 32.117188 73.191406 32.101562 73.253906 32.09375 73.292969 C 32.09375 73.292969 32.082031 72.980469 32.46875 72.542969 C 32.378906 72.648438 32.308594 72.75 32.253906 72.847656 C 32.203125 72.949219 32.164062 73.039062 32.140625 73.117188 Z M 32.140625 73.117188 " fill-opacity="1" fill-rule="nonzero"/><path fill="#bebfbc" d="M 40.851562 51.75 C 40.851562 51.75 40.847656 51.746094 40.847656 51.742188 C 40.863281 51.753906 40.882812 51.769531 40.902344 51.789062 C 40.878906 51.773438 40.863281 51.757812 40.851562 51.75 Z M 40.851562 51.75 " fill-opacity="1" fill-rule="nonzero"/><path fill="#bebfbc" d="M 55.226562 45.300781 C 55.207031 45.277344 55.195312 45.261719 55.191406 45.253906 C 55.195312 45.257812 55.207031 45.269531 55.222656 45.289062 C 55.222656 45.289062 55.226562 45.289062 55.226562 45.292969 C 55.238281 45.308594 55.253906 45.324219 55.265625 45.34375 C 55.253906 45.332031 55.242188 45.316406 55.230469 45.304688 C 55.226562 45.300781 55.226562 45.300781 55.226562 45.300781 Z M 55.226562 45.300781 " fill-opacity="1" fill-rule="nonzero"/><path fill="#bebfbc" d="M 81.96875 45.707031 C 81.96875 45.679688 81.964844 45.664062 81.964844 45.664062 C 81.972656 45.710938 81.976562 45.765625 81.976562 45.828125 C 81.976562 45.824219 81.976562 45.816406 81.976562 45.8125 C 81.976562 45.800781 81.972656 45.792969 81.972656 45.785156 C 81.972656 45.777344 81.972656 45.765625 81.972656 45.761719 C 81.972656 45.738281 81.96875 45.722656 81.96875 45.707031 Z M 81.96875 45.707031 " fill-opacity="1" fill-rule="nonzero"/></g></g></g><g mask="url(#5f65f5b3e0)"><g transform="matrix(1, 0, 0, 1, 17, 44)"><g clip-path="url(#78f3db8529)"><g fill="#000000" fill-opacity="1"><g transform="translate(0.837913, 60.579316)"><g><path d="M 39.375 -52.46875 L 50.546875 -52.46875 L 50.546875 0 L 39.890625 0 L 14.65625 -34.265625 L 14.65625 0 L 3.484375 0 L 3.484375 -52.46875 L 13.984375 -52.46875 L 39.375 -17.984375 Z M 39.375 -52.46875 "/></g></g></g><g fill="#000000" fill-opacity="1"><g transform="translate(57.808774, 60.579316)"><g><path d="M 28.265625 -53.203125 C 31.816406 -53.203125 35.171875 -52.484375 38.328125 -51.046875 C 41.484375 -49.617188 44.234375 -47.671875 46.578125 -45.203125 C 48.921875 -42.742188 50.769531 -39.882812 52.125 -36.625 C 53.488281 -33.375 54.171875 -29.898438 54.171875 -26.203125 C 54.171875 -22.546875 53.488281 -19.0625 52.125 -15.75 C 50.769531 -12.445312 48.921875 -9.5625 46.578125 -7.09375 C 44.234375 -4.632812 41.484375 -2.675781 38.328125 -1.21875 C 35.171875 0.238281 31.816406 0.96875 28.265625 0.96875 C 24.710938 0.96875 21.359375 0.238281 18.203125 -1.21875 C 15.046875 -2.675781 12.304688 -4.632812 9.984375 -7.09375 C 7.671875 -9.5625 5.832031 -12.445312 4.46875 -15.75 C 3.113281 -19.0625 2.4375 -22.546875 2.4375 -26.203125 C 2.4375 -29.898438 3.113281 -33.375 4.46875 -36.625 C 5.832031 -39.882812 7.671875 -42.742188 9.984375 -45.203125 C 12.304688 -47.671875 15.046875 -49.617188 18.203125 -51.046875 C 21.359375 -52.484375 24.710938 -53.203125 28.265625 -53.203125 Z M 28.265625 -10.21875 C 30.285156 -10.21875 32.179688 -10.632812 33.953125 -11.46875 C 35.734375 -12.3125 37.289062 -13.457031 38.625 -14.90625 C 39.957031 -16.363281 41.003906 -18.050781 41.765625 -19.96875 C 42.535156 -21.894531 42.921875 -23.972656 42.921875 -26.203125 C 42.921875 -28.421875 42.535156 -30.503906 41.765625 -32.453125 C 41.003906 -34.398438 39.957031 -36.097656 38.625 -37.546875 C 37.289062 -39.003906 35.734375 -40.148438 33.953125 -40.984375 C 32.179688 -41.828125 30.285156 -42.25 28.265625 -42.25 C 26.242188 -42.25 24.34375 -41.828125 22.5625 -40.984375 C 20.789062 -40.148438 19.238281 -39.003906 17.90625 -37.546875 C 16.570312 -36.097656 15.519531 -34.398438 14.75 -32.453125 C 13.988281 -30.503906 13.609375 -28.421875 13.609375 -26.203125 C 13.609375 -23.972656 13.988281 -21.894531 14.75 -19.96875 C 15.519531 -18.050781 16.570312 -16.363281 17.90625 -14.90625 C 19.238281 -13.457031 20.789062 -12.3125 22.5625 -11.46875 C 24.34375 -10.632812 26.242188 -10.21875 28.265625 -10.21875 Z M 28.265625 -10.21875 "/></g></g></g><g fill="#000000" fill-opacity="1"><g transform="translate(0.837913, 128.768693)"><g><path d="M 3.546875 -52.46875 L 36.328125 -52.46875 L 36.328125 -42.25 L 14.796875 -42.25 L 14.796875 -32.78125 L 33.75 -32.78125 L 33.75 -22.5625 L 14.796875 -22.5625 L 14.796875 -10.140625 L 36.328125 -10.140625 L 36.328125 0 L 3.546875 0 Z M 3.546875 -52.46875 "/></g></g></g><g fill="#000000" fill-opacity="1"><g transform="translate(43.677217, 128.768693)"><g><path d="M 35.078125 -28.265625 L 53.953125 0 L 40.484375 0 L 28.265625 -18.125 L 16.125 0 L 2.59375 0 L 21.53125 -28.265625 L 5.328125 -52.46875 L 18.796875 -52.46875 L 28.265625 -38.328125 L 37.734375 -52.46875 L 51.28125 -52.46875 Z M 35.078125 -28.265625 "/></g></g></g><g fill="#000000" fill-opacity="1"><g transform="translate(103.163631, 128.768693)"><g><path d="M 22.5625 -52.46875 L 22.5625 -43 L 18.640625 -43 L 18.640625 -9.390625 L 22.5625 -9.390625 L 22.5625 0 L 3.484375 0 L 3.484375 -9.390625 L 7.40625 -9.390625 L 7.40625 -43 L 3.484375 -43 L 3.484375 -52.46875 Z M 22.5625 -52.46875 "/></g></g></g><g fill="#000000" fill-opacity="1"><g transform="translate(132.093317, 128.768693)"><g><path d="M 36.859375 -27.015625 C 38.921875 -25.773438 40.492188 -24.191406 41.578125 -22.265625 C 42.671875 -20.347656 43.21875 -18.128906 43.21875 -15.609375 C 43.21875 -13.242188 42.648438 -11.035156 41.515625 -8.984375 C 40.378906 -6.941406 38.773438 -5.128906 36.703125 -3.546875 C 34.828125 -2.117188 32.691406 -1.019531 30.296875 -0.25 C 27.910156 0.507812 25.382812 0.914062 22.71875 0.96875 C 20.050781 0.96875 17.507812 0.597656 15.09375 -0.140625 C 12.675781 -0.890625 10.53125 -2.003906 8.65625 -3.484375 C 5.84375 -5.597656 3.921875 -8.160156 2.890625 -11.171875 L 13.25 -15.984375 C 13.25 -15.492188 13.421875 -14.878906 13.765625 -14.140625 C 14.109375 -13.398438 14.648438 -12.679688 15.390625 -11.984375 C 16.128906 -11.296875 17.085938 -10.703125 18.265625 -10.203125 C 19.453125 -9.710938 20.910156 -9.46875 22.640625 -9.46875 C 24.023438 -9.46875 25.242188 -9.640625 26.296875 -9.984375 C 27.359375 -10.335938 28.25 -10.769531 28.96875 -11.28125 C 29.6875 -11.800781 30.226562 -12.394531 30.59375 -13.0625 C 30.96875 -13.726562 31.15625 -14.40625 31.15625 -15.09375 C 31.15625 -15.882812 30.894531 -16.625 30.375 -17.3125 C 29.851562 -18.007812 29.050781 -18.550781 27.96875 -18.9375 C 26 -19.632812 23.914062 -20.21875 21.71875 -20.6875 C 19.519531 -21.15625 17.382812 -21.742188 15.3125 -22.453125 C 13.238281 -23.171875 11.3125 -24.117188 9.53125 -25.296875 C 7.757812 -26.484375 6.359375 -28.140625 5.328125 -30.265625 C 4.390625 -32.140625 3.921875 -34.140625 3.921875 -36.265625 C 3.921875 -38.628906 4.472656 -40.921875 5.578125 -43.140625 C 6.691406 -45.359375 8.210938 -47.234375 10.140625 -48.765625 C 11.960938 -50.191406 14.007812 -51.285156 16.28125 -52.046875 C 18.550781 -52.816406 20.941406 -53.203125 23.453125 -53.203125 C 25.972656 -53.203125 28.378906 -52.832031 30.671875 -52.09375 C 32.960938 -51.351562 35.023438 -50.269531 36.859375 -48.84375 C 38.628906 -47.507812 40.03125 -45.953125 41.0625 -44.171875 L 32.640625 -38.40625 C 31.597656 -39.832031 30.300781 -40.976562 28.75 -41.84375 C 27.195312 -42.707031 25.457031 -43.140625 23.53125 -43.140625 C 20.863281 -43.140625 18.800781 -42.546875 17.34375 -41.359375 C 15.894531 -40.179688 15.171875 -38.628906 15.171875 -36.703125 C 15.171875 -35.816406 15.578125 -35.023438 16.390625 -34.328125 C 17.203125 -33.640625 18.257812 -33.023438 19.5625 -32.484375 C 20.875 -31.941406 22.34375 -31.457031 23.96875 -31.03125 C 25.601562 -30.613281 27.222656 -30.195312 28.828125 -29.78125 C 30.429688 -29.363281 31.945312 -28.929688 33.375 -28.484375 C 34.800781 -28.046875 35.960938 -27.554688 36.859375 -27.015625 Z M 36.859375 -27.015625 "/></g></g></g><g fill="#000000" fill-opacity="1"><g transform="translate(180.62963, 128.768693)"><g><path d="M 1.703125 -52.46875 L 39.65625 -52.46875 L 39.65625 -42.25 L 26.265625 -42.25 L 26.265625 0 L 15.09375 0 L 15.09375 -42.25 L 1.703125 -42.25 Z M 1.703125 -52.46875 "/></g></g></g><g fill="#000000" fill-opacity="1"><g transform="translate(224.948667, 128.768693)"><g><path d="M 3.546875 -52.46875 L 36.328125 -52.46875 L 36.328125 -42.25 L 14.796875 -42.25 L 14.796875 -32.78125 L 33.75 -32.78125 L 33.75 -22.5625 L 14.796875 -22.5625 L 14.796875 -10.140625 L 36.328125 -10.140625 L 36.328125 0 L 3.546875 0 Z M 3.546875 -52.46875 "/></g></g></g><g fill="#000000" fill-opacity="1"><g transform="translate(267.787974, 128.768693)"><g><path d="M 39.375 -52.46875 L 50.546875 -52.46875 L 50.546875 0 L 39.890625 0 L 14.65625 -34.265625 L 14.65625 0 L 3.484375 0 L 3.484375 -52.46875 L 13.984375 -52.46875 L 39.375 -17.984375 Z M 39.375 -52.46875 "/></g></g></g></g></g></g><g mask="url(#ebaeff4a33)"><g transform="matrix(1, 0, 0, 1, 17, 252)"><g clip-path="url(#fba93bed74)"><g fill="#000000" fill-opacity="1"><g transform="translate(0.837913, 21.163019)"><g><path d="M 1.265625 0 L 1.265625 -14.890625 L 6.546875 -14.890625 C 7.628906 -14.890625 8.582031 -14.691406 9.40625 -14.296875 C 10.226562 -13.910156 10.914062 -13.378906 11.46875 -12.703125 C 12.03125 -12.035156 12.453125 -11.242188 12.734375 -10.328125 C 13.023438 -9.421875 13.171875 -8.457031 13.171875 -7.4375 C 13.171875 -6.394531 13.019531 -5.421875 12.71875 -4.515625 C 12.414062 -3.617188 12 -2.832031 11.46875 -2.15625 C 10.9375 -1.488281 10.304688 -0.960938 9.578125 -0.578125 C 8.847656 -0.191406 8.0625 0 7.21875 0 Z M 6.46875 -2.03125 C 7.269531 -2.03125 7.945312 -2.175781 8.5 -2.46875 C 9.0625 -2.769531 9.523438 -3.164062 9.890625 -3.65625 C 10.253906 -4.144531 10.519531 -4.71875 10.6875 -5.375 C 10.851562 -6.03125 10.9375 -6.71875 10.9375 -7.4375 C 10.9375 -8.144531 10.851562 -8.832031 10.6875 -9.5 C 10.519531 -10.164062 10.253906 -10.75 9.890625 -11.25 C 9.535156 -11.757812 9.078125 -12.164062 8.515625 -12.46875 C 7.953125 -12.769531 7.269531 -12.921875 6.46875 -12.921875 L 3.46875 -12.921875 L 3.46875 -2.03125 Z M 6.46875 -2.03125 "/></g></g></g><g fill="#000000" fill-opacity="1"><g transform="translate(22.727509, 21.163019)"><g><path d="M 5.203125 -13.078125 L 5.203125 -1.8125 L 6.296875 -1.8125 L 6.296875 0 L 1.90625 0 L 1.90625 -1.8125 L 3.03125 -1.8125 L 3.03125 -13.078125 L 1.90625 -13.078125 L 1.90625 -14.890625 L 6.296875 -14.890625 L 6.296875 -13.078125 Z M 5.203125 -13.078125 "/></g></g></g><g fill="#000000" fill-opacity="1"><g transform="translate(38.630844, 21.163019)"><g><path d="M 2.625 0 L 0.234375 0 L 6.421875 -14.890625 L 8.84375 -14.890625 L 15.03125 0 L 12.65625 0 L 10.703125 -4.65625 L 4.5625 -4.65625 Z M 5.390625 -6.671875 L 9.875 -6.671875 L 7.640625 -12.046875 Z M 5.390625 -6.671875 "/></g></g></g><g fill="#000000" fill-opacity="1"><g transform="translate(61.65467, 21.163019)"><g><path d="M 9.484375 -7.953125 L 13.546875 -7.953125 L 13.546875 -2.5 C 12.867188 -1.695312 12.054688 -1.046875 11.109375 -0.546875 C 10.160156 -0.046875 9.125 0.203125 8 0.203125 C 6.988281 0.203125 6.035156 0 5.140625 -0.40625 C 4.242188 -0.8125 3.46875 -1.359375 2.8125 -2.046875 C 2.15625 -2.742188 1.632812 -3.550781 1.25 -4.46875 C 0.863281 -5.394531 0.671875 -6.382812 0.671875 -7.4375 C 0.671875 -8.46875 0.863281 -9.445312 1.25 -10.375 C 1.632812 -11.3125 2.15625 -12.125 2.8125 -12.8125 C 3.46875 -13.507812 4.242188 -14.0625 5.140625 -14.46875 C 6.035156 -14.875 6.988281 -15.078125 8 -15.078125 C 8.925781 -15.078125 9.800781 -14.894531 10.625 -14.53125 C 11.445312 -14.164062 12.191406 -13.691406 12.859375 -13.109375 L 11.546875 -11.4375 C 11.085938 -11.9375 10.550781 -12.332031 9.9375 -12.625 C 9.332031 -12.925781 8.6875 -13.078125 8 -13.078125 C 7.289062 -13.078125 6.625 -12.925781 6 -12.625 C 5.375 -12.332031 4.828125 -11.925781 4.359375 -11.40625 C 3.898438 -10.882812 3.535156 -10.285156 3.265625 -9.609375 C 3.003906 -8.929688 2.875 -8.207031 2.875 -7.4375 C 2.875 -6.664062 3.003906 -5.9375 3.265625 -5.25 C 3.535156 -4.570312 3.898438 -3.976562 4.359375 -3.46875 C 4.828125 -2.957031 5.375 -2.554688 6 -2.265625 C 6.625 -1.972656 7.289062 -1.828125 8 -1.828125 C 8.65625 -1.828125 9.269531 -1.957031 9.84375 -2.21875 C 10.414062 -2.476562 10.925781 -2.820312 11.375 -3.25 L 11.375 -5.921875 L 9.484375 -5.921875 Z M 9.484375 -7.953125 "/></g></g></g><g fill="#000000" fill-opacity="1"><g transform="translate(84.216407, 21.163019)"><g><path d="M 14 -14.890625 L 14 0 L 11.78125 0 L 3.46875 -11.421875 L 3.46875 0 L 1.171875 0 L 1.171875 -14.890625 L 3.484375 -14.890625 L 11.796875 -3.40625 L 11.796875 -14.890625 Z M 14 -14.890625 "/></g></g></g><g fill="#000000" fill-opacity="1"><g transform="translate(107.093209, 21.163019)"><g><path d="M 8.078125 -15.09375 C 9.085938 -15.09375 10.039062 -14.890625 10.9375 -14.484375 C 11.832031 -14.078125 12.613281 -13.523438 13.28125 -12.828125 C 13.945312 -12.140625 14.472656 -11.332031 14.859375 -10.40625 C 15.253906 -9.476562 15.453125 -8.492188 15.453125 -7.453125 C 15.453125 -6.398438 15.253906 -5.410156 14.859375 -4.484375 C 14.472656 -3.566406 13.941406 -2.757812 13.265625 -2.0625 C 12.597656 -1.375 11.816406 -0.828125 10.921875 -0.421875 C 10.023438 -0.015625 9.070312 0.1875 8.0625 0.1875 C 7.050781 0.1875 6.097656 -0.015625 5.203125 -0.421875 C 4.304688 -0.828125 3.523438 -1.375 2.859375 -2.0625 C 2.203125 -2.757812 1.679688 -3.566406 1.296875 -4.484375 C 0.910156 -5.410156 0.71875 -6.398438 0.71875 -7.453125 C 0.71875 -8.492188 0.910156 -9.476562 1.296875 -10.40625 C 1.679688 -11.332031 2.207031 -12.140625 2.875 -12.828125 C 3.550781 -13.523438 4.335938 -14.078125 5.234375 -14.484375 C 6.128906 -14.890625 7.078125 -15.09375 8.078125 -15.09375 Z M 8.078125 -1.890625 C 8.796875 -1.890625 9.46875 -2.03125 10.09375 -2.3125 C 10.71875 -2.601562 11.257812 -3 11.71875 -3.5 C 12.175781 -4.007812 12.535156 -4.601562 12.796875 -5.28125 C 13.066406 -5.957031 13.203125 -6.679688 13.203125 -7.453125 C 13.203125 -8.222656 13.066406 -8.941406 12.796875 -9.609375 C 12.535156 -10.285156 12.175781 -10.875 11.71875 -11.375 C 11.257812 -11.882812 10.71875 -12.28125 10.09375 -12.5625 C 9.46875 -12.851562 8.796875 -13 8.078125 -13 C 7.367188 -13 6.703125 -12.851562 6.078125 -12.5625 C 5.453125 -12.28125 4.910156 -11.882812 4.453125 -11.375 C 3.992188 -10.875 3.625 -10.285156 3.34375 -9.609375 C 3.070312 -8.941406 2.9375 -8.222656 2.9375 -7.453125 C 2.9375 -6.679688 3.070312 -5.957031 3.34375 -5.28125 C 3.625 -4.601562 3.992188 -4.007812 4.453125 -3.5 C 4.910156 -3 5.453125 -2.601562 6.078125 -2.3125 C 6.703125 -2.03125 7.367188 -1.890625 8.078125 -1.890625 Z M 9.484375 -19.609375 L 8.296875 -15.875 L 6.640625 -15.875 L 7.140625 -19.609375 Z M 9.484375 -19.609375 "/></g></g></g><g fill="#000000" fill-opacity="1"><g transform="translate(130.852203, 21.163019)"><g><path d="M 11.109375 -4.171875 C 11.109375 -3.546875 10.984375 -2.960938 10.734375 -2.421875 C 10.484375 -1.878906 10.113281 -1.410156 9.625 -1.015625 C 8.65625 -0.203125 7.414062 0.203125 5.90625 0.203125 C 4.726562 0.203125 3.660156 -0.0351562 2.703125 -0.515625 C 1.753906 -0.992188 1.054688 -1.640625 0.609375 -2.453125 L 2.484375 -3.421875 C 2.753906 -2.921875 3.191406 -2.53125 3.796875 -2.25 C 4.410156 -1.976562 5.113281 -1.84375 5.90625 -1.84375 C 7.9375 -1.84375 8.953125 -2.617188 8.953125 -4.171875 C 8.953125 -4.472656 8.894531 -4.726562 8.78125 -4.9375 C 8.675781 -5.144531 8.519531 -5.335938 8.3125 -5.515625 C 7.8125 -5.941406 6.910156 -6.320312 5.609375 -6.65625 C 4.828125 -6.851562 4.160156 -7.070312 3.609375 -7.3125 C 3.066406 -7.550781 2.613281 -7.828125 2.25 -8.140625 C 1.363281 -8.859375 0.921875 -9.804688 0.921875 -10.984375 C 0.921875 -11.566406 1.035156 -12.113281 1.265625 -12.625 C 1.492188 -13.132812 1.820312 -13.582031 2.25 -13.96875 C 2.675781 -14.34375 3.179688 -14.625 3.765625 -14.8125 C 4.347656 -15 4.988281 -15.09375 5.6875 -15.09375 C 6.707031 -15.09375 7.648438 -14.894531 8.515625 -14.5 C 9.378906 -14.113281 10.035156 -13.566406 10.484375 -12.859375 L 8.78125 -11.796875 C 8.375 -12.285156 7.90625 -12.628906 7.375 -12.828125 C 6.84375 -13.035156 6.28125 -13.140625 5.6875 -13.140625 C 5.269531 -13.140625 4.882812 -13.066406 4.53125 -12.921875 C 4.1875 -12.785156 3.894531 -12.625 3.65625 -12.4375 C 3.457031 -12.269531 3.3125 -12.0625 3.21875 -11.8125 C 3.132812 -11.5625 3.09375 -11.300781 3.09375 -11.03125 C 3.09375 -10.84375 3.117188 -10.65625 3.171875 -10.46875 C 3.222656 -10.28125 3.351562 -10.082031 3.5625 -9.875 C 3.78125 -9.675781 4.09375 -9.484375 4.5 -9.296875 C 4.90625 -9.109375 5.457031 -8.921875 6.15625 -8.734375 C 6.988281 -8.523438 7.691406 -8.296875 8.265625 -8.046875 C 8.847656 -7.804688 9.332031 -7.519531 9.71875 -7.1875 C 10.644531 -6.425781 11.109375 -5.421875 11.109375 -4.171875 Z M 11.109375 -4.171875 "/></g></g></g><g fill="#000000" fill-opacity="1"><g transform="translate(150.683367, 21.163019)"><g><path d="M 4.140625 -12.921875 L 0.109375 -12.921875 L 0.109375 -14.890625 L 10.375 -14.890625 L 10.375 -12.921875 L 6.328125 -12.921875 L 6.328125 0 L 4.140625 0 Z M 4.140625 -12.921875 "/></g></g></g><g fill="#000000" fill-opacity="1"><g transform="translate(169.296281, 21.163019)"><g><path d="M 5.203125 -13.078125 L 5.203125 -1.8125 L 6.296875 -1.8125 L 6.296875 0 L 1.90625 0 L 1.90625 -1.8125 L 3.03125 -1.8125 L 3.03125 -13.078125 L 1.90625 -13.078125 L 1.90625 -14.890625 L 6.296875 -14.890625 L 6.296875 -13.078125 Z M 5.203125 -13.078125 "/></g></g></g><g fill="#000000" fill-opacity="1"><g transform="translate(185.199616, 21.163019)"><g><path d="M 8.1875 -1.828125 C 9 -1.828125 9.75 -2.019531 10.4375 -2.40625 C 11.132812 -2.800781 11.722656 -3.320312 12.203125 -3.96875 L 13.734375 -2.5 C 13.054688 -1.695312 12.238281 -1.046875 11.28125 -0.546875 C 10.320312 -0.046875 9.289062 0.203125 8.1875 0.203125 C 7.175781 0.203125 6.222656 0 5.328125 -0.40625 C 4.429688 -0.8125 3.65625 -1.359375 3 -2.046875 C 2.34375 -2.742188 1.820312 -3.554688 1.4375 -4.484375 C 1.050781 -5.410156 0.859375 -6.394531 0.859375 -7.4375 C 0.859375 -8.488281 1.050781 -9.472656 1.4375 -10.390625 C 1.820312 -11.316406 2.34375 -12.125 3 -12.8125 C 3.65625 -13.507812 4.429688 -14.0625 5.328125 -14.46875 C 6.222656 -14.875 7.175781 -15.078125 8.1875 -15.078125 C 9.125 -15.078125 10.007812 -14.890625 10.84375 -14.515625 C 11.675781 -14.148438 12.421875 -13.664062 13.078125 -13.0625 L 11.78125 -11.40625 C 11.320312 -11.894531 10.78125 -12.296875 10.15625 -12.609375 C 9.539062 -12.921875 8.882812 -13.078125 8.1875 -13.078125 C 7.476562 -13.078125 6.8125 -12.925781 6.1875 -12.625 C 5.5625 -12.332031 5.015625 -11.925781 4.546875 -11.40625 C 4.085938 -10.882812 3.722656 -10.285156 3.453125 -9.609375 C 3.179688 -8.929688 3.046875 -8.207031 3.046875 -7.4375 C 3.046875 -6.664062 3.179688 -5.9375 3.453125 -5.25 C 3.722656 -4.570312 4.085938 -3.976562 4.546875 -3.46875 C 5.015625 -2.957031 5.5625 -2.554688 6.1875 -2.265625 C 6.8125 -1.972656 7.476562 -1.828125 8.1875 -1.828125 Z M 8.1875 -1.828125 "/></g></g></g><g fill="#000000" fill-opacity="1"><g transform="translate(207.257253, 21.163019)"><g><path d="M 8.078125 -15.09375 C 9.085938 -15.09375 10.039062 -14.890625 10.9375 -14.484375 C 11.832031 -14.078125 12.613281 -13.523438 13.28125 -12.828125 C 13.945312 -12.140625 14.472656 -11.332031 14.859375 -10.40625 C 15.253906 -9.476562 15.453125 -8.492188 15.453125 -7.453125 C 15.453125 -6.398438 15.253906 -5.410156 14.859375 -4.484375 C 14.472656 -3.566406 13.941406 -2.757812 13.265625 -2.0625 C 12.597656 -1.375 11.816406 -0.828125 10.921875 -0.421875 C 10.023438 -0.015625 9.070312 0.1875 8.0625 0.1875 C 7.050781 0.1875 6.097656 -0.015625 5.203125 -0.421875 C 4.304688 -0.828125 3.523438 -1.375 2.859375 -2.0625 C 2.203125 -2.757812 1.679688 -3.566406 1.296875 -4.484375 C 0.910156 -5.410156 0.71875 -6.398438 0.71875 -7.453125 C 0.71875 -8.492188 0.910156 -9.476562 1.296875 -10.40625 C 1.679688 -11.332031 2.207031 -12.140625 2.875 -12.828125 C 3.550781 -13.523438 4.335938 -14.078125 5.234375 -14.484375 C 6.128906 -14.890625 7.078125 -15.09375 8.078125 -15.09375 Z M 8.078125 -1.890625 C 8.796875 -1.890625 9.46875 -2.03125 10.09375 -2.3125 C 10.71875 -2.601562 11.257812 -3 11.71875 -3.5 C 12.175781 -4.007812 12.535156 -4.601562 12.796875 -5.28125 C 13.066406 -5.957031 13.203125 -6.679688 13.203125 -7.453125 C 13.203125 -8.222656 13.066406 -8.941406 12.796875 -9.609375 C 12.535156 -10.285156 12.175781 -10.875 11.71875 -11.375 C 11.257812 -11.882812 10.71875 -12.28125 10.09375 -12.5625 C 9.46875 -12.851562 8.796875 -13 8.078125 -13 C 7.367188 -13 6.703125 -12.851562 6.078125 -12.5625 C 5.453125 -12.28125 4.910156 -11.882812 4.453125 -11.375 C 3.992188 -10.875 3.625 -10.285156 3.34375 -9.609375 C 3.070312 -8.941406 2.9375 -8.222656 2.9375 -7.453125 C 2.9375 -6.679688 3.070312 -5.957031 3.34375 -5.28125 C 3.625 -4.601562 3.992188 -4.007812 4.453125 -3.5 C 4.910156 -3 5.453125 -2.601562 6.078125 -2.3125 C 6.703125 -2.03125 7.367188 -1.890625 8.078125 -1.890625 Z M 8.078125 -1.890625 "/></g></g></g><g fill="#000000" fill-opacity="1"><g transform="translate(231.016247, 21.163019)"><g><path d="M 11.109375 -4.171875 C 11.109375 -3.546875 10.984375 -2.960938 10.734375 -2.421875 C 10.484375 -1.878906 10.113281 -1.410156 9.625 -1.015625 C 8.65625 -0.203125 7.414062 0.203125 5.90625 0.203125 C 4.726562 0.203125 3.660156 -0.0351562 2.703125 -0.515625 C 1.753906 -0.992188 1.054688 -1.640625 0.609375 -2.453125 L 2.484375 -3.421875 C 2.753906 -2.921875 3.191406 -2.53125 3.796875 -2.25 C 4.410156 -1.976562 5.113281 -1.84375 5.90625 -1.84375 C 7.9375 -1.84375 8.953125 -2.617188 8.953125 -4.171875 C 8.953125 -4.472656 8.894531 -4.726562 8.78125 -4.9375 C 8.675781 -5.144531 8.519531 -5.335938 8.3125 -5.515625 C 7.8125 -5.941406 6.910156 -6.320312 5.609375 -6.65625 C 4.828125 -6.851562 4.160156 -7.070312 3.609375 -7.3125 C 3.066406 -7.550781 2.613281 -7.828125 2.25 -8.140625 C 1.363281 -8.859375 0.921875 -9.804688 0.921875 -10.984375 C 0.921875 -11.566406 1.035156 -12.113281 1.265625 -12.625 C 1.492188 -13.132812 1.820312 -13.582031 2.25 -13.96875 C 2.675781 -14.34375 3.179688 -14.625 3.765625 -14.8125 C 4.347656 -15 4.988281 -15.09375 5.6875 -15.09375 C 6.707031 -15.09375 7.648438 -14.894531 8.515625 -14.5 C 9.378906 -14.113281 10.035156 -13.566406 10.484375 -12.859375 L 8.78125 -11.796875 C 8.375 -12.285156 7.90625 -12.628906 7.375 -12.828125 C 6.84375 -13.035156 6.28125 -13.140625 5.6875 -13.140625 C 5.269531 -13.140625 4.882812 -13.066406 4.53125 -12.921875 C 4.1875 -12.785156 3.894531 -12.625 3.65625 -12.4375 C 3.457031 -12.269531 3.3125 -12.0625 3.21875 -11.8125 C 3.132812 -11.5625 3.09375 -11.300781 3.09375 -11.03125 C 3.09375 -10.84375 3.117188 -10.65625 3.171875 -10.46875 C 3.222656 -10.28125 3.351562 -10.082031 3.5625 -9.875 C 3.78125 -9.675781 4.09375 -9.484375 4.5 -9.296875 C 4.90625 -9.109375 5.457031 -8.921875 6.15625 -8.734375 C 6.988281 -8.523438 7.691406 -8.296875 8.265625 -8.046875 C 8.847656 -7.804688 9.332031 -7.519531 9.71875 -7.1875 C 10.644531 -6.425781 11.109375 -5.421875 11.109375 -4.171875 Z M 11.109375 -4.171875 "/></g></g></g></g></g></g></svg>