<svg xmlns="http://www.w3.org/2000/svg" xmlns:xlink="http://www.w3.org/1999/xlink" width="500" zoomAndPan="magnify" viewBox="0 0 375 374.999991" height="500" preserveAspectRatio="xMidYMid meet" version="1.0"><defs><clipPath id="674697215b"><path d="M 27.410156 18.496094 L 365.660156 18.496094 L 365.660156 356.746094 L 27.410156 356.746094 Z M 27.410156 18.496094 " clip-rule="nonzero"/></clipPath></defs><g clip-path="url(#674697215b)"><path fill="#1e4edd" d="M 365.605469 187.59375 C 365.605469 190.359375 365.539062 193.125 365.402344 195.890625 C 365.265625 198.652344 365.0625 201.414062 364.792969 204.167969 C 364.519531 206.921875 364.183594 209.667969 363.777344 212.402344 C 363.371094 215.140625 362.898438 217.867188 362.355469 220.582031 C 361.816406 223.296875 361.210938 225.996094 360.539062 228.679688 C 359.867188 231.363281 359.128906 234.03125 358.324219 236.679688 C 357.523438 239.328125 356.652344 241.953125 355.722656 244.558594 C 354.789062 247.164062 353.792969 249.746094 352.734375 252.304688 C 351.675781 254.859375 350.554688 257.390625 349.371094 259.890625 C 348.1875 262.394531 346.945312 264.863281 345.640625 267.304688 C 344.335938 269.746094 342.972656 272.152344 341.546875 274.527344 C 340.125 276.898438 338.644531 279.238281 337.109375 281.539062 C 335.570312 283.839844 333.976562 286.101562 332.328125 288.324219 C 330.679688 290.546875 328.980469 292.726562 327.222656 294.867188 C 325.46875 297.007812 323.660156 299.101562 321.800781 301.152344 C 319.941406 303.203125 318.035156 305.207031 316.078125 307.164062 C 314.121094 309.121094 312.117188 311.027344 310.066406 312.886719 C 308.015625 314.742188 305.921875 316.550781 303.78125 318.304688 C 301.644531 320.0625 299.464844 321.765625 297.238281 323.414062 C 295.015625 325.0625 292.753906 326.652344 290.453125 328.191406 C 288.152344 329.730469 285.816406 331.210938 283.441406 332.632812 C 281.070312 334.054688 278.660156 335.417969 276.222656 336.722656 C 273.78125 338.027344 271.308594 339.269531 268.808594 340.453125 C 266.304688 341.636719 263.777344 342.757812 261.21875 343.816406 C 258.664062 344.878906 256.082031 345.871094 253.476562 346.804688 C 250.871094 347.738281 248.242188 348.605469 245.59375 349.410156 C 242.945312 350.210938 240.28125 350.949219 237.597656 351.621094 C 234.910156 352.292969 232.210938 352.902344 229.5 353.441406 C 226.785156 353.980469 224.058594 354.453125 221.320312 354.859375 C 218.582031 355.265625 215.835938 355.605469 213.082031 355.875 C 210.328125 356.148438 207.570312 356.351562 204.804688 356.484375 C 202.042969 356.621094 199.277344 356.691406 196.507812 356.691406 C 193.742188 356.691406 190.976562 356.621094 188.210938 356.484375 C 185.449219 356.351562 182.6875 356.148438 179.933594 355.875 C 177.179688 355.605469 174.433594 355.265625 171.695312 354.859375 C 168.960938 354.453125 166.234375 353.980469 163.519531 353.441406 C 160.804688 352.902344 158.105469 352.292969 155.421875 351.621094 C 152.738281 350.949219 150.070312 350.210938 147.421875 349.410156 C 144.773438 348.605469 142.148438 347.738281 139.542969 346.804688 C 136.9375 345.871094 134.355469 344.878906 131.796875 343.816406 C 129.242188 342.757812 126.710938 341.636719 124.210938 340.453125 C 121.707031 339.269531 119.238281 338.027344 116.796875 336.722656 C 114.355469 335.417969 111.949219 334.054688 109.574219 332.632812 C 107.203125 331.210938 104.863281 329.730469 102.5625 328.191406 C 100.261719 326.652344 98 325.0625 95.777344 323.414062 C 93.554688 321.765625 91.375 320.0625 89.234375 318.304688 C 87.09375 316.550781 85 314.742188 82.949219 312.886719 C 80.898438 311.027344 78.894531 309.121094 76.9375 307.164062 C 74.980469 305.207031 73.074219 303.203125 71.214844 301.152344 C 69.359375 299.101562 67.550781 297.007812 65.796875 294.867188 C 64.039062 292.726562 62.335938 290.546875 60.6875 288.324219 C 59.039062 286.101562 57.445312 283.839844 55.910156 281.539062 C 54.371094 279.238281 52.890625 276.898438 51.46875 274.527344 C 50.046875 272.152344 48.683594 269.746094 47.378906 267.304688 C 46.074219 264.863281 44.828125 262.394531 43.648438 259.890625 C 42.464844 257.390625 41.34375 254.859375 40.285156 252.304688 C 39.222656 249.746094 38.230469 247.164062 37.296875 244.558594 C 36.363281 241.953125 35.496094 239.328125 34.691406 236.679688 C 33.890625 234.03125 33.152344 231.363281 32.480469 228.679688 C 31.808594 225.996094 31.199219 223.296875 30.660156 220.582031 C 30.121094 217.867188 29.648438 215.140625 29.242188 212.402344 C 28.835938 209.667969 28.496094 206.921875 28.226562 204.167969 C 27.953125 201.414062 27.75 198.652344 27.617188 195.890625 C 27.480469 193.125 27.410156 190.359375 27.410156 187.59375 C 27.410156 184.824219 27.480469 182.058594 27.617188 179.296875 C 27.75 176.53125 27.953125 173.773438 28.226562 171.019531 C 28.496094 168.265625 28.835938 165.519531 29.242188 162.78125 C 29.648438 160.042969 30.121094 157.316406 30.660156 154.601562 C 31.199219 151.890625 31.808594 149.191406 32.480469 146.503906 C 33.152344 143.820312 33.890625 141.15625 34.691406 138.507812 C 35.496094 135.859375 36.363281 133.230469 37.296875 130.625 C 38.230469 128.019531 39.222656 125.4375 40.285156 122.882812 C 41.34375 120.324219 42.464844 117.796875 43.648438 115.292969 C 44.828125 112.792969 46.074219 110.320312 47.378906 107.878906 C 48.683594 105.441406 50.046875 103.03125 51.46875 100.660156 C 52.890625 98.285156 54.371094 95.949219 55.910156 93.648438 C 57.445312 91.347656 59.039062 89.085938 60.6875 86.863281 C 62.335938 84.636719 64.039062 82.457031 65.796875 80.316406 C 67.550781 78.179688 69.359375 76.085938 71.214844 74.035156 C 73.074219 71.984375 74.980469 69.980469 76.9375 68.023438 C 78.894531 66.066406 80.898438 64.15625 82.949219 62.300781 C 85 60.441406 87.09375 58.632812 89.234375 56.878906 C 91.375 55.121094 93.554688 53.421875 95.777344 51.773438 C 98 50.125 100.261719 48.53125 102.5625 46.992188 C 104.863281 45.457031 107.203125 43.976562 109.574219 42.554688 C 111.949219 41.128906 114.355469 39.765625 116.796875 38.460938 C 119.238281 37.15625 121.707031 35.914062 124.210938 34.730469 C 126.710938 33.546875 129.242188 32.425781 131.796875 31.367188 C 134.355469 30.308594 136.9375 29.3125 139.542969 28.378906 C 142.148438 27.449219 144.773438 26.578125 147.421875 25.777344 C 150.070312 24.972656 152.738281 24.234375 155.421875 23.5625 C 158.105469 22.890625 160.804688 22.285156 163.519531 21.746094 C 166.234375 21.203125 168.960938 20.730469 171.695312 20.324219 C 174.433594 19.917969 177.179688 19.582031 179.933594 19.308594 C 182.6875 19.039062 185.449219 18.835938 188.210938 18.699219 C 190.976562 18.5625 193.742188 18.496094 196.507812 18.496094 C 199.277344 18.496094 202.042969 18.5625 204.804688 18.699219 C 207.570312 18.835938 210.328125 19.039062 213.082031 19.308594 C 215.835938 19.582031 218.582031 19.917969 221.320312 20.324219 C 224.058594 20.730469 226.785156 21.203125 229.5 21.746094 C 232.210938 22.285156 234.910156 22.890625 237.597656 23.5625 C 240.28125 24.234375 242.945312 24.972656 245.59375 25.777344 C 248.242188 26.578125 250.871094 27.449219 253.476562 28.378906 C 256.082031 29.3125 258.664062 30.308594 261.21875 31.367188 C 263.777344 32.425781 266.304688 33.546875 268.808594 34.730469 C 271.308594 35.914062 273.78125 37.15625 276.222656 38.460938 C 278.660156 39.765625 281.070312 41.128906 283.441406 42.554688 C 285.816406 43.976562 288.152344 45.457031 290.453125 46.992188 C 292.753906 48.53125 295.015625 50.125 297.238281 51.773438 C 299.464844 53.421875 301.644531 55.121094 303.78125 56.878906 C 305.921875 58.632812 308.015625 60.441406 310.066406 62.300781 C 312.117188 64.15625 314.121094 66.066406 316.078125 68.023438 C 318.035156 69.980469 319.941406 71.984375 321.800781 74.035156 C 323.660156 76.085938 325.46875 78.179688 327.222656 80.316406 C 328.980469 82.457031 330.679688 84.636719 332.328125 86.863281 C 333.976562 89.085938 335.570312 91.347656 337.109375 93.648438 C 338.644531 95.949219 340.125 98.285156 341.546875 100.660156 C 342.972656 103.03125 344.335938 105.441406 345.640625 107.878906 C 346.945312 110.320312 348.1875 112.792969 349.371094 115.292969 C 350.554688 117.796875 351.675781 120.324219 352.734375 122.882812 C 353.792969 125.4375 354.789062 128.019531 355.722656 130.625 C 356.652344 133.230469 357.523438 135.859375 358.324219 138.507812 C 359.128906 141.15625 359.867188 143.820312 360.539062 146.503906 C 361.210938 149.191406 361.816406 151.890625 362.355469 154.601562 C 362.898438 157.316406 363.371094 160.042969 363.777344 162.78125 C 364.183594 165.519531 364.519531 168.265625 364.792969 171.019531 C 365.0625 173.773438 365.265625 176.53125 365.402344 179.296875 C 365.539062 182.058594 365.605469 184.824219 365.605469 187.59375 Z M 365.605469 187.59375 " fill-opacity="1" fill-rule="nonzero"/></g><path fill="#eae5d3" d="M 352.308594 187.59375 C 352.308594 190.140625 352.246094 192.691406 352.121094 195.238281 C 351.996094 197.785156 351.808594 200.324219 351.558594 202.863281 C 351.308594 205.402344 350.996094 207.929688 350.621094 210.453125 C 350.246094 212.976562 349.8125 215.488281 349.3125 217.988281 C 348.816406 220.488281 348.257812 222.976562 347.636719 225.449219 C 347.019531 227.921875 346.339844 230.378906 345.597656 232.820312 C 344.859375 235.257812 344.058594 237.679688 343.199219 240.078125 C 342.339844 242.480469 341.421875 244.859375 340.449219 247.214844 C 339.472656 249.570312 338.4375 251.898438 337.347656 254.203125 C 336.257812 256.511719 335.113281 258.785156 333.910156 261.035156 C 332.707031 263.285156 331.453125 265.5 330.140625 267.6875 C 328.832031 269.875 327.46875 272.03125 326.050781 274.148438 C 324.632812 276.269531 323.167969 278.351562 321.648438 280.402344 C 320.128906 282.449219 318.558594 284.457031 316.941406 286.429688 C 315.324219 288.402344 313.660156 290.332031 311.949219 292.21875 C 310.234375 294.109375 308.476562 295.957031 306.675781 297.757812 C 304.871094 299.5625 303.027344 301.320312 301.136719 303.03125 C 299.246094 304.742188 297.316406 306.410156 295.347656 308.027344 C 293.375 309.644531 291.367188 311.210938 289.316406 312.730469 C 287.269531 314.25 285.1875 315.71875 283.066406 317.132812 C 280.945312 318.550781 278.792969 319.914062 276.605469 321.226562 C 274.417969 322.535156 272.199219 323.792969 269.953125 324.996094 C 267.703125 326.195312 265.425781 327.34375 263.121094 328.433594 C 260.816406 329.523438 258.484375 330.554688 256.128906 331.53125 C 253.773438 332.507812 251.398438 333.425781 248.996094 334.285156 C 246.59375 335.140625 244.175781 335.941406 241.734375 336.683594 C 239.292969 337.421875 236.839844 338.101562 234.363281 338.722656 C 231.890625 339.339844 229.40625 339.898438 226.902344 340.398438 C 224.402344 340.894531 221.890625 341.332031 219.371094 341.703125 C 216.847656 342.078125 214.316406 342.390625 211.78125 342.640625 C 209.242188 342.890625 206.699219 343.078125 204.152344 343.203125 C 201.605469 343.328125 199.058594 343.390625 196.507812 343.390625 C 193.960938 343.390625 191.410156 343.328125 188.863281 343.203125 C 186.316406 343.078125 183.777344 342.890625 181.238281 342.640625 C 178.699219 342.390625 176.171875 342.078125 173.648438 341.703125 C 171.125 341.332031 168.613281 340.894531 166.113281 340.398438 C 163.613281 339.898438 161.125 339.339844 158.652344 338.722656 C 156.179688 338.101562 153.722656 337.421875 151.28125 336.683594 C 148.84375 335.941406 146.421875 335.140625 144.023438 334.285156 C 141.621094 333.425781 139.242188 332.507812 136.886719 331.53125 C 134.53125 330.554688 132.203125 329.523438 129.898438 328.433594 C 127.589844 327.34375 125.316406 326.195312 123.066406 324.996094 C 120.816406 323.792969 118.601562 322.535156 116.414062 321.226562 C 114.226562 319.914062 112.070312 318.550781 109.953125 317.132812 C 107.832031 315.71875 105.746094 314.25 103.699219 312.730469 C 101.652344 311.210938 99.640625 309.644531 97.671875 308.027344 C 95.699219 306.410156 93.769531 304.742188 91.882812 303.03125 C 89.992188 301.320312 88.144531 299.5625 86.34375 297.757812 C 84.539062 295.957031 82.78125 294.109375 81.070312 292.21875 C 79.359375 290.332031 77.691406 288.402344 76.074219 286.429688 C 74.457031 284.457031 72.890625 282.449219 71.371094 280.402344 C 69.851562 278.351562 68.382812 276.269531 66.96875 274.148438 C 65.550781 272.03125 64.1875 269.875 62.875 267.6875 C 61.566406 265.5 60.308594 263.285156 59.105469 261.035156 C 57.90625 258.785156 56.757812 256.511719 55.667969 254.203125 C 54.578125 251.898438 53.546875 249.570312 52.570312 247.214844 C 51.59375 244.859375 50.675781 242.480469 49.816406 240.078125 C 48.960938 237.679688 48.160156 235.257812 47.417969 232.820312 C 46.679688 230.378906 46 227.921875 45.378906 225.449219 C 44.761719 222.976562 44.203125 220.488281 43.703125 217.988281 C 43.207031 215.488281 42.769531 212.976562 42.398438 210.453125 C 42.023438 207.929688 41.710938 205.402344 41.460938 202.863281 C 41.210938 200.324219 41.023438 197.785156 40.898438 195.238281 C 40.773438 192.691406 40.710938 190.140625 40.710938 187.59375 C 40.710938 185.042969 40.773438 182.496094 40.898438 179.949219 C 41.023438 177.402344 41.210938 174.859375 41.460938 172.320312 C 41.710938 169.785156 42.023438 167.253906 42.398438 164.730469 C 42.769531 162.210938 43.207031 159.699219 43.703125 157.199219 C 44.203125 154.695312 44.761719 152.210938 45.378906 149.738281 C 46 147.261719 46.679688 144.804688 47.417969 142.367188 C 48.160156 139.925781 48.960938 137.507812 49.816406 135.105469 C 50.675781 132.703125 51.59375 130.328125 52.570312 127.972656 C 53.546875 125.617188 54.578125 123.285156 55.667969 120.980469 C 56.757812 118.675781 57.90625 116.398438 59.105469 114.148438 C 60.308594 111.902344 61.566406 109.683594 62.875 107.496094 C 64.1875 105.308594 65.550781 103.15625 66.96875 101.035156 C 68.382812 98.914062 69.851562 96.832031 71.371094 94.785156 C 72.890625 92.734375 74.457031 90.726562 76.074219 88.753906 C 77.691406 86.785156 79.359375 84.855469 81.070312 82.964844 C 82.78125 81.074219 84.539062 79.230469 86.34375 77.425781 C 88.144531 75.625 89.992188 73.867188 91.882812 72.152344 C 93.769531 70.441406 95.699219 68.777344 97.671875 67.160156 C 99.640625 65.542969 101.652344 63.972656 103.699219 62.453125 C 105.746094 60.933594 107.832031 59.46875 109.953125 58.050781 C 112.070312 56.632812 114.226562 55.269531 116.414062 53.960938 C 118.601562 52.648438 120.816406 51.394531 123.066406 50.191406 C 125.316406 48.988281 127.589844 47.84375 129.898438 46.753906 C 132.203125 45.664062 134.53125 44.628906 136.886719 43.652344 C 139.242188 42.679688 141.621094 41.761719 144.023438 40.902344 C 146.421875 40.042969 148.84375 39.242188 151.28125 38.503906 C 153.722656 37.761719 156.179688 37.082031 158.652344 36.464844 C 161.125 35.84375 163.613281 35.285156 166.113281 34.789062 C 168.613281 34.289062 171.125 33.855469 173.648438 33.480469 C 176.171875 33.105469 178.699219 32.792969 181.238281 32.542969 C 183.777344 32.292969 186.316406 32.105469 188.863281 31.980469 C 191.410156 31.855469 193.960938 31.792969 196.507812 31.792969 C 199.058594 31.792969 201.605469 31.855469 204.152344 31.980469 C 206.699219 32.105469 209.242188 32.292969 211.78125 32.542969 C 214.316406 32.792969 216.847656 33.105469 219.371094 33.480469 C 221.890625 33.855469 224.402344 34.289062 226.902344 34.789062 C 229.40625 35.285156 231.890625 35.84375 234.363281 36.464844 C 236.839844 37.082031 239.292969 37.761719 241.734375 38.503906 C 244.175781 39.242188 246.59375 40.042969 248.996094 40.902344 C 251.398438 41.761719 253.773438 42.679688 256.128906 43.652344 C 258.484375 44.628906 260.816406 45.664062 263.121094 46.753906 C 265.425781 47.84375 267.703125 48.988281 269.953125 50.191406 C 272.199219 51.394531 274.417969 52.648438 276.605469 53.960938 C 278.792969 55.269531 280.945312 56.632812 283.066406 58.050781 C 285.1875 59.46875 287.269531 60.933594 289.316406 62.453125 C 291.367188 63.972656 293.375 65.542969 295.347656 67.160156 C 297.316406 68.777344 299.246094 70.441406 301.136719 72.152344 C 303.027344 73.867188 304.871094 75.625 306.675781 77.425781 C 308.476562 79.230469 310.234375 81.074219 311.949219 82.964844 C 313.660156 84.855469 315.324219 86.785156 316.941406 88.753906 C 318.558594 90.726562 320.128906 92.734375 321.648438 94.785156 C 323.167969 96.832031 324.632812 98.914062 326.050781 101.035156 C 327.46875 103.15625 328.832031 105.308594 330.140625 107.496094 C 331.453125 109.683594 332.707031 111.902344 333.910156 114.148438 C 335.113281 116.398438 336.257812 118.675781 337.347656 120.980469 C 338.4375 123.285156 339.472656 125.617188 340.449219 127.972656 C 341.421875 130.328125 342.339844 132.703125 343.199219 135.105469 C 344.058594 137.507812 344.859375 139.925781 345.597656 142.367188 C 346.339844 144.804688 347.019531 147.261719 347.636719 149.738281 C 348.257812 152.210938 348.816406 154.695312 349.3125 157.199219 C 349.8125 159.699219 350.246094 162.210938 350.621094 164.730469 C 350.996094 167.253906 351.308594 169.785156 351.558594 172.320312 C 351.808594 174.859375 351.996094 177.402344 352.121094 179.949219 C 352.246094 182.496094 352.308594 185.042969 352.308594 187.59375 Z M 352.308594 187.59375 " fill-opacity="1" fill-rule="nonzero"/><path fill="#1e4edd" d="M 282.109375 157.113281 L 226.988281 157.113281 L 226.988281 101.992188 C 226.988281 101.214844 226.910156 100.449219 226.761719 99.691406 C 226.609375 98.929688 226.386719 98.191406 226.089844 97.476562 C 225.792969 96.761719 225.429688 96.082031 225 95.4375 C 224.570312 94.796875 224.082031 94.199219 223.535156 93.652344 C 222.984375 93.105469 222.390625 92.617188 221.746094 92.1875 C 221.101562 91.757812 220.421875 91.394531 219.707031 91.097656 C 218.992188 90.800781 218.253906 90.578125 217.496094 90.425781 C 216.738281 90.273438 215.96875 90.199219 215.195312 90.199219 L 177.820312 90.199219 C 177.046875 90.199219 176.28125 90.273438 175.523438 90.425781 C 174.761719 90.578125 174.023438 90.800781 173.308594 91.097656 C 172.59375 91.394531 171.914062 91.757812 171.269531 92.1875 C 170.628906 92.617188 170.03125 93.105469 169.484375 93.652344 C 168.9375 94.199219 168.449219 94.796875 168.019531 95.4375 C 167.585938 96.082031 167.222656 96.761719 166.929688 97.476562 C 166.632812 98.191406 166.410156 98.929688 166.257812 99.691406 C 166.105469 100.449219 166.03125 101.214844 166.03125 101.992188 L 166.03125 157.113281 L 110.90625 157.113281 C 110.132812 157.113281 109.367188 157.1875 108.605469 157.339844 C 107.847656 157.492188 107.109375 157.714844 106.394531 158.011719 C 105.679688 158.308594 105 158.671875 104.355469 159.101562 C 103.710938 159.53125 103.117188 160.019531 102.570312 160.566406 C 102.019531 161.113281 101.53125 161.710938 101.101562 162.355469 C 100.671875 162.996094 100.308594 163.675781 100.011719 164.394531 C 99.714844 165.109375 99.492188 165.84375 99.339844 166.605469 C 99.191406 167.363281 99.117188 168.132812 99.117188 168.90625 L 99.117188 206.28125 C 99.117188 207.054688 99.191406 207.820312 99.34375 208.582031 C 99.492188 209.339844 99.714844 210.078125 100.011719 210.792969 C 100.308594 211.507812 100.671875 212.1875 101.101562 212.832031 C 101.53125 213.476562 102.023438 214.070312 102.570312 214.617188 C 103.117188 215.164062 103.710938 215.65625 104.355469 216.085938 C 105 216.515625 105.679688 216.878906 106.394531 217.175781 C 107.109375 217.46875 107.847656 217.695312 108.605469 217.84375 C 109.367188 217.996094 110.132812 218.070312 110.90625 218.070312 L 166.03125 218.070312 L 166.03125 273.195312 C 166.03125 273.96875 166.105469 274.734375 166.257812 275.496094 C 166.40625 276.253906 166.632812 276.992188 166.925781 277.707031 C 167.222656 278.421875 167.585938 279.101562 168.015625 279.746094 C 168.449219 280.390625 168.9375 280.984375 169.484375 281.53125 C 170.03125 282.078125 170.628906 282.566406 171.269531 283 C 171.914062 283.429688 172.59375 283.792969 173.308594 284.085938 C 174.023438 284.382812 174.761719 284.609375 175.523438 284.757812 C 176.28125 284.910156 177.046875 284.984375 177.820312 284.984375 L 215.195312 284.984375 C 215.972656 284.984375 216.738281 284.910156 217.496094 284.757812 C 218.257812 284.605469 218.992188 284.382812 219.710938 284.085938 C 220.425781 283.792969 221.105469 283.429688 221.746094 282.996094 C 222.390625 282.566406 222.988281 282.078125 223.535156 281.53125 C 224.082031 280.984375 224.570312 280.386719 225 279.746094 C 225.429688 279.101562 225.792969 278.421875 226.089844 277.707031 C 226.386719 276.992188 226.609375 276.253906 226.761719 275.492188 C 226.914062 274.734375 226.988281 273.96875 226.988281 273.195312 L 226.988281 218.070312 L 282.109375 218.070312 C 282.886719 218.070312 283.652344 217.996094 284.410156 217.84375 C 285.171875 217.691406 285.910156 217.46875 286.625 217.171875 C 287.339844 216.878906 288.019531 216.515625 288.664062 216.082031 C 289.304688 215.652344 289.902344 215.164062 290.449219 214.617188 C 290.996094 214.070312 291.484375 213.472656 291.914062 212.832031 C 292.34375 212.1875 292.707031 211.507812 293.003906 210.792969 C 293.300781 210.078125 293.523438 209.339844 293.675781 208.578125 C 293.828125 207.820312 293.902344 207.054688 293.902344 206.28125 L 293.902344 168.90625 C 293.902344 168.132812 293.828125 167.363281 293.675781 166.605469 C 293.523438 165.84375 293.300781 165.109375 293.003906 164.394531 C 292.707031 163.675781 292.34375 162.996094 291.914062 162.355469 C 291.484375 161.710938 290.996094 161.113281 290.449219 160.566406 C 289.902344 160.019531 289.304688 159.53125 288.660156 159.101562 C 288.019531 158.671875 287.339844 158.308594 286.621094 158.011719 C 285.90625 157.714844 285.171875 157.492188 284.410156 157.339844 C 283.652344 157.1875 282.882812 157.113281 282.109375 157.113281 Z M 282.109375 157.113281 " fill-opacity="1" fill-rule="nonzero"/></svg>